<svg width="19" height="15" viewBox="0 0 19 15" fill="none" xmlns="http://www.w3.org/2000/svg">
<mask id="path-1-inside-1_14093_282974" fill="white">
<path fill-rule="evenodd" clip-rule="evenodd" d="M7.05166 0.935153C7.1594 0.891976 7.27963 0.891976 7.38737 0.935153L9.38898 1.73562L3.83537 3.95652L1.6659 3.08928L7.05166 0.935153ZM5.05005 4.44293L10.6037 2.22203L12.7731 3.08928L7.21951 5.31018L5.05005 4.44293ZM7.67073 13.2516V6.10252L13.5366 3.75618V3.75708V7.74671C13.8532 7.77364 14.1564 7.84785 14.439 7.96223V3.08928C14.439 2.99916 14.412 2.91112 14.3615 2.83649C14.311 2.76186 14.2393 2.70407 14.1557 2.67054L7.72217 0.0967871C7.39949 -0.0322624 7.03954 -0.0322624 6.71685 0.0967871L0.283366 2.67054C0.199721 2.70407 0.128029 2.76186 0.0775258 2.83649C0.0270224 2.91112 2.09726e-05 2.99916 0 3.08928V10.9062C0.0001862 11.0866 0.0544547 11.2629 0.155799 11.4121C0.257143 11.5614 0.40091 11.6769 0.568537 11.7437L7.05166 14.3373C7.1594 14.3805 7.27963 14.3805 7.38737 14.3373L10.9264 12.9217C10.7237 12.6919 10.5543 12.432 10.4257 12.1497L7.67073 13.2516ZM6.76829 6.10162V13.2525L0.902439 10.9062V3.75618L6.76829 6.10162Z"/>
</mask>
<path fill-rule="evenodd" clip-rule="evenodd" d="M7.05166 0.935153C7.1594 0.891976 7.27963 0.891976 7.38737 0.935153L9.38898 1.73562L3.83537 3.95652L1.6659 3.08928L7.05166 0.935153ZM5.05005 4.44293L10.6037 2.22203L12.7731 3.08928L7.21951 5.31018L5.05005 4.44293ZM7.67073 13.2516V6.10252L13.5366 3.75618V3.75708V7.74671C13.8532 7.77364 14.1564 7.84785 14.439 7.96223V3.08928C14.439 2.99916 14.412 2.91112 14.3615 2.83649C14.311 2.76186 14.2393 2.70407 14.1557 2.67054L7.72217 0.0967871C7.39949 -0.0322624 7.03954 -0.0322624 6.71685 0.0967871L0.283366 2.67054C0.199721 2.70407 0.128029 2.76186 0.0775258 2.83649C0.0270224 2.91112 2.09726e-05 2.99916 0 3.08928V10.9062C0.0001862 11.0866 0.0544547 11.2629 0.155799 11.4121C0.257143 11.5614 0.40091 11.6769 0.568537 11.7437L7.05166 14.3373C7.1594 14.3805 7.27963 14.3805 7.38737 14.3373L10.9264 12.9217C10.7237 12.6919 10.5543 12.432 10.4257 12.1497L7.67073 13.2516ZM6.76829 6.10162V13.2525L0.902439 10.9062V3.75618L6.76829 6.10162Z" fill="#757A93"/>
<path d="M7.38737 0.935153L7.31297 1.1208L7.3131 1.12085L7.38737 0.935153ZM7.05166 0.935153L7.12593 1.12085L7.12606 1.1208L7.05166 0.935153ZM9.38898 1.73562L9.46324 1.92132L9.9276 1.73562L9.46324 1.54992L9.38898 1.73562ZM3.83537 3.95652L3.76113 4.14223L3.83538 4.17191L3.90963 4.14222L3.83537 3.95652ZM1.6659 3.08928L1.59163 2.90358L1.12722 3.08933L1.59166 3.27499L1.6659 3.08928ZM10.6037 2.22203L10.6779 2.03632L10.6036 2.00664L10.5294 2.03633L10.6037 2.22203ZM5.05005 4.44293L4.97579 4.25723L4.51133 4.44297L4.97581 4.62864L5.05005 4.44293ZM12.7731 3.08928L12.8474 3.27498L13.3118 3.08924L12.8474 2.90356L12.7731 3.08928ZM7.21951 5.31018L7.14527 5.49589L7.21953 5.52557L7.29378 5.49588L7.21951 5.31018ZM7.67073 6.10252L7.59645 5.91682L7.47073 5.96711V6.10252H7.67073ZM7.67073 13.2516H7.47073V13.547L7.74501 13.4373L7.67073 13.2516ZM13.5366 3.75618H13.7366V3.46077L13.4623 3.57048L13.5366 3.75618ZM13.5366 7.74671H13.3366V7.93042L13.5196 7.94599L13.5366 7.74671ZM14.439 7.96223L14.364 8.14762L14.639 8.25893V7.96223H14.439ZM14.439 3.08928H14.639V3.08923L14.439 3.08928ZM14.3615 2.83649L14.1959 2.94858L14.1959 2.94858L14.3615 2.83649ZM14.1557 2.67054L14.2301 2.4849L14.2299 2.48485L14.1557 2.67054ZM7.72217 0.0967871L7.79646 -0.0889046L7.79644 -0.0889128L7.72217 0.0967871ZM6.71685 0.0967871L6.64259 -0.0889128L6.64257 -0.0889046L6.71685 0.0967871ZM0.283366 2.67054L0.209079 2.48485L0.208966 2.4849L0.283366 2.67054ZM0 3.08928L-0.2 3.08923V3.08928H0ZM0 10.9062H-0.2L-0.2 10.9064L0 10.9062ZM0.155799 11.4121L-0.00967249 11.5245H-0.00967249L0.155799 11.4121ZM0.568537 11.7437L0.642824 11.558L0.642537 11.5579L0.568537 11.7437ZM7.05166 14.3373L7.12606 14.1516L7.12595 14.1516L7.05166 14.3373ZM7.38737 14.3373L7.31309 14.1516L7.31296 14.1516L7.38737 14.3373ZM10.9264 12.9217L11.0007 13.1074L11.264 13.002L11.0764 12.7894L10.9264 12.9217ZM10.4257 12.1497L10.6077 12.0668L10.5286 11.8931L10.3514 11.964L10.4257 12.1497ZM6.76829 13.2525L6.69401 13.4382L6.96829 13.5479V13.2525H6.76829ZM6.76829 6.10162H6.96829V5.96619L6.84255 5.91591L6.76829 6.10162ZM0.902439 10.9062H0.702439V11.0416L0.828161 11.0919L0.902439 10.9062ZM0.902439 3.75618L0.976693 3.57047L0.702439 3.46081V3.75618H0.902439ZM7.46177 0.749506C7.30627 0.687191 7.13275 0.687191 6.97726 0.749506L7.12606 1.1208C7.18604 1.09676 7.25298 1.09676 7.31297 1.1208L7.46177 0.749506ZM9.46324 1.54992L7.46163 0.749452L7.3131 1.12085L9.31471 1.92132L9.46324 1.54992ZM3.90963 4.14222L9.46324 1.92132L9.31471 1.54991L3.7611 3.77082L3.90963 4.14222ZM1.59166 3.27499L3.76113 4.14223L3.9096 3.77081L1.74014 2.90356L1.59166 3.27499ZM6.97739 0.749456L1.59163 2.90358L1.74018 3.27497L7.12593 1.12085L6.97739 0.749456ZM10.5294 2.03633L4.97579 4.25723L5.12431 4.62863L10.6779 2.40773L10.5294 2.03633ZM12.8474 2.90356L10.6779 2.03632L10.5294 2.40774L12.6989 3.27499L12.8474 2.90356ZM7.29378 5.49588L12.8474 3.27498L12.6989 2.90357L7.14525 5.12448L7.29378 5.49588ZM4.97581 4.62864L7.14527 5.49589L7.29375 5.12447L5.12429 4.25722L4.97581 4.62864ZM7.47073 6.10252V13.2516H7.87073V6.10252H7.47073ZM13.4623 3.57048L7.59645 5.91682L7.74501 6.28821L13.6109 3.94187L13.4623 3.57048ZM13.7366 3.75708V3.75618H13.3366V3.75708H13.7366ZM13.7366 7.74671V3.75708H13.3366V7.74671H13.7366ZM13.5196 7.94599C13.816 7.9712 14.0997 8.04063 14.364 8.14762L14.5141 7.77684C14.2132 7.65506 13.8904 7.57609 13.5535 7.54743L13.5196 7.94599ZM14.239 3.08928V7.96223H14.639V3.08928H14.239ZM14.1959 2.94858C14.224 2.99013 14.239 3.03915 14.239 3.08932L14.639 3.08923C14.639 2.95918 14.6 2.83211 14.5271 2.7244L14.1959 2.94858ZM14.0813 2.85619C14.1278 2.87485 14.1677 2.90703 14.1959 2.94858L14.5271 2.7244C14.4542 2.61669 14.3508 2.53328 14.2301 2.4849L14.0813 2.85619ZM7.64788 0.282479L14.0814 2.85624L14.2299 2.48485L7.79646 -0.0889046L7.64788 0.282479ZM6.79112 0.282487C7.06613 0.172504 7.3729 0.172504 7.6479 0.282487L7.79644 -0.0889128C7.42608 -0.237029 7.01294 -0.237029 6.64259 -0.0889128L6.79112 0.282487ZM0.357653 2.85624L6.79114 0.282479L6.64257 -0.0889046L0.209079 2.48485L0.357653 2.85624ZM0.243163 2.94858C0.271281 2.90703 0.311196 2.87485 0.357766 2.85619L0.208966 2.4849C0.0882465 2.53328 -0.0152225 2.61669 -0.0881114 2.7244L0.243163 2.94858ZM0.2 3.08932C0.200012 3.03915 0.215045 2.99013 0.243163 2.94858L-0.0881114 2.7244C-0.161 2.83211 -0.19997 2.95918 -0.2 3.08923L0.2 3.08932ZM0.2 10.9062V3.08928H-0.2V10.9062H0.2ZM0.32127 11.2998C0.242386 11.1836 0.200145 11.0464 0.2 10.906L-0.2 10.9064C-0.199772 11.1268 -0.133477 11.3421 -0.00967249 11.5245L0.32127 11.2998ZM0.642537 11.5579C0.51206 11.5059 0.400155 11.416 0.32127 11.2998L-0.00967249 11.5245C0.114132 11.7068 0.28976 11.8479 0.494536 11.9295L0.642537 11.5579ZM7.12595 14.1516L0.642824 11.558L0.49425 11.9294L6.97737 14.523L7.12595 14.1516ZM7.31296 14.1516C7.25298 14.1757 7.18604 14.1757 7.12606 14.1516L6.97726 14.5229C7.13275 14.5852 7.30627 14.5852 7.46177 14.5229L7.31296 14.1516ZM10.8521 12.736L7.31309 14.1516L7.46164 14.523L11.0007 13.1074L10.8521 12.736ZM11.0764 12.7894C10.8866 12.5742 10.728 12.331 10.6077 12.0668L10.2437 12.2325C10.3805 12.5331 10.5608 12.8096 10.7764 13.054L11.0764 12.7894ZM7.74501 13.4373L10.5 12.3354L10.3514 11.964L7.59645 13.0659L7.74501 13.4373ZM6.96829 13.2525V6.10162H6.56829V13.2525H6.96829ZM0.828161 11.0919L6.69401 13.4382L6.84257 13.0668L0.976717 10.7205L0.828161 11.0919ZM0.702439 3.75618V10.9062H1.10244V3.75618H0.702439ZM6.84255 5.91591L0.976693 3.57047L0.828186 3.94188L6.69404 6.28732L6.84255 5.91591Z" fill="#757A93" mask="url(#path-1-inside-1_14093_282974)"/>
<path fill-rule="evenodd" clip-rule="evenodd" d="M15.3091 8.02727C15.2484 8.04527 15.1933 8.07165 15.1468 8.1049C15.1003 8.13807 15.0634 8.17747 15.0382 8.22085C15.013 8.26423 15 8.31074 15 8.3577C15 8.40467 15.013 8.45117 15.0382 8.49455C15.0634 8.53793 15.1003 8.57734 15.1468 8.61051L17.0924 10H11.2502C11.1839 10 11.1202 10.0527 11.0733 10.1464C11.0264 10.2402 11 10.3674 11 10.5C11 10.6326 11.0264 10.7598 11.0733 10.8536C11.1202 10.9473 11.1839 11 11.2502 11H17.0927L15.1468 12.3897C15.053 12.4567 15.0003 12.5477 15.0003 12.6425C15.0003 12.7373 15.053 12.8282 15.1468 12.8953C15.2407 12.9623 15.368 13 15.5007 13C15.6334 13 15.7607 12.9623 15.8545 12.8953L18.8532 10.7529C18.8997 10.7197 18.9366 10.6803 18.9618 10.6369C18.987 10.5936 19 10.5471 19 10.5001C19 10.4531 18.987 10.4066 18.9618 10.3632C18.9366 10.3199 18.8997 10.2805 18.8532 10.2473L15.8545 8.1049C15.8081 8.07165 15.7529 8.04527 15.6922 8.02727C15.6315 8.00927 15.5664 8 15.5007 8C15.4349 8 15.3698 8.00927 15.3091 8.02727Z" fill="#757A93"/>
</svg>
