<svg width="16" height="16" viewBox="0 0 16 16" fill="none" xmlns="http://www.w3.org/2000/svg">
<path d="M12.6059 8.24238C12.5234 8.24293 12.4409 8.21626 12.3838 8.16708C12.2569 8.06575 9.21191 5.63909 9.21191 3.17036C9.21191 2.32947 9.56717 1.52296 10.2015 0.928589C10.8423 0.334221 11.705 0 12.6059 0C13.5003 0 14.3694 0.334221 15.0038 0.928589C15.6382 1.52296 15.9998 2.32947 15.9998 3.17036C15.9998 5.63909 12.9548 8.06575 12.8279 8.16708C12.7644 8.21686 12.682 8.24352 12.6059 8.24238ZM12.6059 0.635257C11.8827 0.635849 11.1912 0.903108 10.6837 1.37837C10.1762 1.85422 9.8907 2.49836 9.8907 3.17095C9.8907 4.98902 11.9207 6.90842 12.6059 7.49686C13.2846 6.90427 15.3147 4.98665 15.3147 3.17095C15.3147 2.49836 15.0292 1.85422 14.5217 1.37837C14.0142 0.903108 13.3227 0.635849 12.6059 0.635257Z" fill="#757A93"/>
<path d="M12.6108 4.84854C12.3182 4.84854 12.0391 4.76354 11.8009 4.60373C11.5559 4.44324 11.3722 4.2161 11.2633 3.95089C11.1544 3.68499 11.1204 3.39257 11.1816 3.11036C11.2361 2.82814 11.3722 2.56904 11.5764 2.36571C11.7805 2.1617 12.0391 2.02365 12.325 1.96721C12.604 1.91145 12.8967 1.94001 13.1621 2.05017C13.4275 2.16034 13.6589 2.34667 13.8154 2.58605C13.9788 2.82474 14.0605 3.10628 14.0605 3.39393C14.0605 3.77952 13.9107 4.14946 13.6385 4.42216C13.3663 4.69485 12.992 4.84786 12.6108 4.84854ZM12.6108 2.66629C12.4611 2.66629 12.325 2.70913 12.2025 2.7887C12.08 2.86894 11.9915 2.98251 11.9371 3.1158C11.8826 3.24841 11.8622 3.39461 11.8962 3.53606C11.9234 3.67683 11.9915 3.80672 12.0936 3.90872C12.1957 4.01005 12.325 4.07941 12.4679 4.1073C12.604 4.13586 12.7537 4.12158 12.8831 4.06649C13.0192 4.01141 13.1349 3.91757 13.2097 3.79788C13.2914 3.67887 13.339 3.5381 13.339 3.39393C13.3322 3.2008 13.2574 3.01583 13.1213 2.87982C12.9851 2.74314 12.8014 2.66629 12.6108 2.66629Z" fill="#757A93"/>
<path d="M1.93958 15.0301C1.86106 15.0301 1.78253 14.9975 1.72212 14.9383C1.65567 14.8683 0.000518907 13.2013 0.000518907 11.4847C-0.0115625 10.8945 0.187781 10.3235 0.550223 9.89721C0.918706 9.47162 1.41404 9.22483 1.93958 9.21191C2.46513 9.22483 2.96046 9.47162 3.32291 9.89721C3.69139 10.3235 3.88469 10.8945 3.87865 11.4847C3.87865 13.2013 2.2235 14.869 2.15101 14.9383C2.09664 14.9975 2.01811 15.0301 1.93958 15.0301ZM1.93958 9.93936C1.58318 9.95227 1.25094 10.1222 1.00932 10.4119C0.767688 10.7015 0.634793 11.0869 0.646874 11.4847C0.646874 12.5486 1.52278 13.6819 1.93958 14.1606C2.35639 13.6847 3.2323 12.5486 3.2323 11.4847C3.23834 11.0869 3.11148 10.7015 2.86985 10.4119C2.62822 10.1222 2.28995 9.95227 1.93958 9.93936Z" fill="#757A93"/>
<path d="M10.7368 15.9991H2.2705C2.18468 15.9991 2.09885 15.9622 2.03754 15.8956C1.97624 15.8297 1.93945 15.74 1.93945 15.6464C1.93945 15.5528 1.97624 15.4632 2.03754 15.3972C2.09885 15.3307 2.18468 15.2937 2.2705 15.2937H10.7368C10.8043 15.2937 10.8717 15.272 10.9269 15.2318C10.9821 15.1916 11.0188 15.1342 11.0434 15.0676C11.0679 15.0017 11.074 14.9292 11.0556 14.86C11.0434 14.7908 11.0066 14.7281 10.9575 14.68L6.25538 10.0827C6.10824 9.93968 6.00402 9.75181 5.95498 9.5435C5.91207 9.33519 5.92433 9.11699 5.99789 8.91725C6.06533 8.71751 6.19407 8.54546 6.3596 8.42483C6.52512 8.30485 6.71517 8.24091 6.91748 8.24221H12.766C12.8519 8.24221 12.9316 8.27914 12.9929 8.34572C13.0542 8.41164 13.091 8.50129 13.091 8.5949C13.091 8.68851 13.0542 8.77816 12.9929 8.84408C12.9316 8.91066 12.8519 8.94758 12.766 8.94758H6.91748C6.85004 8.94758 6.78874 8.96933 6.73356 9.00954C6.67839 9.04975 6.63547 9.1071 6.61095 9.17302C6.58643 9.2396 6.5803 9.31212 6.59869 9.38133C6.61095 9.45055 6.64773 9.51317 6.69678 9.5613L11.3989 14.1593C11.5461 14.3023 11.6503 14.4902 11.6993 14.6985C11.7484 14.9068 11.73 15.125 11.6625 15.3247C11.589 15.5245 11.4602 15.6965 11.3008 15.8165C11.1353 15.9371 10.9391 16.0011 10.7368 15.9998V15.9991Z" fill="#757A93"/>
<path d="M2.4243 12.1211C2.32914 12.1211 2.23399 12.0925 2.15242 12.0395C2.07539 11.986 2.01195 11.9104 1.9757 11.8216C1.93945 11.7332 1.93039 11.6358 1.94852 11.5415C1.96664 11.4478 2.01195 11.3612 2.07992 11.2932C2.14789 11.2257 2.23399 11.1795 2.32914 11.1609C2.4243 11.1419 2.51946 11.1514 2.61008 11.1881C2.69618 11.2248 2.77321 11.2874 2.82759 11.3671C2.88196 11.4464 2.90915 11.5402 2.90915 11.6362C2.90915 11.7649 2.85931 11.8882 2.76868 11.9788C2.67352 12.0699 2.55118 12.1211 2.4243 12.1211Z" fill="#757A93"/>
</svg>
