<svg width="18" height="15" viewBox="0 0 18 15" fill="none" xmlns="http://www.w3.org/2000/svg">
<path d="M16.3643 9.89201L16.3643 9.89203C16.8188 10.0573 17.1166 10.4139 17.2882 10.7969C17.4588 11.178 17.5207 11.6156 17.4941 12.0257L17.4939 12.0276C17.4824 12.1958 17.4839 12.3675 17.4886 12.5584C17.4895 12.5937 17.4905 12.63 17.4915 12.6671C17.4957 12.824 17.5004 12.9951 17.4979 13.1685L17.491 13.658L17.0015 13.6614C15.4381 13.6723 13.919 13.653 12.2643 13.1476C10.5328 12.62 8.51312 12.6274 6.627 13.2797C5.89802 13.5324 5.10594 13.6277 4.3814 13.7149C4.16832 13.7406 3.96109 13.7655 3.76301 13.7936L3.76198 13.7937C3.55317 13.8228 3.32691 13.8124 3.12327 13.7039C2.90582 13.588 2.78816 13.4003 2.73302 13.2231C2.68184 13.0586 2.68035 12.8941 2.68839 12.7689C2.69667 12.6401 2.71815 12.5149 2.73586 12.4189C2.7467 12.3588 2.74336 12.2588 2.72288 12.0771C2.72037 12.0548 2.71753 12.0308 2.71453 12.0055C2.6972 11.8593 2.67456 11.6682 2.67863 11.4932C2.68344 11.2863 2.72498 10.9907 2.94789 10.7546C3.17842 10.5105 3.50183 10.434 3.83227 10.4382C4.21377 10.443 4.57813 10.3963 4.9355 10.3115C4.79932 10.2991 4.69006 10.2988 4.59362 10.3148L4.51175 9.82151M16.3643 9.89201L3.44785 2.51785C3.02207 4.02806 2.14447 5.09889 0.719593 6.19597C0.600501 6.28767 0.502595 6.43862 0.500049 6.63073C0.497933 6.79045 0.563851 6.90986 0.602524 6.9692C0.679252 7.08693 0.792463 7.18195 0.870424 7.24355C1.00717 7.35159 1.19955 7.47978 1.39073 7.60718C1.43769 7.63847 1.48457 7.66971 1.53054 7.70059C1.77854 7.86721 2.02786 8.041 2.23613 8.21847C2.45309 8.40334 2.57884 8.5539 2.62905 8.66184L2.62924 8.66225C2.67905 8.76906 2.7202 8.87154 2.76603 8.98567C2.78967 9.04456 2.81456 9.10654 2.84253 9.17382C2.91723 9.35355 3.01054 9.5612 3.14047 9.74652C3.27456 9.93779 3.45917 10.1223 3.72212 10.235C3.98505 10.3477 4.27841 10.3682 4.59529 10.3145L4.51175 9.82151M16.3643 9.89201C16.1097 9.79951 16.0773 9.72443 16.0626 9.69053L16.0624 9.69008C16.0466 9.65366 16.0308 9.59549 16.0189 9.49096C16.0083 9.39769 16.0031 9.29405 15.9962 9.15741C15.9952 9.1357 15.994 9.11317 15.9928 9.08971L15.9928 9.08893M16.3643 9.89201L15.9928 9.08893M4.51175 9.82151C3.6965 9.95965 3.47346 9.40479 3.2363 8.8148C3.18738 8.69309 3.13785 8.56988 3.0824 8.45096L6.77514 9.59968L6.71053 9.53494M4.51175 9.82151C4.76388 9.77966 5.02298 9.81476 5.28252 9.84991C5.77154 9.91616 6.26211 9.98262 6.71053 9.53494M6.71053 9.53494L6.77515 9.59967C6.85368 9.56143 6.93269 9.52248 7.0123 9.48295C7.1367 9.421 7.2566 9.38688 7.37046 9.37312C7.56019 9.35021 7.73316 9.38386 7.88227 9.43966C7.74943 9.37007 7.61854 9.29135 7.49284 9.20164C7.32781 9.08387 6.90951 9.33636 6.71053 9.53494ZM14.1665 5.6974C15.1206 6.57112 15.4262 7.83654 15.4935 9.11521C15.4946 9.13737 15.4957 9.15919 15.4968 9.18068L14.1665 5.6974ZM14.1665 5.6974C13.996 5.54203 13.8414 5.36744 13.6901 5.19649C13.5206 5.005 13.3551 4.8181 13.1759 4.66792C12.8614 4.40339 12.6601 4.00129 12.4709 3.6233C12.2446 3.1712 12.0355 2.7536 11.6707 2.64714L14.1665 5.6974ZM15.9928 9.08893C15.9231 7.76488 15.6037 6.33555 14.5042 5.32865L14.5033 5.32784M15.9928 9.08893L14.5033 5.32784M14.5033 5.32784C14.3532 5.19111 14.2151 5.03514 14.0587 4.85851M14.5033 5.32784L14.0587 4.85851M10.0573 0.932464L10.0581 0.933227C10.1677 1.03058 10.2699 1.12439 10.3676 1.21407C10.8463 1.65326 11.2172 1.99359 11.8107 2.16715L10.0573 0.932464ZM10.0573 0.932464C9.81807 0.720867 9.55833 0.628962 9.324 0.583339M10.0573 0.932464L9.324 0.583339M14.0587 4.85851L14.0371 4.83416M14.0587 4.85851L14.0371 4.83416M14.0371 4.83416C13.8801 4.65696 13.6994 4.45427 13.497 4.28466M14.0371 4.83416L13.497 4.28466M13.497 4.28466L13.1759 4.66789M13.497 4.28466L13.1759 4.66789M13.1759 4.66789L13.4977 4.28527C13.2663 4.09063 13.1109 3.78215 12.9065 3.37625M13.1759 4.66789L12.9065 3.37625M12.9065 3.37625C12.8919 3.34717 12.877 3.31758 12.8618 3.2875M12.9065 3.37625L12.8618 3.2875M12.8618 3.2875C12.7594 3.08482 12.638 2.85312 12.4868 2.65768M12.8618 3.2875L12.4868 2.65768M12.4868 2.65768C12.3327 2.45852 12.1173 2.25669 11.811 2.16723L12.4868 2.65768ZM9.324 0.583339C9.17971 0.555246 9.00519 0.540492 8.87175 0.529211M9.324 0.583339L8.87175 0.529211M8.87175 0.529211C8.8207 0.524895 8.77567 0.521087 8.74063 0.517236M8.87175 0.529211L8.74063 0.517236M8.74063 0.517236C8.10942 0.446187 7.49482 0.612625 6.99773 0.74724C6.96558 0.755947 6.93392 0.764521 6.90278 0.772889C6.34331 0.923219 5.9415 1.0105 5.58296 0.923834L8.74063 0.517236ZM4.60954 0.902398C4.90085 0.823861 5.22617 0.837348 5.58271 0.923774L4.60954 0.902398ZM4.60954 0.902398C4.30839 0.983583 4.084 1.1523 3.92098 1.35828M4.60954 0.902398L3.92098 1.35828M3.92098 1.35828C3.76537 1.55489 3.67086 1.77854 3.60494 1.97289M3.92098 1.35828L3.60494 1.97289M3.60494 1.97289C3.5582 2.11068 3.51724 2.26242 3.48267 2.39049M3.60494 1.97289L3.48267 2.39049M3.48267 2.39049C3.47024 2.43654 3.45864 2.47952 3.44789 2.51771L3.48267 2.39049ZM7.17012 9.79952C7.22097 9.76221 7.27865 9.72587 7.33367 9.69903C7.33399 9.69887 7.33431 9.69871 7.33463 9.69856L7.17012 9.79952ZM8.27012 9.64561C8.22916 9.61964 8.17875 9.58769 8.12284 9.5555L8.45415 9.75335C8.41228 9.73432 8.36435 9.70525 8.28254 9.65347C8.27851 9.65092 8.27436 9.64829 8.27012 9.64561Z" stroke="#757A93"/>
</svg>
