<svg width="11" height="20" viewBox="0 0 11 20" fill="none" xmlns="http://www.w3.org/2000/svg">
<path d="M3.51061 6.93705L3.59194 6.4868L3.14659 6.59171L0.777363 7.14985L0.546154 7.20432V7.44186V10.3977H0.3V6.51678L4.3995 4.60695C5.06495 4.29772 5.85045 4.55884 6.2548 5.26492C6.25487 5.26505 6.25494 5.26517 6.25501 5.2653L7.098 6.7481C7.78085 8.05772 9.10653 9.0191 10.7 9.12709V9.46709C8.94065 9.46185 7.5234 9.38085 6.58175 8.18637L6.17003 7.6641L6.051 8.3184L5.54331 11.1091L5.52349 11.218L5.57919 11.3137L6.89752 13.5783L7.29526 19.7H7.02718L6.21969 14.3736L6.20548 14.2799L6.14002 14.2114L4.3631 12.3509L4.0178 11.9894L3.86124 12.4642L1.47534 19.7H1.2052L3.51061 6.93705ZM7.73846 1.86047C7.73846 2.74541 7.08513 3.42093 6.34615 3.42093C5.60718 3.42093 4.95385 2.74541 4.95385 1.86047C4.95385 0.975517 5.60718 0.3 6.34615 0.3C7.08513 0.3 7.73846 0.975517 7.73846 1.86047Z" stroke="#757A93" stroke-width="0.6"/>
</svg>
