<svg width="24" height="24" viewBox="0 0 24 24" fill="none" xmlns="http://www.w3.org/2000/svg">
<g clip-path="url(#clip0_13178_286421)">
<path d="M15.9996 13.17L14.4996 11.67V9H15.9996V13.17ZM19.7796 22.61L17.9296 20.76C17.6496 20.91 17.3396 21 16.9996 21C16.9996 21.55 16.5496 22 15.9996 22C15.4496 22 14.9996 21.55 14.9996 21H8.99965C8.99965 21.55 8.54965 22 7.99965 22C7.44965 22 6.99965 21.55 6.99965 21C5.89965 21 4.99965 20.1 4.99965 19V8C4.99965 7.95 5.01965 7.9 5.01965 7.85L1.38965 4.22L2.79965 2.81L21.1796 21.19L19.7796 22.61ZM16.1696 19L12.7496 15.58V18H11.2496V14.08L9.49965 12.33V18H7.99965V10.83L6.99965 9.83V19H16.1696ZM12.7496 9H11.8296L12.7496 9.92V9ZM18.9996 8V16.17L16.9996 14.17V8H10.8296L9.83965 7.01L8.99965 6.17V6V3C8.99965 2.45 9.44965 2 9.99965 2H13.9996C14.5496 2 14.9996 2.45 14.9996 3V6H16.9996C18.0996 6 18.9996 6.9 18.9996 8ZM10.4996 6H13.4996V3.5H10.4996V6Z" fill="#757A93"/>
</g>
<defs>
<clipPath id="clip0_13178_286421">
<rect width="24" height="24" fill="white"/>
</clipPath>
</defs>
</svg>
