<svg width="24" height="24" viewBox="0 0 24 24" fill="none" xmlns="http://www.w3.org/2000/svg">
<g clip-path="url(#clip0_13178_286456)">
<path d="M15.0396 12.79L6.53957 4.29C6.34957 4.1 6.08957 4 5.82957 4C5.56957 4 5.31957 4.1 5.12957 4.29L2.28957 7.13C1.89957 7.52 1.89957 8.16 2.28957 8.55L10.7896 17.05C10.9896 17.25 11.2396 17.34 11.4996 17.34C11.7596 17.34 12.0096 17.24 12.2096 17.05L15.0396 14.22C15.4296 13.82 15.4296 13.18 15.0396 12.79ZM11.4996 14.92L4.40957 7.83L5.82957 6.41L12.9196 13.5L11.4996 14.92Z" fill="#757A93"/>
<path d="M15.755 16.3417L14.3408 17.7559L18.5834 21.9985L19.9976 20.5843L15.755 16.3417Z" fill="#757A93"/>
<path d="M18.5 2C16.57 2 15 3.57 15 5.5C15 7.43 16.57 9 18.5 9C20.43 9 22 7.43 22 5.5C22 3.57 20.43 2 18.5 2ZM18.5 7C17.67 7 17 6.33 17 5.5C17 4.67 17.67 4 18.5 4C19.33 4 20 4.67 20 5.5C20 6.33 19.33 7 18.5 7Z" fill="#757A93"/>
</g>
<defs>
<clipPath id="clip0_13178_286456">
<rect width="24" height="24" fill="white"/>
</clipPath>
</defs>
</svg>
