<svg width="24" height="24" viewBox="0 0 24 24" fill="none" xmlns="http://www.w3.org/2000/svg">
<g clip-path="url(#clip0_13178_286460)">
<path d="M14.2693 5.99928C13.7193 6.94928 14.0493 8.17928 14.9993 8.72928C15.9493 9.27928 17.1793 8.94928 17.7293 7.99928C18.2793 7.04928 17.9493 5.81928 16.9993 5.26928C16.0493 4.71928 14.8193 5.04928 14.2693 5.99928Z" fill="#757A93"/>
<path d="M15.8398 10.4098C15.8398 10.4098 14.2098 9.46984 13.2398 8.90984C10.8598 7.52984 10.0398 4.46984 11.4198 2.08984L9.68976 1.08984C8.09976 3.82984 8.59977 7.20984 10.6598 9.39984L5.50977 18.3198L7.23977 19.3198L8.73977 16.7198L10.4698 17.7198L7.46977 22.9198L9.19977 23.9198L15.4898 13.0298C16.6298 14.5798 16.8198 16.7198 15.7998 18.4898L17.5298 19.4898C19.1298 16.7398 18.8098 12.9098 15.8398 10.4098Z" fill="#757A93"/>
<path d="M12.7497 3.79965C13.4697 4.20965 14.3797 3.96965 14.7997 3.24965C15.2097 2.52965 14.9697 1.61965 14.2497 1.19965C13.5297 0.789655 12.6197 1.02965 12.1997 1.74965C11.7897 2.46965 12.0297 3.38965 12.7497 3.79965Z" fill="#757A93"/>
</g>
<defs>
<clipPath id="clip0_13178_286460">
<rect width="24" height="24" fill="white"/>
</clipPath>
</defs>
</svg>
