<svg width="24" height="24" viewBox="0 0 24 24" fill="none" xmlns="http://www.w3.org/2000/svg">
<g clip-path="url(#clip0_13178_286461)">
<path d="M2 17V20H4V16H3C2.45 16 2 16.45 2 17Z" fill="#757A93"/>
<path d="M9 15.9996H5V19.9996L9.69 19.9896C10.07 19.9896 10.41 19.7796 10.58 19.4396L11.45 17.5396L9.86 14.0596L9 15.9996Z" fill="#757A93"/>
<path d="M21.71 16.29C21.53 16.11 21.28 16 21 16H20V20H22V17C22 16.72 21.89 16.47 21.71 16.29Z" fill="#757A93"/>
<path d="M13.5996 12.84L17.6496 4H14.2996L12.5396 7.97L12.0496 9.07L11.9996 9.21L9.69961 4H6.34961L10.3996 12.84L11.9196 16.16L11.9996 16.34L13.4196 19.44C13.5896 19.78 13.9296 19.99 14.3096 19.99L18.9996 20V16H14.9996L13.5996 12.84Z" fill="#757A93"/>
</g>
<defs>
<clipPath id="clip0_13178_286461">
<rect width="24" height="24" fill="white"/>
</clipPath>
</defs>
</svg>
