<svg width="24" height="24" viewBox="0 0 24 24" fill="none" xmlns="http://www.w3.org/2000/svg">
<g clip-path="url(#clip0_13178_286328)">
<path d="M2.80965 2.81L1.38965 4.22L6.99965 9.83V14.13L4.39965 12.65C4.22965 12.56 4.05965 12.51 3.85965 12.51C3.59965 12.51 3.35965 12.6 3.15965 12.77L1.99965 13.88L8.79965 21.06C9.36965 21.66 10.1496 22 10.9796 22H16.9996C17.6196 22 18.1796 21.81 18.6596 21.48L19.7796 22.6L21.1896 21.19L2.80965 2.81ZM16.9996 20H10.9996C10.6096 20 10.3596 19.77 10.2496 19.64L6.86965 16H8.99965V11.83L17.1396 19.97C17.0896 19.98 17.0496 20 16.9996 20ZM13.8296 11H13.9996V3.25C13.9996 2.56 14.5596 2 15.2496 2C15.9396 2 16.4996 2.56 16.4996 3.25V11H17.4996V5.25C17.4996 4.56 18.0596 4 18.7496 4C19.4396 4 19.9996 4.56 19.9996 5.25V17.17L17.9996 15.17V13H15.8296L13.8296 11ZM12.9996 10.17V2.25C12.9996 1.56 12.4396 1 11.7496 1C11.0596 1 10.4996 1.56 10.4996 2.25V7.67L12.9996 10.17ZM9.49965 6.67V4.25C9.49965 3.56 8.93965 3 8.24965 3C7.57965 3 7.04965 3.53 7.00965 4.18L9.49965 6.67Z" fill="#757A93"/>
</g>
<defs>
<clipPath id="clip0_13178_286328">
<rect width="24" height="24" fill="white"/>
</clipPath>
</defs>
</svg>
