<svg width="24" height="24" viewBox="0 0 24 24" fill="none" xmlns="http://www.w3.org/2000/svg">
<g clip-path="url(#clip0_13178_286350)">
<path d="M16.9996 6V14.17L18.9996 16.17V3C18.9996 1.9 18.0996 1.01 16.9996 1.01L6.99965 1C6.14965 1 5.41965 1.55 5.12965 2.3L8.82965 6H16.9996ZM6.99965 3H16.9996V4H6.99965V3ZM21.1896 21.19L18.9996 19L16.9996 17L6.99965 7L4.99965 5L2.80965 2.81L1.38965 4.22L4.99965 7.83V21C4.99965 22.1 5.89965 23 6.99965 23H16.9996C17.8496 23 18.5796 22.45 18.8696 21.7L19.7796 22.61L21.1896 21.19ZM16.9996 21H6.99965V20H16.9996V21ZM6.99965 18V9.83L15.1696 18H6.99965Z" fill="#757A93"/>
</g>
<defs>
<clipPath id="clip0_13178_286350">
<rect width="24" height="24" fill="white"/>
</clipPath>
</defs>
</svg>
