<svg width="24" height="24" viewBox="0 0 24 24" fill="none" xmlns="http://www.w3.org/2000/svg">
<g clip-path="url(#clip0_13178_286372)">
<path d="M15.9997 6H13.9997V4H15.9997V6ZM17.9997 7H15.9997V9H17.9997V7ZM18.9997 9H20.9997V7H18.9997V9ZM18.9997 4H16.9997V6H18.9997V4ZM14.9997 7H12.9997V9H14.9997V7ZM18.9997 10H16.9997V12H18.9997V10ZM15.9997 10H13.9997V12H15.9997V10ZM12.9997 4H10.9997V6H12.9997V4ZM19.9997 15.82V19.97C19.9997 20.53 19.5297 21 18.9697 20.97C16.0797 20.8 13.3697 19.94 10.9997 18.57C8.26968 16.99 6.00968 14.73 4.42968 12C3.04968 9.63 2.19968 6.92 2.02968 4.03C1.99968 3.47 2.46968 3 3.02968 3H7.17968C7.65968 3 8.06968 3.34 8.15968 3.8L8.89968 7.48C8.96968 7.81 8.85968 8.15 8.62968 8.38L6.09968 10.9C7.52968 13.4 9.59968 15.47 12.0997 16.9L14.6197 14.38C14.8597 14.14 15.1997 14.04 15.5197 14.11L19.1897 14.84C19.6597 14.93 19.9997 15.34 19.9997 15.82ZM5.17968 8.99L6.82968 7.34L6.35968 5H4.12968C4.29968 6.37 4.65968 7.71 5.17968 8.99ZM17.9997 16.64L15.6597 16.17L14.0097 17.82C15.2897 18.34 16.6397 18.69 17.9997 18.87V16.64ZM19.9997 4V6H21.9997V4H19.9997ZM19.9997 12H21.9997V10H19.9997V12ZM12.9997 10H10.9997V12H12.9997V10Z" fill="#757A93"/>
</g>
<defs>
<clipPath id="clip0_13178_286372">
<rect width="24" height="24" fill="white"/>
</clipPath>
</defs>
</svg>
