<svg width="19" height="19" viewBox="0 0 19 19" fill="none" xmlns="http://www.w3.org/2000/svg">
<path d="M10.0049 4.2183C9.42445 4.32394 8.95325 4.64048 8.47445 5.24734L8.34999 5.40941L7.84098 5.42081C7.20772 5.43582 7.01543 5.48864 6.43119 5.80157L5.98259 6.04667H5.22108C4.47836 6.04667 4.45576 6.04287 4.43315 5.96744C4.39173 5.84299 4.15423 5.59808 3.98456 5.50745C3.83389 5.42461 3.79988 5.42461 2.34106 5.42461C0.885846 5.42461 0.848226 5.42461 0.701166 5.50745C0.505086 5.61309 0.324206 5.80157 0.252576 5.97865C0.150736 6.22375 0.177146 7.85984 0.309196 9.28845C0.399636 10.2725 0.640936 11.9838 0.727576 12.2627C0.780396 12.4286 0.995286 12.6661 1.18757 12.7677C1.33843 12.847 1.37985 12.8508 2.58616 12.8508H3.83389L4.01857 12.7565C4.20705 12.6585 4.43333 12.3872 4.47095 12.2137C4.47856 12.1723 4.49357 12.0892 4.50857 12.029L4.52739 11.9272H4.86672H5.20227L5.39834 12.2931C5.67346 12.8133 6.28792 13.8764 6.41997 14.0687C6.76672 14.5739 7.24172 14.834 7.82977 14.834C8.1465 14.834 8.40661 14.77 8.62891 14.6341L8.75336 14.5587L8.94944 14.6417C9.44325 14.8566 10.152 14.7171 10.5893 14.325C10.7288 14.1967 10.7326 14.1967 10.9323 14.2383C11.3244 14.3138 11.7654 14.1705 12.116 13.85C12.2895 13.6917 12.3233 13.6727 12.3875 13.7105C12.4289 13.7331 12.6062 13.7557 12.7833 13.7557C13.0736 13.7557 13.13 13.7445 13.3563 13.6313C13.8915 13.3674 14.1178 12.8924 13.9822 12.3043C13.9746 12.2591 14.0236 12.2441 14.2423 12.2365L14.5174 12.2253L14.6304 12.41C14.7587 12.6173 14.951 12.7681 15.1771 12.8321C15.2789 12.8624 15.6935 12.8698 16.4964 12.8624C17.6123 12.8511 17.6725 12.8473 17.8196 12.7681C18.0119 12.6663 18.2268 12.4288 18.2796 12.2631C18.3814 11.9426 18.6189 10.2048 18.7244 9.02492C18.8074 8.09373 18.8412 6.22033 18.7772 6.03185C18.717 5.84717 18.5057 5.61347 18.3098 5.50783C18.1587 5.42461 18.1249 5.42461 16.6659 5.42461C14.996 5.42461 15.0712 5.4134 14.7621 5.71113L14.6113 5.85819L13.5558 5.15329C12.4061 4.38797 12.1722 4.25991 11.8029 4.20329C11.4675 4.14667 10.3366 4.15788 10.0049 4.2183ZM11.8219 4.82136C12.0065 4.87038 12.2743 5.03245 13.2657 5.68833L14.4796 6.49887V9.06235V11.6296L14.095 11.6182L13.7067 11.6068L12.4437 9.36388C11.75 8.12736 11.1432 7.06811 11.098 7.00408C11.0527 6.94366 10.9283 6.84201 10.8152 6.78159C10.6532 6.69115 10.5701 6.67234 10.3705 6.67234C10.0311 6.67234 9.91807 6.74017 9.14153 7.40745C8.77958 7.72038 8.42143 8.0107 8.3498 8.05212C8.16512 8.16137 7.93883 8.19538 7.71273 8.15396C7.50924 8.11634 7.1585 7.90506 7.1737 7.82982C7.20011 7.72057 9.2998 5.20611 9.45446 5.10047C9.66175 4.95721 9.91066 4.84416 10.1179 4.80635C10.4121 4.74612 11.5768 4.75733 11.8219 4.82136ZM3.73205 6.06548C3.79228 6.09569 3.8603 6.17093 3.88291 6.23895C3.91312 6.32179 3.92433 7.20776 3.92433 9.16419C3.92433 12.1725 3.92813 12.1272 3.73965 12.2289C3.69443 12.2515 3.26085 12.2665 2.60497 12.2665C1.40246 12.2665 1.35344 12.2589 1.28941 12.0102C1.20638 11.6935 1.01429 10.3175 0.927456 9.43931C0.810606 8.21419 0.746576 6.40083 0.810606 6.20494C0.870836 6.02026 0.942466 6.01266 2.33365 6.00886C3.40031 6.00886 3.64541 6.02026 3.73205 6.06548ZM7.80716 6.03527C7.80716 6.05408 7.54325 6.38582 7.22291 6.78159C6.53302 7.62215 6.47659 7.7542 6.63486 8.10095C6.83095 8.53073 7.55845 8.85487 8.1277 8.76063C8.50086 8.7004 8.75716 8.54194 9.50368 7.89746C9.88824 7.56572 10.2388 7.2906 10.2802 7.2792C10.3254 7.2716 10.4197 7.283 10.4875 7.30561C10.6081 7.34323 10.6722 7.44887 11.4035 8.74182C12.4739 10.6456 13.3901 12.41 13.4127 12.6211C13.4315 12.7605 13.4165 12.7983 13.3147 12.9188C13.1638 13.0885 12.9113 13.1903 12.704 13.1601C12.6172 13.1487 12.5268 13.1187 12.5005 13.0885C12.4741 13.062 12.2102 12.5984 11.9163 12.0592C11.6224 11.5202 11.3471 11.049 11.3056 11.0112C11.1284 10.8603 10.823 10.9962 10.823 11.2261C10.823 11.3053 11.0003 11.6559 11.3471 12.2853L11.8711 13.2277L11.7542 13.3522C11.4301 13.6915 10.9927 13.7555 10.7552 13.4992C10.7138 13.454 10.4989 13.0997 10.2802 12.7113C9.74497 11.7501 9.76758 11.7839 9.64694 11.7349C9.45846 11.6557 9.23976 11.8141 9.23976 12.029C9.23976 12.0818 9.89184 13.2805 10.1369 13.6725C10.2426 13.846 10.2236 13.8836 9.94086 14.0307C9.69215 14.1589 9.25858 14.1739 9.13033 14.0609C9.0851 14.0195 8.86261 13.6613 8.63271 13.2617C8.40281 12.8584 8.19172 12.5154 8.16531 12.4926C8.05967 12.406 7.8976 12.4096 7.79215 12.5002C7.61868 12.6473 7.64509 12.7565 8.02965 13.4314C8.41422 14.0987 8.41422 14.1061 8.1541 14.1929C7.82236 14.3022 7.41519 14.2193 7.14007 13.9856C6.96299 13.8348 6.23169 12.6135 5.7755 11.7125C5.69246 11.5428 5.58702 11.3845 5.5494 11.3619C5.50798 11.3431 5.26288 11.3243 5.00277 11.3243H4.52777V8.98711V6.64992H5.3307H6.12985L6.41256 6.49545C6.93658 6.21273 7.2269 6.08448 7.39638 6.05066C7.61108 6.00886 7.80716 6.00126 7.80716 6.03527ZM18.0607 6.06548C18.1247 6.09949 18.1852 6.16732 18.1964 6.22375C18.2304 6.35561 18.1888 8.19918 18.1361 8.81725C18.0495 9.8841 17.8194 11.622 17.7178 12.0102C17.6537 12.2589 17.6085 12.2665 16.387 12.2665H15.3125L15.2071 12.1761L15.1015 12.0856L15.0902 9.20561C15.0826 7.09452 15.094 6.30298 15.1243 6.22375C15.2109 6.01646 15.2487 6.01266 16.6585 6.00886C17.7442 6.00886 17.9703 6.01646 18.0607 6.06548Z" fill="#757A93"/>
<path d="M2.11837 10.518C2.01653 10.646 2.01653 10.7593 2.11837 10.8873C2.1786 10.9627 2.22762 10.9854 2.34086 10.9854C2.57456 10.9854 2.70661 10.7667 2.60097 10.5594C2.54074 10.4463 2.49533 10.4199 2.33326 10.4199C2.22762 10.4199 2.17499 10.4425 2.11837 10.518Z" fill="#757A93"/>
<path d="M16.4397 10.5027C16.27 10.6874 16.4095 10.9854 16.6658 10.9854C16.7788 10.9854 16.8278 10.9627 16.8883 10.8873C16.9335 10.8307 16.9675 10.7478 16.9675 10.7026C16.9675 10.6574 16.9335 10.5744 16.8883 10.5179C16.7864 10.3897 16.5565 10.3785 16.4397 10.5027Z" fill="#757A93"/>
</svg>
