<svg width="18" height="18" viewBox="0 0 18 18" fill="none" xmlns="http://www.w3.org/2000/svg">
<path d="M7.28571 1V3.27936L6.14286 3.8492L4.42857 2.13968L2.14286 4.41904L3.85714 6.12856L3.28571 7.26824H1V10.6873H3.28571L3.85714 11.827L2.14286 13.5365L4.42857 15.8158L6.14286 14.1063L7.28571 14.6762V16.9555H10.7143V14.6762L11.8571 14.1063L13.5714 15.8158L15.8571 13.5365L14.1429 11.827L14.7143 10.6873H17V7.26824H14.7143L14.1429 6.12856L15.8571 4.41904L13.5714 2.13968L11.8571 3.8492L10.7143 3.27936V1H7.28571Z" stroke="#757A93" stroke-width="0.5" stroke-linecap="round" stroke-linejoin="round"/>
<path d="M8.99958 11.257C10.2619 11.257 11.2853 10.2365 11.2853 8.9776C11.2853 7.71875 10.2619 6.69824 8.99958 6.69824C7.73722 6.69824 6.71387 7.71875 6.71387 8.9776C6.71387 10.2365 7.73722 11.257 8.99958 11.257Z" stroke="#757A93" stroke-width="0.5" stroke-linecap="round" stroke-linejoin="round"/>
</svg>
