<svg width="20" height="20" viewBox="0 0 20 20" fill="none" xmlns="http://www.w3.org/2000/svg">
<path d="M17.6195 10.9521V13.8093C17.6195 15.0474 14.6347 16.6664 10.9528 16.6664C7.27089 16.6664 4.28613 15.0474 4.28613 13.8093V11.4283" stroke="#757A93" stroke-width="0.7" stroke-linecap="round" stroke-linejoin="round"/>
<path d="M4.56543 11.675C5.38924 12.7683 7.93686 13.794 10.9521 13.794C14.634 13.794 17.6188 12.2645 17.6188 10.9502C17.6188 10.2121 16.6788 9.40356 15.2035 8.83594" stroke="#757A93" stroke-width="0.7" stroke-linecap="round" stroke-linejoin="round"/>
<path d="M14.762 6.19043V9.04757C14.762 10.2857 11.7773 11.9047 8.09538 11.9047C4.41347 11.9047 1.42871 10.2857 1.42871 9.04757V6.19043" stroke="#757A93" stroke-width="0.7" stroke-linecap="round" stroke-linejoin="round"/>
<path fill-rule="evenodd" clip-rule="evenodd" d="M8.09538 9.03206C11.7773 9.03206 14.762 7.50253 14.762 6.18825C14.762 4.87301 11.7773 3.33301 8.09538 3.33301C4.41347 3.33301 1.42871 4.87301 1.42871 6.18825C1.42871 7.50253 4.41347 9.03206 8.09538 9.03206Z" stroke="#757A93" stroke-width="0.7" stroke-linecap="round" stroke-linejoin="round"/>
</svg>
