<svg width="18" height="18" viewBox="0 0 18 18" fill="none" xmlns="http://www.w3.org/2000/svg">
<g clip-path="url(#clip0_14093_283043)">
<path d="M15.75 14.9997C15.75 15.1986 15.671 15.3894 15.5303 15.53C15.3897 15.6707 15.1989 15.7497 15 15.7497H3C2.80109 15.7497 2.61032 15.6707 2.46967 15.53C2.32902 15.3894 2.25 15.1986 2.25 14.9997V7.11722C2.24992 7.00292 2.27596 6.89013 2.32614 6.78744C2.37631 6.68475 2.44929 6.59489 2.5395 6.52472L8.5395 1.85822C8.67116 1.7558 8.8332 1.7002 9 1.7002C9.1668 1.7002 9.32884 1.7558 9.4605 1.85822L15.4605 6.52472C15.5507 6.59489 15.6237 6.68475 15.6739 6.78744C15.724 6.89013 15.7501 7.00292 15.75 7.11722V14.9997ZM15 14.9997V7.11722L9 2.62451L3 7.11722V14.9997H15Z" fill="#757A93"/>
<path d="M1.5 7.5L16.5 7.5" stroke="#757A93" stroke-width="0.8"/>
</g>
<defs>
<clipPath id="clip0_14093_283043">
<rect width="18" height="18" fill="white"/>
</clipPath>
</defs>
</svg>
