<svg width="18" height="10" viewBox="0 0 18 10" fill="none" xmlns="http://www.w3.org/2000/svg">
<path d="M17.9991 6.95575C17.9995 6.27245 17.8141 5.60496 17.4671 5.04085C17.4491 4.99329 17.421 4.95133 17.3851 4.91863C17.1006 4.49383 16.7307 4.14872 16.3049 3.91079C15.8792 3.67286 15.4093 3.54869 14.9327 3.54815H14.5452L11.9689 0.859401C11.4398 0.306243 10.7404 -0.00121456 10.014 3.60604e-06H1.49442C1.09815 0.000591824 0.718272 0.175798 0.438114 0.487189C0.157956 0.79858 0.000396843 1.22073 0 1.66103L0 6.60132C0 6.64798 0.00299984 6.69354 0.00649966 6.73965C0.00374575 6.75098 0.00157568 6.76248 0 6.77409C0.000190784 6.81851 0.00870436 6.8624 0.0249987 6.90297C0.0891793 7.31769 0.283052 7.69393 0.572448 7.96538C0.861844 8.23683 1.22819 8.38607 1.60692 8.38678H1.61541C1.72356 8.84872 1.96661 9.25772 2.30646 9.54967C2.64631 9.84161 3.06374 10 3.49332 10C3.92289 10 4.34032 9.84161 4.68017 9.54967C5.02002 9.25772 5.26307 8.84872 5.37122 8.38678H13.1863C13.2951 8.85094 13.54 9.26155 13.8824 9.55365C14.2248 9.84574 14.6451 10.0026 15.0767 9.99951C15.5084 9.99638 15.9268 9.83342 16.2657 9.5364C16.6047 9.23938 16.8448 8.82525 16.9481 8.35956C17.2437 8.29973 17.5109 8.12634 17.703 7.86971C17.8951 7.61308 17.9999 7.28955 17.9991 6.95575ZM3.49282 9.35451C3.22325 9.35451 2.95975 9.26569 2.73561 9.09929C2.51148 8.93289 2.33679 8.69638 2.23363 8.41967C2.13048 8.14295 2.10349 7.83847 2.15608 7.54471C2.20866 7.25095 2.33847 6.98111 2.52908 6.76933C2.71969 6.55754 2.96254 6.41331 3.22692 6.35488C3.4913 6.29644 3.76534 6.32644 4.01439 6.44106C4.26343 6.55567 4.47629 6.74977 4.62605 6.99881C4.77581 7.24784 4.85574 7.54063 4.85574 7.84014C4.85548 8.24169 4.7118 8.6267 4.45626 8.91063C4.20072 9.19457 3.85421 9.35421 3.49282 9.35451ZM15.0642 9.35451C14.7946 9.35451 14.5311 9.26569 14.307 9.09929C14.0829 8.93289 13.9082 8.69638 13.805 8.41967C13.7019 8.14295 13.6749 7.83847 13.7275 7.54471C13.7801 7.25095 13.9099 6.98111 14.1005 6.76933C14.2911 6.55754 14.5339 6.41331 14.7983 6.35488C15.0627 6.29644 15.3367 6.32644 15.5858 6.44106C15.8348 6.55567 16.0477 6.74977 16.1974 6.99881C16.3472 7.24784 16.4271 7.54063 16.4271 7.84014C16.4269 8.24169 16.2832 8.6267 16.0276 8.91063C15.7721 9.19457 15.4256 9.35421 15.0642 9.35451ZM16.9991 7.67071C16.9613 7.12272 16.7367 6.61144 16.371 6.2413C16.0054 5.87116 15.5264 5.6701 15.0318 5.67917C14.5373 5.68825 14.0645 5.90679 13.71 6.29014C13.3556 6.6735 13.1463 7.19274 13.1248 7.74182H5.43171C5.40843 7.18843 5.19437 6.66622 4.83392 6.28347C4.47347 5.90071 3.99428 5.68676 3.49569 5.68597C2.9971 5.68519 2.51736 5.89762 2.15593 6.27924C1.7945 6.66086 1.57911 7.18239 1.55442 7.7357C1.37146 7.7253 1.19437 7.66047 1.04168 7.54798C0.888996 7.4355 0.766313 7.2795 0.686464 7.09629H0.94145C1.01634 7.09284 1.08713 7.05735 1.13902 6.99726C1.19091 6.93716 1.21989 6.85709 1.21989 6.77381C1.21989 6.69053 1.19091 6.61047 1.13902 6.55037C1.08713 6.49027 1.01634 6.45478 0.94145 6.45133H0.580469V1.66103C0.580734 1.39179 0.67711 1.13366 0.848452 0.943282C1.01979 0.752902 1.25211 0.645818 1.49442 0.645524H10.014C10.5926 0.644694 11.1496 0.88975 11.5709 1.33049L14.2312 4.10812C14.2854 4.16457 14.357 4.19578 14.4312 4.19533H14.9312C15.5168 4.19449 16.0837 4.4244 16.5311 4.84419C16.456 4.8491 16.3856 4.88635 16.3349 4.94802C16.2841 5.00969 16.257 5.09092 16.2593 5.17446C16.2615 5.25799 16.293 5.33725 16.3471 5.39539C16.4011 5.45353 16.4734 5.48597 16.5486 5.48583H17.0336C17.2856 5.92577 17.4195 6.43646 17.4196 6.95797C17.4195 7.10935 17.3797 7.25742 17.305 7.38402C17.2303 7.51063 17.124 7.61026 16.9991 7.67071Z" fill="#757A93"/>
</svg>
