<svg width="14" height="18" viewBox="0 0 14 18" fill="none" xmlns="http://www.w3.org/2000/svg">
<path fill-rule="evenodd" clip-rule="evenodd" d="M12.2184 2.34108H10.6061V1.61619C10.6061 1.38236 10.3511 1.28214 10.1183 1.28214H8.86678C8.59332 0.480027 7.82007 -0.0426008 6.97383 0.0027324C6.13291 -0.030913 5.36706 0.484007 5.08089 1.27546H3.85604C3.62221 1.27546 3.38949 1.38681 3.38949 1.60951V2.34108H1.7816C0.826289 2.35124 0.044793 3.10489 0 4.0592V16.2108C0.0533183 17.1442 0.847609 17.8611 1.7816 17.8187H12.2184C13.154 17.861 13.949 17.1415 14 16.2063V4.05586C13.9535 3.10286 13.1725 2.35114 12.2184 2.34108ZM4.24219 2.12971H5.40913C5.61288 2.10492 5.77649 1.9499 5.81222 1.74778C5.93395 1.19986 6.41253 0.804788 6.9736 0.789062C7.52953 0.805803 8.00236 1.19959 8.11938 1.74333C8.15733 1.95239 8.33174 2.10941 8.54363 2.12526H9.75734V3.82223H4.24219V2.12971ZM12.2174 16.9783C12.6847 17.0205 13.0997 16.6808 13.1505 16.2144L13.1517 16.2111V4.05616C13.1085 3.57045 12.7061 3.19542 12.2186 3.18652H10.6062V4.26773C10.5735 4.50864 10.3613 4.68405 10.1185 4.67081H3.86064C3.62223 4.6832 3.41645 4.50541 3.39409 4.26773V3.18652H1.78174C1.2942 3.19542 0.891795 3.57045 0.848633 4.05616V16.2144C0.89953 16.6808 1.31451 17.0205 1.78174 16.9783H12.2174Z" fill="#757A93"/>
<path d="M4.40097 9.6981C4.26694 9.55709 4.04474 9.54917 3.90101 9.68028L2.75856 10.7693L2.27642 10.2693C2.14239 10.1283 1.92019 10.1204 1.77646 10.2515C1.63832 10.3965 1.63832 10.6243 1.77646 10.7693L2.50803 11.5187C2.57051 11.591 2.6619 11.6318 2.75745 11.63C2.85205 11.6274 2.94175 11.5873 3.00687 11.5187L4.39986 10.1981C4.46734 10.1381 4.50767 10.0533 4.51166 9.96313C4.51564 9.87293 4.48295 9.78496 4.42102 9.71925L4.40097 9.6981Z" fill="#757A93"/>
<path d="M12.0064 10.4811H7.89984C7.76758 10.4737 7.64208 10.5401 7.57373 10.6536C7.50537 10.767 7.50537 10.909 7.57373 11.0224C7.64208 11.1359 7.76758 11.2023 7.89984 11.1949H12.0064C12.1387 11.2023 12.2642 11.1359 12.3325 11.0224C12.4009 10.909 12.4009 10.767 12.3325 10.6536C12.2642 10.5401 12.1387 10.4737 12.0064 10.4811Z" fill="#757A93"/>
<path d="M4.40097 6.21958C4.26694 6.07857 4.04474 6.07065 3.90101 6.20177L2.75856 7.29077L2.27642 6.79081C2.14239 6.64979 1.92019 6.64188 1.77646 6.77299C1.63832 6.91794 1.63832 7.14582 1.77646 7.29077L2.50803 8.04015C2.57051 8.11246 2.6619 8.15326 2.75745 8.1515C2.85205 8.14887 2.94175 8.10882 3.00687 8.04015L4.39986 6.71954C4.46734 6.65956 4.50767 6.57481 4.51166 6.48461C4.51564 6.39441 4.48295 6.30644 4.42102 6.24074L4.40097 6.21958Z" fill="#757A93"/>
<path d="M12.0064 7.05925H7.89984C7.76758 7.05186 7.64208 7.11821 7.57373 7.23168C7.50537 7.34514 7.50537 7.4871 7.57373 7.60057C7.64208 7.71403 7.76758 7.78039 7.89984 7.773H12.0064C12.1387 7.78039 12.2642 7.71403 12.3325 7.60057C12.4009 7.4871 12.4009 7.34514 12.3325 7.23168C12.2642 7.11821 12.1387 7.05186 12.0064 7.05925Z" fill="#757A93"/>
<path d="M4.40097 13.0086C4.26694 12.8676 4.04474 12.8597 3.90101 12.9908L2.75856 14.0798L2.27642 13.5799C2.14239 13.4389 1.92019 13.4309 1.77646 13.5621C1.63832 13.707 1.63832 13.9349 1.77646 14.0798L2.50803 14.8292C2.57051 14.9015 2.6619 14.9423 2.75745 14.9406C2.85205 14.9379 2.94175 14.8979 3.00687 14.8292L4.39986 13.5086C4.46734 13.4486 4.50767 13.3639 4.51166 13.2737C4.51564 13.1835 4.48295 13.0955 4.42102 13.0298L4.40097 13.0086Z" fill="#757A93"/>
<path d="M12.0064 13.901H7.89984C7.76758 13.8937 7.64208 13.96 7.57373 14.0735C7.50537 14.1869 7.50537 14.3289 7.57373 14.4424C7.64208 14.5558 7.76758 14.6222 7.89984 14.6148H12.0064C12.1387 14.6222 12.2642 14.5558 12.3325 14.4424C12.4009 14.3289 12.4009 14.1869 12.3325 14.0735C12.2642 13.96 12.1387 13.8937 12.0064 13.901Z" fill="#757A93"/>
</svg>
