<svg width="19" height="19" viewBox="0 0 19 19" fill="none" xmlns="http://www.w3.org/2000/svg">
<path d="M17.1138 8.23348L17.1139 8.23343L17.1081 8.2269L14.8097 5.64606V2.71483C14.8566 2.1831 14.6018 1.66863 14.1481 1.38418C13.6858 1.09437 13.0985 1.09437 12.6363 1.38418C12.2544 1.62362 12.0134 2.02605 11.9746 2.46457L11.0432 1.42014C11.0429 1.41983 11.0426 1.41953 11.0424 1.41922C10.5248 0.83468 9.78146 0.5 9.00067 0.5C8.21974 0.5 7.4763 0.834795 6.95872 1.41953C6.95854 1.41973 6.95836 1.41994 6.95818 1.42014L0.895305 8.22687L0.895222 8.22679L0.888399 8.23479C0.371034 8.8408 0.370534 9.73275 0.8869 10.3393C1.143 10.6439 1.52064 10.8198 1.91867 10.8198C2.31467 10.8198 2.6905 10.6457 2.94652 10.344L9.00367 3.54163L15.062 10.3442C15.3183 10.6455 15.6939 10.8193 16.0897 10.8193C16.4874 10.8193 16.8648 10.6438 17.1211 10.3398C17.6368 9.73139 17.6338 8.83831 17.1138 8.23348Z" stroke="#757A93"/>
<path d="M8.08034 12.9122V17.0052V17.5052H7.58034H5.06334H5.04121L5.01916 17.5032C3.80908 17.3959 2.90812 16.3414 2.98834 15.1316V10.7843V10.7822H3.48834L8.08034 12.9122ZM8.08034 12.9122H9.92134V17.0052V17.5052H10.4213H12.9383H12.9605L12.9825 17.5032C14.1926 17.3959 15.0936 16.3414 15.0133 15.1316V10.7845V10.7822H14.5133M8.08034 12.9122L9.69082 4.11887M14.5133 10.7822C14.5148 10.6518 14.4702 10.525 14.3873 10.4242L9.30434 4.4362M14.5133 10.7822V15.1492V10.7822ZM9.30434 4.4362L9.6985 4.12857C9.69596 4.12531 9.6934 4.12208 9.69082 4.11887M9.30434 4.4362L9.68553 4.11263L9.69082 4.11887M9.30434 4.4362C9.23138 4.34273 9.11942 4.28809 9.00084 4.28809C8.88226 4.28809 8.7703 4.34273 8.69734 4.4362M9.69082 4.11887C9.52299 3.90992 9.26929 3.78809 9.00084 3.78809C8.73239 3.78809 8.47869 3.90992 8.31087 4.11887M8.69734 4.4362L8.31616 4.11263L8.31087 4.11887M8.69734 4.4362L8.30319 4.12857C8.30573 4.12531 8.30829 4.12208 8.31087 4.11887M8.69734 4.4362L8.31087 4.11887" stroke="#757A93"/>
</svg>
