<svg width="18" height="18" viewBox="0 0 18 18" fill="none" xmlns="http://www.w3.org/2000/svg">
<path d="M6.40864 7.53838C6.74837 7.53838 7.02373 7.26297 7.02373 6.92329C7.02373 6.58357 6.74836 6.3082 6.40864 6.3082C6.06896 6.3082 5.79355 6.58357 5.79355 6.92329C5.79355 7.26298 6.06895 7.53838 6.40864 7.53838Z" fill="#757A93" stroke="#757A93" stroke-width="0.2"/>
<path d="M9.49946 7.53838C9.83915 7.53838 10.1146 7.26298 10.1146 6.92329C10.1146 6.58357 9.83915 6.3082 9.49946 6.3082C9.15974 6.3082 8.88437 6.58357 8.88437 6.92329C8.88437 7.26297 9.15974 7.53838 9.49946 7.53838Z" fill="#757A93" stroke="#757A93" stroke-width="0.2"/>
<path d="M7.1854 9.75159L7.18538 9.75157C7.11839 9.68454 7.08066 9.59363 7.08066 9.49877C7.08066 9.40394 7.11837 9.313 7.18538 9.24597L7.1854 9.75159ZM7.1854 9.75159C7.25245 9.81864 7.34342 9.8563 7.43822 9.8563H8.4684M7.1854 9.75159L8.4684 9.8563M8.4684 9.8563C8.56321 9.8563 8.65417 9.81864 8.72122 9.75159M8.4684 9.8563L8.72122 9.75159M8.72122 9.75159C8.78828 9.68453 8.82596 9.5936 8.82596 9.49877M8.72122 9.75159L8.82596 9.49877M8.82596 9.49877C8.82596 9.40396 8.7883 9.31298 8.7212 9.24593M8.82596 9.49877L8.7212 9.24593M8.7212 9.24593C8.65415 9.17886 8.56319 9.14121 8.4684 9.14121M8.7212 9.24593C8.72121 9.24594 8.72123 9.24596 8.72125 9.24597L8.65051 9.31666L8.4684 9.14121M8.4684 9.14121H7.43822M8.4684 9.14121H7.43822M7.43822 9.14121C7.34342 9.14121 7.25246 9.17886 7.1854 9.24595L7.43822 9.14121Z" fill="#757A93" stroke="#757A93" stroke-width="0.2"/>
<mask id="path-4-outside-1_14093_283019" maskUnits="userSpaceOnUse" x="0" y="0" width="18" height="18" fill="black">
<rect fill="white" width="18" height="18"/>
<path d="M16.7424 10.7867H11.0764C11.0081 10.7867 10.9426 10.8138 10.8943 10.8622C10.846 10.9104 10.8189 10.976 10.8189 11.0443V11.8175C10.8083 11.8175 10.7977 11.8169 10.7867 11.8169H10.0141V10.7336C10.7365 10.1757 11.3395 9.37667 11.5104 8.46882H11.6881C11.9271 8.46856 12.1562 8.37349 12.3252 8.20451C12.4942 8.0355 12.5893 7.80638 12.5895 7.56739V6.79478C12.5893 6.55576 12.4942 6.32664 12.3252 6.15766C12.1562 5.98868 11.9271 5.89362 11.6881 5.89335H11.5593V4.60565C11.5593 3.64935 11.1795 2.73225 10.5033 2.05607C9.8271 1.37989 8.91 1 7.9537 1C6.99744 1 6.08034 1.37989 5.40416 2.05607C4.72798 2.73225 4.34809 3.64935 4.34809 4.60565V5.89335H4.21931C3.98032 5.89362 3.7512 5.98868 3.58222 6.15766C3.41321 6.32664 3.31818 6.55576 3.31791 6.79478V7.56739C3.31818 7.80638 3.41321 8.0355 3.58222 8.20451C3.7512 8.37349 3.98032 8.46856 4.21931 8.46882H4.39701C4.56796 9.37667 5.17096 10.1757 5.89335 10.7336V11.8169H5.12074C4.02821 11.8181 2.98079 12.2527 2.20828 13.0252C1.43576 13.7977 1.00124 14.8451 1 15.9376V16.7103C1 16.7786 1.02713 16.8441 1.07542 16.8924C1.12373 16.9407 1.18923 16.9678 1.25756 16.9678H16.7424C16.8107 16.9678 16.8763 16.9407 16.9245 16.8924C16.9729 16.8441 17 16.7786 17 16.7103V11.0443C17 10.976 16.9729 10.9104 16.9245 10.8622C16.8763 10.8138 16.8107 10.7867 16.7424 10.7867ZM11.5593 6.40844H11.6881C11.7905 6.40854 11.8888 6.44927 11.9612 6.52168C12.0336 6.59412 12.0743 6.69233 12.0744 6.79478V7.56739C12.0743 7.66984 12.0336 7.76805 11.9612 7.84046C11.8888 7.9129 11.7905 7.95364 11.6881 7.9537H11.5593V6.40844ZM4.34809 7.9537H4.21931C4.11689 7.95364 4.01869 7.9129 3.94624 7.84046C3.8738 7.76805 3.83307 7.66984 3.833 7.56739V6.79478C3.83307 6.69233 3.8738 6.59412 3.94624 6.52168C4.01869 6.44927 4.11689 6.40854 4.21931 6.40844H4.34809V7.9537ZM7.9537 1.51509C8.76394 1.51602 9.54147 1.83473 10.1192 2.40275C10.697 2.97077 11.0289 3.74275 11.0436 4.55282C10.3701 4.0812 9.13682 3.833 7.9537 3.833C6.77062 3.833 5.53732 4.0812 4.86381 4.55282C4.87855 3.74275 5.21045 2.97077 5.78823 2.40275C6.36597 1.83473 7.1435 1.51602 7.9537 1.51509ZM10.9206 5.12074H4.98681C5.33512 4.74211 6.40169 4.34809 7.9537 4.34809C9.50575 4.34809 10.5723 4.74211 10.9206 5.12074ZM4.86318 7.9537V5.63582H11.0443V7.9537C11.0443 8.39638 10.9007 9.2672 9.93874 10.1293C9.31869 10.6853 8.53929 11.0443 7.9537 11.0443C7.36811 11.0443 6.58874 10.6853 5.9687 10.1293C5.00676 9.2672 4.86318 8.39638 4.86318 7.9537ZM7.69617 16.4527H3.31791V15.4225C3.31791 15.3542 3.29078 15.2887 3.24246 15.2404C3.19418 15.1921 3.12865 15.165 3.06035 15.165C2.99205 15.165 2.92656 15.1921 2.87824 15.2404C2.82996 15.2887 2.80282 15.3542 2.80282 15.4225V16.4527H1.51509V15.9376C1.51612 14.9817 1.89635 14.0652 2.57233 13.3892C3.24828 12.7133 4.16477 12.333 5.12074 12.332H5.93295C6.10293 12.8754 6.80313 13.2856 7.69617 13.3525V16.4527ZM6.40844 12.0744V11.0797C6.93576 11.3849 7.48563 11.5593 7.9537 11.5593C8.42181 11.5593 8.97168 11.3849 9.499 11.0797V12.0744C9.499 12.4398 8.86445 12.8471 7.9537 12.8471C7.04298 12.8471 6.40844 12.4398 6.40844 12.0744ZM10.8189 16.4527H8.21126V13.3525C9.1043 13.2856 9.80451 12.8754 9.97449 12.332H10.7867C10.7977 12.332 10.808 12.3326 10.8189 12.3326V16.4527ZM13.1046 11.3018H14.6499V12.8471H13.1046V11.3018ZM16.4849 16.4527H11.334V11.3018H12.5895V13.1046C12.5895 13.1729 12.6167 13.2384 12.665 13.2867C12.7133 13.335 12.7788 13.3622 12.8471 13.3622H14.9074C14.9757 13.3622 15.0413 13.335 15.0895 13.2867C15.1378 13.2384 15.165 13.1729 15.165 13.1046V11.3018H16.4849V16.4527Z"/>
</mask>
<path d="M16.7424 10.7867H11.0764C11.0081 10.7867 10.9426 10.8138 10.8943 10.8622C10.846 10.9104 10.8189 10.976 10.8189 11.0443V11.8175C10.8083 11.8175 10.7977 11.8169 10.7867 11.8169H10.0141V10.7336C10.7365 10.1757 11.3395 9.37667 11.5104 8.46882H11.6881C11.9271 8.46856 12.1562 8.37349 12.3252 8.20451C12.4942 8.0355 12.5893 7.80638 12.5895 7.56739V6.79478C12.5893 6.55576 12.4942 6.32664 12.3252 6.15766C12.1562 5.98868 11.9271 5.89362 11.6881 5.89335H11.5593V4.60565C11.5593 3.64935 11.1795 2.73225 10.5033 2.05607C9.8271 1.37989 8.91 1 7.9537 1C6.99744 1 6.08034 1.37989 5.40416 2.05607C4.72798 2.73225 4.34809 3.64935 4.34809 4.60565V5.89335H4.21931C3.98032 5.89362 3.7512 5.98868 3.58222 6.15766C3.41321 6.32664 3.31818 6.55576 3.31791 6.79478V7.56739C3.31818 7.80638 3.41321 8.0355 3.58222 8.20451C3.7512 8.37349 3.98032 8.46856 4.21931 8.46882H4.39701C4.56796 9.37667 5.17096 10.1757 5.89335 10.7336V11.8169H5.12074C4.02821 11.8181 2.98079 12.2527 2.20828 13.0252C1.43576 13.7977 1.00124 14.8451 1 15.9376V16.7103C1 16.7786 1.02713 16.8441 1.07542 16.8924C1.12373 16.9407 1.18923 16.9678 1.25756 16.9678H16.7424C16.8107 16.9678 16.8763 16.9407 16.9245 16.8924C16.9729 16.8441 17 16.7786 17 16.7103V11.0443C17 10.976 16.9729 10.9104 16.9245 10.8622C16.8763 10.8138 16.8107 10.7867 16.7424 10.7867ZM11.5593 6.40844H11.6881C11.7905 6.40854 11.8888 6.44927 11.9612 6.52168C12.0336 6.59412 12.0743 6.69233 12.0744 6.79478V7.56739C12.0743 7.66984 12.0336 7.76805 11.9612 7.84046C11.8888 7.9129 11.7905 7.95364 11.6881 7.9537H11.5593V6.40844ZM4.34809 7.9537H4.21931C4.11689 7.95364 4.01869 7.9129 3.94624 7.84046C3.8738 7.76805 3.83307 7.66984 3.833 7.56739V6.79478C3.83307 6.69233 3.8738 6.59412 3.94624 6.52168C4.01869 6.44927 4.11689 6.40854 4.21931 6.40844H4.34809V7.9537ZM7.9537 1.51509C8.76394 1.51602 9.54147 1.83473 10.1192 2.40275C10.697 2.97077 11.0289 3.74275 11.0436 4.55282C10.3701 4.0812 9.13682 3.833 7.9537 3.833C6.77062 3.833 5.53732 4.0812 4.86381 4.55282C4.87855 3.74275 5.21045 2.97077 5.78823 2.40275C6.36597 1.83473 7.1435 1.51602 7.9537 1.51509ZM10.9206 5.12074H4.98681C5.33512 4.74211 6.40169 4.34809 7.9537 4.34809C9.50575 4.34809 10.5723 4.74211 10.9206 5.12074ZM4.86318 7.9537V5.63582H11.0443V7.9537C11.0443 8.39638 10.9007 9.2672 9.93874 10.1293C9.31869 10.6853 8.53929 11.0443 7.9537 11.0443C7.36811 11.0443 6.58874 10.6853 5.9687 10.1293C5.00676 9.2672 4.86318 8.39638 4.86318 7.9537ZM7.69617 16.4527H3.31791V15.4225C3.31791 15.3542 3.29078 15.2887 3.24246 15.2404C3.19418 15.1921 3.12865 15.165 3.06035 15.165C2.99205 15.165 2.92656 15.1921 2.87824 15.2404C2.82996 15.2887 2.80282 15.3542 2.80282 15.4225V16.4527H1.51509V15.9376C1.51612 14.9817 1.89635 14.0652 2.57233 13.3892C3.24828 12.7133 4.16477 12.333 5.12074 12.332H5.93295C6.10293 12.8754 6.80313 13.2856 7.69617 13.3525V16.4527ZM6.40844 12.0744V11.0797C6.93576 11.3849 7.48563 11.5593 7.9537 11.5593C8.42181 11.5593 8.97168 11.3849 9.499 11.0797V12.0744C9.499 12.4398 8.86445 12.8471 7.9537 12.8471C7.04298 12.8471 6.40844 12.4398 6.40844 12.0744ZM10.8189 16.4527H8.21126V13.3525C9.1043 13.2856 9.80451 12.8754 9.97449 12.332H10.7867C10.7977 12.332 10.808 12.3326 10.8189 12.3326V16.4527ZM13.1046 11.3018H14.6499V12.8471H13.1046V11.3018ZM16.4849 16.4527H11.334V11.3018H12.5895V13.1046C12.5895 13.1729 12.6167 13.2384 12.665 13.2867C12.7133 13.335 12.7788 13.3622 12.8471 13.3622H14.9074C14.9757 13.3622 15.0413 13.335 15.0895 13.2867C15.1378 13.2384 15.165 13.1729 15.165 13.1046V11.3018H16.4849V16.4527Z" fill="#757A93"/>
<path d="M16.7424 10.7867H11.0764C11.0081 10.7867 10.9426 10.8138 10.8943 10.8622C10.846 10.9104 10.8189 10.976 10.8189 11.0443V11.8175C10.8083 11.8175 10.7977 11.8169 10.7867 11.8169H10.0141V10.7336C10.7365 10.1757 11.3395 9.37667 11.5104 8.46882H11.6881C11.9271 8.46856 12.1562 8.37349 12.3252 8.20451C12.4942 8.0355 12.5893 7.80638 12.5895 7.56739V6.79478C12.5893 6.55576 12.4942 6.32664 12.3252 6.15766C12.1562 5.98868 11.9271 5.89362 11.6881 5.89335H11.5593V4.60565C11.5593 3.64935 11.1795 2.73225 10.5033 2.05607C9.8271 1.37989 8.91 1 7.9537 1C6.99744 1 6.08034 1.37989 5.40416 2.05607C4.72798 2.73225 4.34809 3.64935 4.34809 4.60565V5.89335H4.21931C3.98032 5.89362 3.7512 5.98868 3.58222 6.15766C3.41321 6.32664 3.31818 6.55576 3.31791 6.79478V7.56739C3.31818 7.80638 3.41321 8.0355 3.58222 8.20451C3.7512 8.37349 3.98032 8.46856 4.21931 8.46882H4.39701C4.56796 9.37667 5.17096 10.1757 5.89335 10.7336V11.8169H5.12074C4.02821 11.8181 2.98079 12.2527 2.20828 13.0252C1.43576 13.7977 1.00124 14.8451 1 15.9376V16.7103C1 16.7786 1.02713 16.8441 1.07542 16.8924C1.12373 16.9407 1.18923 16.9678 1.25756 16.9678H16.7424C16.8107 16.9678 16.8763 16.9407 16.9245 16.8924C16.9729 16.8441 17 16.7786 17 16.7103V11.0443C17 10.976 16.9729 10.9104 16.9245 10.8622C16.8763 10.8138 16.8107 10.7867 16.7424 10.7867ZM11.5593 6.40844H11.6881C11.7905 6.40854 11.8888 6.44927 11.9612 6.52168C12.0336 6.59412 12.0743 6.69233 12.0744 6.79478V7.56739C12.0743 7.66984 12.0336 7.76805 11.9612 7.84046C11.8888 7.9129 11.7905 7.95364 11.6881 7.9537H11.5593V6.40844ZM4.34809 7.9537H4.21931C4.11689 7.95364 4.01869 7.9129 3.94624 7.84046C3.8738 7.76805 3.83307 7.66984 3.833 7.56739V6.79478C3.83307 6.69233 3.8738 6.59412 3.94624 6.52168C4.01869 6.44927 4.11689 6.40854 4.21931 6.40844H4.34809V7.9537ZM7.9537 1.51509C8.76394 1.51602 9.54147 1.83473 10.1192 2.40275C10.697 2.97077 11.0289 3.74275 11.0436 4.55282C10.3701 4.0812 9.13682 3.833 7.9537 3.833C6.77062 3.833 5.53732 4.0812 4.86381 4.55282C4.87855 3.74275 5.21045 2.97077 5.78823 2.40275C6.36597 1.83473 7.1435 1.51602 7.9537 1.51509ZM10.9206 5.12074H4.98681C5.33512 4.74211 6.40169 4.34809 7.9537 4.34809C9.50575 4.34809 10.5723 4.74211 10.9206 5.12074ZM4.86318 7.9537V5.63582H11.0443V7.9537C11.0443 8.39638 10.9007 9.2672 9.93874 10.1293C9.31869 10.6853 8.53929 11.0443 7.9537 11.0443C7.36811 11.0443 6.58874 10.6853 5.9687 10.1293C5.00676 9.2672 4.86318 8.39638 4.86318 7.9537ZM7.69617 16.4527H3.31791V15.4225C3.31791 15.3542 3.29078 15.2887 3.24246 15.2404C3.19418 15.1921 3.12865 15.165 3.06035 15.165C2.99205 15.165 2.92656 15.1921 2.87824 15.2404C2.82996 15.2887 2.80282 15.3542 2.80282 15.4225V16.4527H1.51509V15.9376C1.51612 14.9817 1.89635 14.0652 2.57233 13.3892C3.24828 12.7133 4.16477 12.333 5.12074 12.332H5.93295C6.10293 12.8754 6.80313 13.2856 7.69617 13.3525V16.4527ZM6.40844 12.0744V11.0797C6.93576 11.3849 7.48563 11.5593 7.9537 11.5593C8.42181 11.5593 8.97168 11.3849 9.499 11.0797V12.0744C9.499 12.4398 8.86445 12.8471 7.9537 12.8471C7.04298 12.8471 6.40844 12.4398 6.40844 12.0744ZM10.8189 16.4527H8.21126V13.3525C9.1043 13.2856 9.80451 12.8754 9.97449 12.332H10.7867C10.7977 12.332 10.808 12.3326 10.8189 12.3326V16.4527ZM13.1046 11.3018H14.6499V12.8471H13.1046V11.3018ZM16.4849 16.4527H11.334V11.3018H12.5895V13.1046C12.5895 13.1729 12.6167 13.2384 12.665 13.2867C12.7133 13.335 12.7788 13.3622 12.8471 13.3622H14.9074C14.9757 13.3622 15.0413 13.335 15.0895 13.2867C15.1378 13.2384 15.165 13.1729 15.165 13.1046V11.3018H16.4849V16.4527Z" stroke="#757A93" stroke-width="0.4" mask="url(#path-4-outside-1_14093_283019)"/>
</svg>
