<svg width="18" height="18" viewBox="0 0 18 18" fill="none" xmlns="http://www.w3.org/2000/svg">
<mask id="path-1-outside-1_14093_283026" maskUnits="userSpaceOnUse" x="0" y="0" width="18" height="18" fill="black">
<rect fill="white" width="18" height="18"/>
<path fill-rule="evenodd" clip-rule="evenodd" d="M15.488 11.9007C14.988 11.9007 14.705 11.6617 14.544 11.1007C14.3934 10.3512 14.334 9.58636 14.367 8.82267C14.4057 7.69889 14.305 6.57464 14.067 5.47567C14.0252 5.34395 13.8879 5.26766 13.754 5.30167C13.6901 5.31313 13.6336 5.35034 13.5979 5.4046C13.5622 5.45885 13.5503 5.5254 13.565 5.58867C13.7932 6.65146 13.8899 7.73828 13.853 8.82467C13.8179 9.62962 13.8831 10.4358 14.047 11.2247C14.1124 11.4711 14.2282 11.7012 14.387 11.9007H3.619C3.77782 11.7012 3.89359 11.4711 3.959 11.2247C4.12302 10.4358 4.18819 9.62962 4.153 8.82467C4.05289 7.40884 4.27053 5.98855 4.79 4.66767C5.484 3.31267 6.862 2.65467 9 2.65467C9.98792 2.61175 10.9707 2.81809 11.858 3.25467C12.4746 3.59478 12.9654 4.12418 13.258 4.76467C13.3225 4.88746 13.4702 4.94047 13.598 4.88667C13.6589 4.86501 13.7079 4.81884 13.7332 4.75936C13.7585 4.69988 13.7577 4.63253 13.731 4.57367C13.3907 3.8423 12.827 3.2379 12.121 2.84767C11.6239 2.5808 11.0864 2.39704 10.53 2.30367C10.4293 1.54139 9.76858 0.978671 9 1.00067C8.22932 0.977853 7.56687 1.54301 7.468 2.30767C6.93544 2.39742 6.42 2.56912 5.94 2.81667C5.24251 3.18451 4.67697 3.76054 4.322 4.46467C3.76544 5.84851 3.53086 7.3408 3.636 8.82867C3.6691 9.59236 3.60966 10.3573 3.459 11.1067C3.297 11.6657 3.015 11.9067 2.515 11.9067C1.71237 11.8751 1.03516 12.4982 1 13.3007C1.0357 14.1028 1.71274 14.7253 2.515 14.6937H4.149C4.23753 14.6994 4.32191 14.6554 4.36791 14.5796C4.41392 14.5037 4.41392 14.4086 4.36791 14.3327C4.32191 14.2569 4.23753 14.2129 4.149 14.2187H2.514C2.16831 14.2466 1.83622 14.078 1.65479 13.7825C1.47337 13.4869 1.47337 13.1144 1.65479 12.8189C1.83622 12.5233 2.16831 12.3547 2.514 12.3827H15.489C15.8347 12.3547 16.1668 12.5233 16.3482 12.8189C16.5296 13.1144 16.5296 13.4869 16.3482 13.7825C16.1668 14.078 15.8347 14.2466 15.489 14.2187H5.183C5.09447 14.2129 5.01009 14.2569 4.96409 14.3327C4.91808 14.4086 4.91808 14.5037 4.96409 14.5796C5.01009 14.6554 5.09447 14.6994 5.183 14.6937H6.243C6.44208 16.0516 7.62822 17.0442 9 17.0007C10.3738 17.0444 11.5612 16.049 11.758 14.6887H15.487C16.2866 14.7192 16.9616 14.1 17 13.3007C16.968 12.497 16.2917 11.8708 15.488 11.9007ZM9 1.47521C9.4685 1.46322 9.88322 1.77633 10 2.23021C9.33514 2.16076 8.66486 2.16076 8 2.23021C8.11678 1.77633 8.5315 1.46322 9 1.47521ZM6.76074 14.6924C6.9424 15.7785 7.89909 16.563 8.99974 16.5284C10.1008 16.5635 11.058 15.7789 11.2397 14.6924H6.76074Z"/>
</mask>
<path fill-rule="evenodd" clip-rule="evenodd" d="M15.488 11.9007C14.988 11.9007 14.705 11.6617 14.544 11.1007C14.3934 10.3512 14.334 9.58636 14.367 8.82267C14.4057 7.69889 14.305 6.57464 14.067 5.47567C14.0252 5.34395 13.8879 5.26766 13.754 5.30167C13.6901 5.31313 13.6336 5.35034 13.5979 5.4046C13.5622 5.45885 13.5503 5.5254 13.565 5.58867C13.7932 6.65146 13.8899 7.73828 13.853 8.82467C13.8179 9.62962 13.8831 10.4358 14.047 11.2247C14.1124 11.4711 14.2282 11.7012 14.387 11.9007H3.619C3.77782 11.7012 3.89359 11.4711 3.959 11.2247C4.12302 10.4358 4.18819 9.62962 4.153 8.82467C4.05289 7.40884 4.27053 5.98855 4.79 4.66767C5.484 3.31267 6.862 2.65467 9 2.65467C9.98792 2.61175 10.9707 2.81809 11.858 3.25467C12.4746 3.59478 12.9654 4.12418 13.258 4.76467C13.3225 4.88746 13.4702 4.94047 13.598 4.88667C13.6589 4.86501 13.7079 4.81884 13.7332 4.75936C13.7585 4.69988 13.7577 4.63253 13.731 4.57367C13.3907 3.8423 12.827 3.2379 12.121 2.84767C11.6239 2.5808 11.0864 2.39704 10.53 2.30367C10.4293 1.54139 9.76858 0.978671 9 1.00067C8.22932 0.977853 7.56687 1.54301 7.468 2.30767C6.93544 2.39742 6.42 2.56912 5.94 2.81667C5.24251 3.18451 4.67697 3.76054 4.322 4.46467C3.76544 5.84851 3.53086 7.3408 3.636 8.82867C3.6691 9.59236 3.60966 10.3573 3.459 11.1067C3.297 11.6657 3.015 11.9067 2.515 11.9067C1.71237 11.8751 1.03516 12.4982 1 13.3007C1.0357 14.1028 1.71274 14.7253 2.515 14.6937H4.149C4.23753 14.6994 4.32191 14.6554 4.36791 14.5796C4.41392 14.5037 4.41392 14.4086 4.36791 14.3327C4.32191 14.2569 4.23753 14.2129 4.149 14.2187H2.514C2.16831 14.2466 1.83622 14.078 1.65479 13.7825C1.47337 13.4869 1.47337 13.1144 1.65479 12.8189C1.83622 12.5233 2.16831 12.3547 2.514 12.3827H15.489C15.8347 12.3547 16.1668 12.5233 16.3482 12.8189C16.5296 13.1144 16.5296 13.4869 16.3482 13.7825C16.1668 14.078 15.8347 14.2466 15.489 14.2187H5.183C5.09447 14.2129 5.01009 14.2569 4.96409 14.3327C4.91808 14.4086 4.91808 14.5037 4.96409 14.5796C5.01009 14.6554 5.09447 14.6994 5.183 14.6937H6.243C6.44208 16.0516 7.62822 17.0442 9 17.0007C10.3738 17.0444 11.5612 16.049 11.758 14.6887H15.487C16.2866 14.7192 16.9616 14.1 17 13.3007C16.968 12.497 16.2917 11.8708 15.488 11.9007ZM9 1.47521C9.4685 1.46322 9.88322 1.77633 10 2.23021C9.33514 2.16076 8.66486 2.16076 8 2.23021C8.11678 1.77633 8.5315 1.46322 9 1.47521ZM6.76074 14.6924C6.9424 15.7785 7.89909 16.563 8.99974 16.5284C10.1008 16.5635 11.058 15.7789 11.2397 14.6924H6.76074Z" fill="#757A93"/>
<path d="M14.544 11.1007L14.2499 11.1598L14.2523 11.1717L14.2556 11.1834L14.544 11.1007ZM15.488 11.9007V12.2009L15.4991 12.2005L15.488 11.9007ZM14.367 8.82267L14.6667 8.83563L14.6668 8.833L14.367 8.82267ZM14.067 5.47567L14.3602 5.41217L14.3572 5.39836L14.3529 5.38489L14.067 5.47567ZM13.754 5.30167L13.807 5.59696L13.8175 5.59507L13.8278 5.59244L13.754 5.30167ZM13.565 5.58867L13.8584 5.52568L13.8572 5.52067L13.565 5.58867ZM13.853 8.82467L14.1527 8.83774L14.1528 8.83485L13.853 8.82467ZM14.047 11.2247L13.7533 11.2857L13.7549 11.2937L13.757 11.3016L14.047 11.2247ZM14.387 11.9007V12.2007H15.0094L14.6217 11.7138L14.387 11.9007ZM3.619 11.9007L3.38433 11.7138L2.99657 12.2007H3.619V11.9007ZM3.959 11.2247L4.24896 11.3016L4.25105 11.2937L4.25272 11.2857L3.959 11.2247ZM4.153 8.82467L4.45282 8.81156L4.45225 8.80351L4.153 8.82467ZM4.79 4.66767L4.52298 4.53091L4.51623 4.54409L4.51081 4.55787L4.79 4.66767ZM9 2.65467V2.95495L9.01302 2.95438L9 2.65467ZM11.858 3.25467L12.0031 2.99169L11.9905 2.98549L11.858 3.25467ZM13.258 4.76467L12.9851 4.88933L12.9885 4.89681L12.9924 4.90409L13.258 4.76467ZM13.598 4.88667L13.4975 4.60401L13.4895 4.60686L13.4816 4.61016L13.598 4.88667ZM13.731 4.57367L14.0043 4.44983L14.003 4.44712L13.731 4.57367ZM12.121 2.84767L12.2661 2.58509L12.2629 2.58335L12.121 2.84767ZM10.53 2.30367L10.2326 2.34294L10.2616 2.56283L10.4804 2.59953L10.53 2.30367ZM9 1.00067L8.99112 1.30054L8.99985 1.30079L9.00858 1.30054L9 1.00067ZM7.468 2.30767L7.51786 2.60349L7.73702 2.56656L7.76552 2.34614L7.468 2.30767ZM5.94 2.81667L5.80249 2.55002L5.80005 2.55131L5.94 2.81667ZM4.322 4.46467L4.05412 4.32962L4.0484 4.34095L4.04367 4.35273L4.322 4.46467ZM3.636 8.82867L3.93583 8.81567L3.93525 8.80752L3.636 8.82867ZM3.459 11.1067L3.74714 11.1902L3.75064 11.1781L3.75312 11.1658L3.459 11.1067ZM2.515 11.9067L2.50319 12.2067H2.515V11.9067ZM1 13.3007L0.700288 13.2875L0.699708 13.3008L0.700297 13.314L1 13.3007ZM2.515 14.6937V14.3934L2.50319 14.3939L2.515 14.6937ZM4.149 14.6937L4.16844 14.3943L4.15873 14.3937H4.149V14.6937ZM4.149 14.2187V14.5187H4.15873L4.16844 14.518L4.149 14.2187ZM2.514 14.2187V13.9187H2.50188L2.48981 13.9196L2.514 14.2187ZM2.514 12.3827L2.48981 12.6817L2.50188 12.6827H2.514V12.3827ZM15.489 12.3827V12.6827H15.5011L15.5132 12.6817L15.489 12.3827ZM15.489 14.2187L15.5132 13.9196L15.5011 13.9187H15.489V14.2187ZM5.183 14.2187L5.16356 14.518L5.17327 14.5187H5.183V14.2187ZM5.183 14.6937V14.3937H5.17327L5.16356 14.3943L5.183 14.6937ZM6.243 14.6937L6.53983 14.6502L6.50223 14.3937H6.243V14.6937ZM9 17.0007L9.00954 16.7008L9.00002 16.7005L8.99049 16.7008L9 17.0007ZM11.758 14.6887V14.3887H11.4983L11.4611 14.6457L11.758 14.6887ZM15.487 14.6887L15.4985 14.3887H15.487V14.6887ZM17 13.3007L17.2997 13.315L17.3003 13.3019L17.2998 13.2887L17 13.3007ZM10 2.23021L9.96883 2.52858L10.3981 2.57342L10.2905 2.15545L10 2.23021ZM9 1.47521L8.99233 1.77511L9 1.7753L9.00767 1.77511L9 1.47521ZM8 2.23021L7.70946 2.15545L7.60192 2.57342L8.03117 2.52858L8 2.23021ZM8.99974 16.5284L9.00931 16.2285L8.99981 16.2282L8.99031 16.2285L8.99974 16.5284ZM6.76074 14.6924V14.3924H6.4064L6.46485 14.7419L6.76074 14.6924ZM11.2397 14.6924L11.5356 14.7419L11.5941 14.3924H11.2397V14.6924ZM14.2556 11.1834C14.3447 11.4938 14.4788 11.7569 14.695 11.94C14.9169 12.1279 15.1885 12.2007 15.488 12.2007V11.6007C15.2875 11.6007 15.1676 11.5539 15.0827 11.4821C14.9922 11.4054 14.9043 11.2686 14.8324 11.0179L14.2556 11.1834ZM14.0673 8.8097C14.0332 9.59756 14.0945 10.3866 14.2499 11.1598L14.8381 11.0416C14.6923 10.3158 14.6347 9.57516 14.6667 8.83563L14.0673 8.8097ZM13.7738 5.53916C14.0065 6.61389 14.1051 7.71334 14.0672 8.81233L14.6668 8.833C14.7064 7.68444 14.6034 6.53539 14.3602 5.41217L13.7738 5.53916ZM13.8278 5.59244C13.8078 5.59752 13.7873 5.58612 13.7811 5.56644L14.3529 5.38489C14.2631 5.10178 13.9681 4.93779 13.6802 5.01089L13.8278 5.59244ZM13.8484 5.56959C13.839 5.58402 13.8239 5.59391 13.807 5.59696L13.701 5.00638C13.5562 5.03236 13.4283 5.11667 13.3473 5.2396L13.8484 5.56959ZM13.8572 5.52067C13.8611 5.53749 13.8579 5.55517 13.8484 5.56959L13.3473 5.2396C13.2664 5.36253 13.2394 5.51331 13.2728 5.65667L13.8572 5.52067ZM14.1528 8.83485C14.1906 7.7239 14.0917 6.61252 13.8583 5.52569L13.2717 5.65164C13.4947 6.69041 13.5893 7.75265 13.5532 8.81448L14.1528 8.83485ZM14.3407 11.1636C14.1818 10.3991 14.1187 9.61783 14.1527 8.83774L13.5533 8.81159C13.5171 9.6414 13.5843 10.4725 13.7533 11.2857L14.3407 11.1636ZM14.6217 11.7138C14.4887 11.5468 14.3917 11.354 14.337 11.1477L13.757 11.3016C13.8331 11.5881 13.9677 11.8557 14.1523 12.0876L14.6217 11.7138ZM3.619 12.2007H14.387V11.6007H3.619V12.2007ZM3.66904 11.1477C3.61427 11.354 3.51732 11.5468 3.38433 11.7138L3.85367 12.0876C4.03832 11.8557 4.17291 11.5881 4.24896 11.3016L3.66904 11.1477ZM3.85329 8.83777C3.88739 9.61784 3.82423 10.3991 3.66528 11.1636L4.25272 11.2857C4.42181 10.4725 4.48899 9.64139 4.45271 8.81156L3.85329 8.83777ZM4.51081 4.55787C3.97498 5.92036 3.75048 7.3854 3.85375 8.84583L4.45225 8.80351C4.3553 7.43229 4.56608 6.05673 5.06919 4.77746L4.51081 4.55787ZM9 2.35467C6.8016 2.35467 5.2884 3.03647 4.52298 4.53091L5.05701 4.80443C5.6796 3.58886 6.9224 2.95467 9 2.95467V2.35467ZM11.9905 2.98549C11.058 2.52669 10.0252 2.30985 8.98698 2.35495L9.01302 2.95438C9.95065 2.91366 10.8835 3.10949 11.7255 3.52384L11.9905 2.98549ZM13.5309 4.64001C13.2115 3.94098 12.6758 3.36319 12.0029 2.99198L11.7131 3.51735C12.2733 3.82638 12.7193 4.30738 12.9851 4.88933L13.5309 4.64001ZM13.4816 4.61016C13.4974 4.60351 13.5157 4.61007 13.5236 4.62524L12.9924 4.90409C13.1292 5.16485 13.443 5.27743 13.7144 5.16317L13.4816 4.61016ZM13.4571 4.64204C13.4646 4.62427 13.4793 4.61048 13.4975 4.60401L13.6985 5.16932C13.8385 5.11955 13.9512 5.01341 14.0093 4.87668L13.4571 4.64204ZM13.4578 4.6975C13.4498 4.67992 13.4495 4.6598 13.4571 4.64204L14.0093 4.87668C14.0674 4.73996 14.0656 4.58514 14.0042 4.44983L13.4578 4.6975ZM11.9759 3.11022C12.6262 3.46971 13.1456 4.02647 13.459 4.70021L14.003 4.44712C13.6359 3.65812 13.0277 3.0061 12.2661 2.58511L11.9759 3.11022ZM10.4804 2.59953C11.0045 2.68749 11.5108 2.86059 11.9791 3.11199L12.2629 2.58335C11.7369 2.301 11.1684 2.10659 10.5796 2.0078L10.4804 2.59953ZM9.00858 1.30054C9.62344 1.28295 10.152 1.73312 10.2326 2.34294L10.8274 2.26439C10.7066 1.34966 9.91371 0.674394 8.99142 0.70079L9.00858 1.30054ZM7.76552 2.34614C7.84462 1.73441 8.37458 1.28228 8.99112 1.30054L9.00888 0.700798C8.08406 0.673422 7.28912 1.35162 7.17048 2.2692L7.76552 2.34614ZM6.07751 3.0833C6.52997 2.84995 7.01585 2.6881 7.51786 2.60349L7.41814 2.01184C6.85503 2.10674 6.31003 2.28829 5.80249 2.55004L6.07751 3.0833ZM4.58988 4.59971C4.91679 3.95126 5.43761 3.42078 6.07995 3.08203L5.80005 2.55131C5.04741 2.94824 4.43715 3.56982 4.05412 4.32962L4.58988 4.59971ZM3.93525 8.80752C3.83332 7.36503 4.06074 5.91825 4.60033 4.57661L4.04367 4.35273C3.47013 5.77877 3.22839 7.31658 3.33675 8.84981L3.93525 8.80752ZM3.75312 11.1658C3.90855 10.3927 3.96986 9.60355 3.93572 8.81568L3.33628 8.84166C3.36833 9.58117 3.31078 10.3218 3.16489 11.0475L3.75312 11.1658ZM2.515 12.2067C2.81515 12.2067 3.08636 12.1331 3.30793 11.945C3.52358 11.7619 3.6576 11.4992 3.74714 11.1902L3.17086 11.0232C3.0984 11.2732 3.01042 11.4105 2.91957 11.4876C2.83464 11.5597 2.71485 11.6067 2.515 11.6067V12.2067ZM1.29971 13.3138C1.32765 12.6763 1.8656 12.1813 2.5032 12.2064L2.5268 11.6069C1.55913 11.5688 0.742682 12.32 0.700288 13.2875L1.29971 13.3138ZM2.50319 14.3939C1.86589 14.419 1.32806 13.9245 1.2997 13.2873L0.700297 13.314C0.743334 14.281 1.55959 15.0315 2.52681 14.9934L2.50319 14.3939ZM4.149 14.3937H2.515V14.9937H4.149V14.3937ZM4.11141 14.424C4.12339 14.4043 4.14537 14.3928 4.16844 14.3943L4.12956 14.993C4.32968 15.006 4.52042 14.9066 4.62442 14.7352L4.11141 14.424ZM4.11141 14.4883C4.09942 14.4686 4.09942 14.4438 4.11141 14.424L4.62442 14.7352C4.72842 14.5637 4.72842 14.3486 4.62442 14.1772L4.11141 14.4883ZM4.16844 14.518C4.14537 14.5195 4.12339 14.5081 4.11141 14.4883L4.62442 14.1772C4.52042 14.0057 4.32968 13.9063 4.12956 13.9193L4.16844 14.518ZM2.514 14.5187H4.149V13.9187H2.514V14.5187ZM1.39912 13.9394C1.63964 14.3313 2.0799 14.5548 2.53819 14.5177L2.48981 13.9196C2.25672 13.9385 2.0328 13.8248 1.91047 13.6255L1.39912 13.9394ZM1.39912 12.6619C1.15859 13.0538 1.15859 13.5475 1.39912 13.9394L1.91047 13.6255C1.78814 13.4262 1.78814 13.1751 1.91047 12.9758L1.39912 12.6619ZM2.53819 12.0836C2.07991 12.0466 1.63964 12.2701 1.39912 12.6619L1.91047 12.9758C2.0328 12.7765 2.25672 12.6628 2.48981 12.6817L2.53819 12.0836ZM15.489 12.0827H2.514V12.6827H15.489V12.0827ZM16.6039 12.6619C16.3634 12.2701 15.9231 12.0466 15.4648 12.0836L15.5132 12.6817C15.7463 12.6628 15.9702 12.7765 16.0925 12.9758L16.6039 12.6619ZM16.6039 13.9394C16.8444 13.5475 16.8444 13.0538 16.6039 12.6619L16.0925 12.9758C16.2149 13.1751 16.2149 13.4262 16.0925 13.6255L16.6039 13.9394ZM15.4648 14.5177C15.9231 14.5548 16.3634 14.3313 16.6039 13.9394L16.0925 13.6255C15.9702 13.8248 15.7463 13.9385 15.5132 13.9196L15.4648 14.5177ZM5.183 14.5187H15.489V13.9187H5.183V14.5187ZM5.22059 14.4883C5.20861 14.5081 5.18663 14.5195 5.16356 14.518L5.20244 13.9193C5.00232 13.9063 4.81158 14.0057 4.70758 14.1772L5.22059 14.4883ZM5.22059 14.424C5.23258 14.4438 5.23258 14.4686 5.22059 14.4883L4.70758 14.1772C4.60358 14.3486 4.60358 14.5637 4.70758 14.7352L5.22059 14.424ZM5.16356 14.3943C5.18663 14.3928 5.20861 14.4043 5.22059 14.424L4.70758 14.7352C4.81158 14.9066 5.00232 15.006 5.20244 14.993L5.16356 14.3943ZM6.243 14.3937H5.183V14.9937H6.243V14.3937ZM8.99049 16.7008C7.77114 16.7395 6.71679 15.8572 6.53983 14.6502L5.94617 14.7372C6.16737 16.246 7.48531 17.3488 9.00951 17.3005L8.99049 16.7008ZM11.4611 14.6457C11.2861 15.8549 10.2307 16.7397 9.00954 16.7008L8.99046 17.3005C10.5169 17.3491 11.8362 16.2431 12.0549 14.7316L11.4611 14.6457ZM15.487 14.3887H11.758V14.9887H15.487V14.3887ZM16.7003 13.2863C16.6699 13.9212 16.1337 14.4131 15.4984 14.3889L15.4756 14.9884C16.4396 15.0253 17.2534 14.2787 17.2997 13.315L16.7003 13.2863ZM15.4991 12.2005C16.1376 12.1767 16.6748 12.6742 16.7002 13.3126L17.2998 13.2887C17.2612 12.3198 16.4459 11.5649 15.4769 11.6009L15.4991 12.2005ZM10.2905 2.15545C10.1389 1.56623 9.60054 1.15974 8.99233 1.1753L9.00767 1.77511C9.33646 1.76669 9.62751 1.98643 9.70946 2.30496L10.2905 2.15545ZM8.03117 2.52858C8.6753 2.4613 9.3247 2.4613 9.96883 2.52858L10.0312 1.93183C9.34559 1.86022 8.65441 1.86022 7.96883 1.93183L8.03117 2.52858ZM9.00767 1.1753C8.39946 1.15974 7.86106 1.56623 7.70946 2.15545L8.29054 2.30496C8.37249 1.98643 8.66354 1.76669 8.99233 1.77511L9.00767 1.1753ZM8.99031 16.2285C8.03975 16.2584 7.21351 15.5809 7.05663 14.6429L6.46485 14.7419C6.67128 15.9761 7.75843 16.8676 9.00917 16.8282L8.99031 16.2285ZM10.9439 14.6429C10.7869 15.5812 9.96019 16.2589 9.00931 16.2285L8.99018 16.8282C10.2413 16.8681 11.3292 15.9765 11.5356 14.7419L10.9439 14.6429ZM6.76074 14.9924H11.2397V14.3924H6.76074V14.9924Z" fill="#757A93" mask="url(#path-1-outside-1_14093_283026)"/>
</svg>
