<svg width="16" height="17" viewBox="0 0 16 17" fill="none" xmlns="http://www.w3.org/2000/svg">
<path fill-rule="evenodd" clip-rule="evenodd" d="M14.488 10.9007C13.988 10.9007 13.705 10.6617 13.544 10.1007C13.3934 9.35124 13.334 8.58636 13.367 7.82267C13.4057 6.69889 13.305 5.57464 13.067 4.47567C13.0252 4.34395 12.8879 4.26766 12.754 4.30167C12.6901 4.31313 12.6336 4.35034 12.5979 4.4046C12.5622 4.45885 12.5503 4.5254 12.565 4.58867C12.7932 5.65146 12.8899 6.73828 12.853 7.82467C12.8179 8.62962 12.8831 9.43581 13.047 10.2247C13.1124 10.4711 13.2282 10.7012 13.387 10.9007H2.619C2.77782 10.7012 2.89359 10.4711 2.959 10.2247C3.12302 9.43582 3.18819 8.62962 3.153 7.82467C3.05289 6.40884 3.27053 4.98855 3.79 3.66767C4.484 2.31267 5.862 1.65467 8 1.65467C8.98792 1.61175 9.97075 1.81809 10.858 2.25467C11.4746 2.59478 11.9654 3.12418 12.258 3.76467C12.3225 3.88746 12.4702 3.94047 12.598 3.88667C12.6589 3.86501 12.7079 3.81884 12.7332 3.75936C12.7585 3.69988 12.7577 3.63253 12.731 3.57367C12.3907 2.8423 11.827 2.2379 11.121 1.84767C10.6239 1.5808 10.0864 1.39704 9.53 1.30367C9.42933 0.541392 8.76858 -0.0213294 8 0.000666734C7.22932 -0.0221467 6.56687 0.543015 6.468 1.30767C5.93544 1.39742 5.42 1.56912 4.94 1.81667C4.24251 2.18451 3.67697 2.76054 3.322 3.46467C2.76544 4.84851 2.53086 6.3408 2.636 7.82867C2.6691 8.59236 2.60966 9.35725 2.459 10.1067C2.297 10.6657 2.015 10.9067 1.515 10.9067C0.712367 10.8751 0.035164 11.4982 0 12.3007C0.035697 13.1028 0.71274 13.7253 1.515 13.6937H3.149C3.23753 13.6994 3.32191 13.6554 3.36791 13.5796C3.41392 13.5037 3.41392 13.4086 3.36791 13.3327C3.32191 13.2569 3.23753 13.2129 3.149 13.2187H1.514C1.16831 13.2466 0.836222 13.078 0.654794 12.7825C0.473367 12.4869 0.473367 12.1144 0.654794 11.8189C0.836222 11.5233 1.16831 11.3547 1.514 11.3827H14.489C14.8347 11.3547 15.1668 11.5233 15.3482 11.8189C15.5296 12.1144 15.5296 12.4869 15.3482 12.7825C15.1668 13.078 14.8347 13.2466 14.489 13.2187H4.183C4.09447 13.2129 4.01009 13.2569 3.96409 13.3327C3.91808 13.4086 3.91808 13.5037 3.96409 13.5796C4.01009 13.6554 4.09447 13.6994 4.183 13.6937H5.243C5.44208 15.0516 6.62822 16.0442 8 16.0007C9.37381 16.0444 10.5612 15.049 10.758 13.6887H14.487C15.2866 13.7192 15.9616 13.1 16 12.3007C15.968 11.497 15.2917 10.8708 14.488 10.9007ZM8 0.475205C8.4685 0.463218 8.88322 0.776331 9 1.23021C8.33514 1.16076 7.66486 1.16076 7 1.23021C7.11678 0.776331 7.5315 0.463218 8 0.475205ZM5.76074 13.6924C5.9424 14.7785 6.89909 15.563 7.99974 15.5284C9.10077 15.5635 10.058 14.7789 10.2397 13.6924H5.76074Z" fill="#757A93"/>
</svg>
