<svg width="16" height="13" viewBox="0 0 16 13" fill="none" xmlns="http://www.w3.org/2000/svg">
<path d="M3.982 5.23943C3.78637 5.03361 3.46205 5.02205 3.25225 5.21343L1.58472 6.80295L0.880977 6.0732C0.685341 5.86738 0.361019 5.85582 0.151228 6.0472C-0.0504094 6.25876 -0.0504094 6.59138 0.151228 6.80295L1.21903 7.89676C1.31023 8.00231 1.44363 8.06186 1.5831 8.05929C1.72118 8.05545 1.85211 7.997 1.94716 7.89676L3.98038 5.96918C4.07888 5.88163 4.13774 5.75793 4.14356 5.62628C4.14938 5.49462 4.10165 5.36621 4.01126 5.27031L3.982 5.23943Z" fill="#757A93"/>
<path d="M15.0849 6.38256H9.09086C8.89782 6.37177 8.71464 6.46863 8.61487 6.63424C8.5151 6.79985 8.5151 7.00706 8.61487 7.17268C8.71464 7.33829 8.89782 7.43515 9.09086 7.42436H15.0849C15.2779 7.43515 15.4611 7.33829 15.5609 7.17268C15.6606 7.00706 15.6606 6.79985 15.5609 6.63424C15.4611 6.46863 15.2779 6.37177 15.0849 6.38256Z" fill="#757A93"/>
<path d="M3.982 0.162285C3.78637 -0.0435384 3.46205 -0.0550955 3.25225 0.13628L1.58472 1.7258L0.880977 0.996051C0.685341 0.790228 0.361019 0.778671 0.151228 0.970047C-0.0504094 1.18162 -0.0504094 1.51423 0.151228 1.7258L1.21903 2.81961C1.31023 2.92516 1.44363 2.98471 1.5831 2.98214C1.72118 2.9783 1.85211 2.91985 1.94716 2.81961L3.98038 0.892034C4.07888 0.804481 4.13774 0.680785 4.14356 0.549127C4.14938 0.417469 4.10165 0.289064 4.01126 0.193165L3.982 0.162285Z" fill="#757A93"/>
<path d="M15.0849 1.38744H9.09086C8.89782 1.37665 8.71464 1.47351 8.61487 1.63912C8.5151 1.80474 8.5151 2.01195 8.61487 2.17756C8.71464 2.34317 8.89782 2.44003 9.09086 2.42924H15.0849C15.2779 2.44003 15.4611 2.34317 15.5609 2.17756C15.6606 2.01195 15.6606 1.80474 15.5609 1.63912C15.4611 1.47351 15.2779 1.37665 15.0849 1.38744Z" fill="#757A93"/>
<path d="M3.982 10.0715C3.78637 9.86564 3.46205 9.85408 3.25225 10.0455L1.58472 11.635L0.880977 10.9052C0.685341 10.6994 0.361019 10.6879 0.151228 10.8792C-0.0504094 11.0908 -0.0504094 11.4234 0.151228 11.635L1.21903 12.7288C1.31023 12.8343 1.44363 12.8939 1.5831 12.8913C1.72118 12.8875 1.85211 12.829 1.94716 12.7288L3.98038 10.8012C4.07888 10.7137 4.13774 10.59 4.14356 10.4583C4.14938 10.3266 4.10165 10.1982 4.01126 10.1023L3.982 10.0715Z" fill="#757A93"/>
<path d="M15.0849 11.3747H9.09086C8.89782 11.364 8.71464 11.4608 8.61487 11.6264C8.5151 11.792 8.5151 11.9993 8.61487 12.1649C8.71464 12.3305 8.89782 12.4273 9.09086 12.4165H15.0849C15.2779 12.4273 15.4611 12.3305 15.5609 12.1649C15.6606 11.9993 15.6606 11.792 15.5609 11.6264C15.4611 11.4608 15.2779 11.364 15.0849 11.3747Z" fill="#757A93"/>
</svg>
