<svg width="18" height="18" viewBox="0 0 18 18" fill="none" xmlns="http://www.w3.org/2000/svg">
<path d="M12.5903 6.16016L9.63533 9.06516C9.31657 8.91161 8.95379 8.87569 8.6111 8.96373C8.26841 9.05178 7.96788 9.25813 7.76261 9.54632C7.55735 9.83451 7.46056 10.186 7.48935 10.5386C7.51815 10.8913 7.67067 11.2224 7.91998 11.4735C8.16928 11.7245 8.49931 11.8794 8.85174 11.9107C9.20417 11.942 9.55632 11.8477 9.84595 11.6444C10.1356 11.4412 10.344 11.1421 10.4345 10.8001C10.525 10.458 10.4916 10.095 10.3403 9.77516L13.3003 6.87016L12.5903 6.16016Z" fill="#757A93"/>
<path d="M8.99957 2.12501C7.42593 2.1232 5.88464 2.57177 4.55773 3.41774C3.23082 4.26371 2.17372 5.47174 1.51127 6.89915C0.848823 8.32657 0.608702 9.91374 0.819266 11.4732C1.02983 13.0327 1.68228 14.4994 2.69957 15.7L2.84957 15.875H15.1496L15.2996 15.7C16.3169 14.4994 16.9693 13.0327 17.1799 11.4732C17.3904 9.91374 17.1503 8.32657 16.4879 6.89915C15.8254 5.47174 14.7683 4.26371 13.4414 3.41774C12.1145 2.57177 10.5732 2.1232 8.99957 2.12501ZM14.6696 14.875H3.32957C2.43241 13.7524 1.89094 12.3874 1.77457 10.955H3.49957V9.95501H1.77457C1.8583 8.36737 2.4648 6.85201 3.49957 5.64501L4.72457 6.87001L5.42957 6.16501L4.21457 4.93501C5.4062 3.88177 6.91283 3.2524 8.49957 3.14501V4.89501H9.49957V3.15001C11.2523 3.27712 12.8989 4.03782 14.1318 5.29007C15.3647 6.54232 16.0997 8.2005 16.1996 9.95501H14.4596V10.955H16.2246C16.1082 12.3874 15.5667 13.7524 14.6696 14.875Z" fill="#757A93"/>
</svg>
