<svg width="19" height="20" viewBox="0 0 19 20" fill="none" xmlns="http://www.w3.org/2000/svg">
<path d="M7.45529 18.956L7.45527 18.956C6.86501 18.7366 6.28227 18.5219 5.70939 18.5727L4.22466 18.7044L4.11582 18.714V18.6048V12.8542V12.7626L4.20698 12.7546L5.01637 12.6827L5.01652 12.6827L5.02536 12.7823C5.52683 12.7371 5.94875 12.9331 6.35484 13.1225L7.45529 18.956ZM7.45529 18.956L7.46593 18.96C7.99258 19.1556 8.55569 19.3647 9.12948 19.3647C9.19571 19.3647 9.26234 19.362 9.32914 19.356M7.45529 18.956L6.3971 13.0318C6.77974 13.2102 7.11346 13.3628 7.49328 13.3339L10.1393 12.8536L10.1403 12.8534L10.1403 12.8534C10.6398 12.7679 11.0333 12.8687 11.3439 13.0609C11.6225 13.2333 11.8295 13.4762 11.9874 13.7113L14.8002 12.4035L14.8013 12.4029L14.8013 12.4029C15.9543 11.8848 17.2324 12.4124 17.9888 13.6673C18.2127 14.0388 18.0872 14.5279 17.7152 14.7602L17.7151 14.7602C17.4416 14.9308 17.1691 15.1015 16.8983 15.2711C16.7967 15.3347 16.6954 15.3982 16.5943 15.4615C16.5943 15.4615 16.5942 15.4615 16.5942 15.4615L16.5868 15.4661C14.9739 16.4767 13.4681 17.4202 12.2159 18.1242C11.5888 18.4768 11.0234 18.7704 10.5386 18.9827C10.056 19.194 9.64498 19.3285 9.32914 19.356M9.32914 19.356L9.32045 19.2564M9.32914 19.356C9.32921 19.356 9.32927 19.356 9.32934 19.356L9.32045 19.2564M9.32045 19.2564C9.25673 19.2621 9.193 19.2647 9.12948 19.2647C8.57372 19.2647 8.02483 19.0609 7.49213 18.8631L7.49011 18.8623L16.8451 15.1864C16.7435 15.25 16.6422 15.3135 16.5412 15.3767L16.5355 15.3803C13.305 17.4044 10.5155 19.1522 9.32045 19.2564ZM7.66617 18.388L7.6662 18.388C8.24938 18.6048 8.77328 18.7967 9.27578 18.7525L9.27581 18.7525C9.5325 18.7301 9.90575 18.6053 10.3774 18.3929C10.8462 18.1817 11.4024 17.8885 12.0217 17.5375C13.2602 16.8353 14.7437 15.9059 16.2721 14.9482C16.2721 14.9482 16.2721 14.9482 16.2721 14.9482L16.2905 14.9367C16.6552 14.7081 17.0238 14.4772 17.3937 14.2464C17.4924 14.1846 17.5193 14.0631 17.4693 13.9802L17.4692 13.9801C16.8602 12.9691 15.8867 12.5796 15.0521 12.9545C15.052 12.9545 15.0518 12.9546 15.0516 12.9547L11.8294 14.4527L11.7461 14.4914L11.7005 14.4117L11.6079 14.2502C11.6079 14.2502 11.6079 14.2502 11.6079 14.2502C11.4678 14.0059 11.3063 13.7753 11.0912 13.621C10.8804 13.4698 10.6118 13.3874 10.2446 13.4503C10.2444 13.4503 10.2443 13.4503 10.2441 13.4503L7.57613 13.9338L7.56667 13.9355L7.56663 13.935C7.00139 13.9823 6.5555 13.7744 6.14809 13.5845L6.14077 13.5811L7.66617 18.388ZM7.66617 18.388L7.65563 18.3841C7.10168 18.1784 6.5111 17.959 5.88523 17.959C5.80962 17.959 5.733 17.9622 5.65539 17.9692C5.65535 17.9692 5.65531 17.9692 5.65527 17.9692L4.7211 18.0521M7.66617 18.388L4.7211 18.0521M4.7211 18.0521V13.3173L5.06926 13.2864C5.06931 13.2864 5.06935 13.2864 5.06939 13.2864C5.43382 13.255 5.76224 13.4049 6.1407 13.581L4.7211 18.0521ZM7.63136 18.4818C8.20893 18.6965 8.75526 18.8986 9.28453 18.8522L5.88523 18.059C6.49308 18.059 7.06937 18.2731 7.62864 18.4808L7.63136 18.4818Z" fill="#757A93" stroke="#757A93" stroke-width="0.2"/>
<path d="M8.08851 16.336L8.08851 16.336C8.0558 16.1719 8.16213 16.0126 8.32594 15.9796L8.32607 15.9795C9.33599 15.7775 10.4739 15.3208 11.7987 14.5811L11.6081 14.2491L11.6081 14.2491C11.5248 14.1041 11.575 13.9187 11.72 13.8356L11.7203 13.8354C11.865 13.7531 12.0501 13.8018 12.1335 13.9475L12.1335 13.9474L12.0468 13.9972L12.1336 13.9476L8.08851 16.336ZM8.08851 16.336C8.11731 16.4803 8.24376 16.5796 8.38526 16.5796C8.4046 16.5796 8.42501 16.5778 8.44599 16.5734L8.42524 16.4756L8.08851 16.336Z" fill="#757A93" stroke="#757A93" stroke-width="0.2"/>
<path d="M1.67803 12.3254H1.77803V12.3252H3.94349C4.03819 12.3252 4.11564 12.4026 4.11564 12.4976V18.5877C4.11564 18.6827 4.03834 18.76 3.94349 18.76H1.67803C1.58334 18.76 1.50589 18.6827 1.50589 18.5877V12.4978C1.50589 12.4027 1.58318 12.3254 1.67803 12.3254ZM1.67803 19.3657H3.94349C4.37256 19.3657 4.72152 19.0167 4.72152 18.5875V12.4976C4.72152 12.0683 4.37256 11.7193 3.94349 11.7193H1.67803C1.24896 11.7193 0.9 12.0683 0.9 12.4976V18.5875C0.9 19.0167 1.24896 19.3657 1.67803 19.3657Z" fill="#757A93" stroke="#757A93" stroke-width="0.2"/>
<path d="M4.44004 5.95953C4.44004 8.74942 6.70968 11.0191 9.49957 11.0191C12.2895 11.0191 14.5591 8.74942 14.5591 5.95953C14.5591 3.16964 12.2895 0.9 9.49957 0.9C6.70968 0.9 4.44004 3.16964 4.44004 5.95953ZM5.04593 5.95953C5.04593 3.50374 7.04378 1.50589 9.49957 1.50589C11.9552 1.50589 13.9532 3.50374 13.9532 5.95953C13.9532 8.41531 11.9552 10.4132 9.49957 10.4132C7.04378 10.4132 5.04593 8.41532 5.04593 5.95953Z" fill="#757A93" stroke="#757A93" stroke-width="0.2"/>
</svg>
