<svg width="24" height="24" viewBox="0 0 24 24" fill="none" xmlns="http://www.w3.org/2000/svg">
<g clip-path="url(#clip0_13178_286096)">
<path d="M13.4896 5.48047C14.5896 5.48047 15.4896 4.58047 15.4896 3.48047C15.4896 2.38047 14.5896 1.48047 13.4896 1.48047C12.3896 1.48047 11.4896 2.38047 11.4896 3.48047C11.4896 4.58047 12.3896 5.48047 13.4896 5.48047ZM9.88965 19.3805L10.8896 14.9805L12.9896 16.9805V22.9805H14.9896V15.4805L12.8896 13.4805L13.4896 10.4805C14.7896 11.9805 16.7896 12.9805 18.9896 12.9805V10.9805C17.0896 10.9805 15.4896 9.98047 14.6896 8.58047L13.6896 6.98047C13.2896 6.38047 12.6896 5.98047 11.9896 5.98047C11.6896 5.98047 11.4896 6.08047 11.1896 6.08047L5.98965 8.28047V12.9805H7.98965V9.58047L9.78965 8.88047L8.18965 16.9805L3.28965 15.9805L2.88965 17.9805L9.88965 19.3805Z" fill="#757A93"/>
</g>
<defs>
<clipPath id="clip0_13178_286096">
<rect width="24" height="24" fill="white"/>
</clipPath>
</defs>
</svg>
