<svg width="24" height="24" viewBox="0 0 24 24" fill="none" xmlns="http://www.w3.org/2000/svg">
<g clip-path="url(#clip0_13178_286163)">
<path d="M8.49965 13C9.32965 13 9.99965 13.67 9.99965 14.5C9.99965 15.33 9.32965 16 8.49965 16C7.66965 16 6.99965 15.33 6.99965 14.5C6.99965 13.67 7.66965 13 8.49965 13ZM19.7796 22.61L18.1396 20.97C18.0896 20.98 18.0496 21 17.9996 21H16.9996C16.4496 21 15.9996 20.55 15.9996 20V19H7.99965V20C7.99965 20.55 7.54965 21 6.99965 21H5.99965C5.44965 21 4.99965 20.55 4.99965 20V18.22C4.38965 17.67 3.99965 16.88 3.99965 16V6.83L1.38965 4.22L2.79965 2.81L21.1796 21.19L19.7796 22.61ZM5.99965 8.83V10H7.16965L5.99965 8.83ZM14.1696 17L9.16965 12H5.99965V16C5.99965 16.37 6.20965 16.62 6.33965 16.73L6.62965 17H14.1696ZM11.9996 4C15.6896 4 17.1096 4.46 17.6596 4.99H7.81965L9.81965 6.99H17.9996V10H12.8296L14.8296 12H17.9996V15.17L19.8096 16.98C19.9196 16.67 19.9996 16.35 19.9996 16V6C19.9996 2.5 16.4196 2 11.9996 2C9.47965 2 7.23965 2.16 5.77965 2.95L7.30965 4.48C8.16965 4.2 9.59965 4 11.9996 4Z" fill="#757A93"/>
</g>
<defs>
<clipPath id="clip0_13178_286163">
<rect width="24" height="24" fill="white"/>
</clipPath>
</defs>
</svg>
