<svg width="24" height="24" viewBox="0 0 24 24" fill="none" xmlns="http://www.w3.org/2000/svg">
<g clip-path="url(#clip0_13178_285922)">
<path d="M20.0004 8.69043V4.00043H15.3104L12.0004 0.69043L8.69043 4.00043H4.00043V8.69043L0.69043 12.0004L4.00043 15.3104V20.0004H8.69043L12.0004 23.3104L15.3104 20.0004H20.0004V15.3104L23.3104 12.0004L20.0004 8.69043ZM18.0004 14.4804V18.0004H14.4804L12.0004 20.4804L9.52043 18.0004H6.00043V14.4804L3.52043 12.0004L6.00043 9.52043V6.00043H9.52043L12.0004 3.52043L14.4804 6.00043H18.0004V9.52043L20.4804 12.0004L18.0004 14.4804ZM12.0004 6.50043V17.5004C15.0304 17.5004 17.5004 15.0304 17.5004 12.0004C17.5004 8.97043 15.0304 6.50043 12.0004 6.50043Z" fill="#757A93"/>
</g>
<defs>
<clipPath id="clip0_13178_285922">
<rect width="24" height="24" fill="white"/>
</clipPath>
</defs>
</svg>
