<svg width="24" height="24" viewBox="0 0 24 24" fill="none" xmlns="http://www.w3.org/2000/svg">
<g clip-path="url(#clip0_13178_285997)">
<path d="M17.7295 12.0196L21.7095 8.03957C22.0995 7.64957 22.0995 7.01957 21.7095 6.62957L17.3695 2.28957C16.9795 1.89957 16.3495 1.89957 15.9595 2.28957L11.9795 6.26957L7.99953 2.28957C7.79953 2.09957 7.54953 1.99957 7.28953 1.99957C7.03953 1.99957 6.77953 2.09957 6.58953 2.28957L2.24953 6.62957C1.85953 7.01957 1.85953 7.64957 2.24953 8.03957L6.22953 12.0196L2.24953 15.9996C1.85953 16.3896 1.85953 17.0196 2.24953 17.4096L6.58953 21.7496C6.97953 22.1396 7.60953 22.1396 7.99953 21.7496L11.9795 17.7696L15.9595 21.7496C16.1595 21.9496 16.4095 22.0396 16.6695 22.0396C16.9295 22.0396 17.1795 21.9396 17.3795 21.7496L21.7195 17.4096C22.1095 17.0196 22.1095 16.3896 21.7195 15.9996L17.7295 12.0196ZM11.9995 8.99957C12.5495 8.99957 12.9995 9.44957 12.9995 9.99957C12.9995 10.5496 12.5495 10.9996 11.9995 10.9996C11.4495 10.9996 10.9995 10.5496 10.9995 9.99957C10.9995 9.44957 11.4495 8.99957 11.9995 8.99957ZM7.28953 10.9596L3.65953 7.33957L7.28953 3.70957L10.9095 7.32957L7.28953 10.9596ZM9.99953 12.9996C9.44953 12.9996 8.99953 12.5496 8.99953 11.9996C8.99953 11.4496 9.44953 10.9996 9.99953 10.9996C10.5495 10.9996 10.9995 11.4496 10.9995 11.9996C10.9995 12.5496 10.5495 12.9996 9.99953 12.9996ZM11.9995 14.9996C11.4495 14.9996 10.9995 14.5496 10.9995 13.9996C10.9995 13.4496 11.4495 12.9996 11.9995 12.9996C12.5495 12.9996 12.9995 13.4496 12.9995 13.9996C12.9995 14.5496 12.5495 14.9996 11.9995 14.9996ZM13.9995 10.9996C14.5495 10.9996 14.9995 11.4496 14.9995 11.9996C14.9995 12.5496 14.5495 12.9996 13.9995 12.9996C13.4495 12.9996 12.9995 12.5496 12.9995 11.9996C12.9995 11.4496 13.4495 10.9996 13.9995 10.9996ZM16.6595 20.3396L13.0295 16.7196L16.6595 13.0896L20.2795 16.7096L16.6595 20.3396Z" fill="#757A93"/>
</g>
<defs>
<clipPath id="clip0_13178_285997">
<rect width="24" height="24" fill="white"/>
</clipPath>
</defs>
</svg>
