<svg width="24" height="24" viewBox="0 0 24 24" fill="none" xmlns="http://www.w3.org/2000/svg">
<g clip-path="url(#clip0_13178_286000)">
<path d="M21.9004 21.8996L15.8004 15.7996L13.1104 13.1096L5.00043 4.99961L3.59043 3.58961L2.10043 2.09961L0.69043 3.50961L3.00043 5.82961V18.9996C3.00043 20.0996 3.90043 20.9996 5.00043 20.9996H18.1704L20.4804 23.3096L21.9004 21.8996ZM5.00043 18.9996V7.82961L11.8404 14.6696L11.0004 15.7196L9.00043 12.9996L6.00043 16.9996H14.1704L16.1704 18.9996H5.00043ZM7.83043 4.99961L5.83043 2.99961H19.0004C20.1004 2.99961 21.0004 3.89961 21.0004 4.99961V18.1696L19.0004 16.1696V4.99961H7.83043Z" fill="#757A93"/>
</g>
<defs>
<clipPath id="clip0_13178_286000">
<rect width="24" height="24" fill="white"/>
</clipPath>
</defs>
</svg>
