<svg width="24" height="19" viewBox="0 0 24 19" fill="none" xmlns="http://www.w3.org/2000/svg">
<path d="M24 11.9994C24 9.35938 21.95 7.21938 19.35 7.03938C18.67 3.58938 15.64 0.999375 12 0.999375C10.67 0.999375 9.43 1.35937 8.35 1.96937L9.84 3.45938C10.51 3.16938 11.23 2.99938 12 2.99938C15.04 2.99938 17.5 5.45938 17.5 8.49938V8.99938H19C20.66 8.99938 22 10.3394 22 11.9994C22 12.9894 21.52 13.8494 20.79 14.3994L22.2 15.8094C23.29 14.8894 24 13.5394 24 11.9994ZM4.41 0.859375L3 2.26938L5.77 5.03938H5.35C2.34 5.35938 0 7.90938 0 10.9994C0 14.3094 2.69 16.9994 6 16.9994H17.73L19.73 18.9994L21.14 17.5894L4.41 0.859375ZM6 14.9994C3.79 14.9994 2 13.2094 2 10.9994C2 8.78938 3.79 6.99938 6 6.99938H7.73L15.73 14.9994H6Z" fill="#757A93"/>
</svg>
