<svg width="24" height="24" viewBox="0 0 24 24" fill="none" xmlns="http://www.w3.org/2000/svg">
<g clip-path="url(#clip0_13178_285133)">
<path d="M17.3366 1.80957L21.9436 5.65457L20.6636 7.18957L16.0536 3.34657L17.3366 1.80957ZM6.66264 1.80957L7.94464 3.34557L3.33664 7.18957L2.05664 5.65357L6.66264 1.80957ZM11.9996 3.99957C7.02964 3.99957 2.99964 8.02957 2.99964 12.9996C2.99964 17.9696 7.02964 21.9996 11.9996 21.9996C16.9696 21.9996 20.9996 17.9696 20.9996 12.9996C20.9996 8.02957 16.9696 3.99957 11.9996 3.99957ZM11.9996 19.9996C8.13964 19.9996 4.99964 16.8596 4.99964 12.9996C4.99964 9.13957 8.13964 5.99957 11.9996 5.99957C15.8596 5.99957 18.9996 9.13957 18.9996 12.9996C18.9996 16.8596 15.8596 19.9996 11.9996 19.9996ZM12.9996 8.99957H10.9996V11.9996H7.99964V13.9996H10.9996V16.9996H12.9996V13.9996H15.9996V11.9996H12.9996V8.99957Z" fill="#757A93"/>
</g>
<defs>
<clipPath id="clip0_13178_285133">
<rect width="24" height="24" fill="white"/>
</clipPath>
</defs>
</svg>
