<svg width="24" height="24" viewBox="0 0 24 24" fill="none" xmlns="http://www.w3.org/2000/svg">
<g clip-path="url(#clip0_13178_285305)">
<path d="M14 2H6C4.9 2 4 2.9 4 4V20C4 21.1 4.89 22 5.99 22H18C19.1 22 20 21.1 20 20V8L14 2ZM18 20H6V4H13V9H18V20Z" fill="#757A93"/>
<path d="M9.03043 11.0304C7.66043 12.4004 7.66043 14.6104 9.03043 15.9804C10.1504 17.1004 11.8304 17.2904 13.1604 16.5704L15.0404 18.4504L16.4504 17.0404L14.5704 15.1604C15.2804 13.8304 15.1004 12.1504 13.9804 11.0304C12.6104 9.66043 10.3904 9.66043 9.03043 11.0304ZM12.5604 14.5604C11.9704 15.1504 11.0204 15.1504 10.4404 14.5604C9.85043 13.9704 9.85043 13.0204 10.4404 12.4404C11.0304 11.8504 11.9804 11.8504 12.5604 12.4404C13.1504 13.0304 13.1504 13.9704 12.5604 14.5604Z" fill="#757A93"/>
</g>
<defs>
<clipPath id="clip0_13178_285305">
<rect width="24" height="24" fill="white"/>
</clipPath>
</defs>
</svg>
