<svg width="24" height="24" viewBox="0 0 24 24" fill="none" xmlns="http://www.w3.org/2000/svg">
<g clip-path="url(#clip0_13178_285475)">
<path d="M6.02965 3.19973C7.14965 2.43973 8.50965 1.99973 9.99965 1.99973C13.9296 1.99973 16.9996 5.06973 16.9996 8.99973C16.9996 10.2597 16.6196 11.6497 15.9296 12.8997C15.9096 12.9397 15.8796 12.9797 15.8496 13.0297L14.3696 11.5497C14.7696 10.6897 14.9996 9.79973 14.9996 8.99973C14.9996 6.19973 12.7996 3.99973 9.99965 3.99973C9.07965 3.99973 8.23965 4.25973 7.49965 4.66973L6.02965 3.19973ZM17.2096 14.3797L18.6396 15.8097C20.1096 13.9297 20.9996 11.5697 20.9996 8.99973C20.9996 5.95973 19.7696 3.20973 17.7796 1.21973L16.3596 2.63973C17.9896 4.25973 18.9996 6.50973 18.9996 8.99973C18.9996 11.0197 18.3296 12.8797 17.2096 14.3797ZM9.99965 6.49973C9.78965 6.49973 9.59965 6.52973 9.40965 6.57973L12.4196 9.58973C12.4696 9.39973 12.4996 9.20973 12.4996 8.99973C12.4996 7.61973 11.3796 6.49973 9.99965 6.49973ZM21.1896 21.1897L2.80965 2.80973L1.38965 4.21973L3.51965 6.34973C3.18965 7.15973 2.99965 8.04973 2.99965 8.99973H4.99965C4.99965 8.63973 5.04965 8.28973 5.11965 7.94973L11.7296 14.5597C10.8496 15.2397 9.94965 15.9697 9.45965 17.4597C8.95965 18.9597 8.45965 19.4697 7.74965 19.8397C7.55965 19.9397 7.28965 19.9997 6.99965 19.9997C5.89965 19.9997 4.99965 19.0997 4.99965 17.9997H2.99965C2.99965 20.2097 4.78965 21.9997 6.99965 21.9997C7.56965 21.9997 8.12965 21.8797 8.63965 21.6497C9.99965 20.9397 10.7696 19.9197 11.3696 18.0997C11.6896 17.1197 12.2696 16.6697 13.0796 16.0497C13.1096 16.0297 13.1296 16.0097 13.1596 15.9897L19.7796 22.6097L21.1896 21.1897Z" fill="#757A93"/>
</g>
<defs>
<clipPath id="clip0_13178_285475">
<rect width="24" height="24" fill="white"/>
</clipPath>
</defs>
</svg>
