<svg width="24" height="24" viewBox="0 0 24 24" fill="none" xmlns="http://www.w3.org/2000/svg">
<g clip-path="url(#clip0_13178_285516)">
<path d="M8.99966 10.9996H12.6297L8.99966 15.1996V16.9996H14.9997V14.9996H11.3697L14.9997 10.7996V8.99957H8.99966V10.9996ZM16.0557 3.34557L17.3377 1.81057L21.9447 5.66057L20.6647 7.20057L16.0557 3.34557ZM3.33566 7.18957L2.05566 5.65357L6.66166 1.80957L7.94166 3.34557L3.33566 7.18957ZM11.9997 5.99957C15.8597 5.99957 18.9997 9.13957 18.9997 12.9996C18.9997 16.8596 15.8597 19.9996 11.9997 19.9996C8.13966 19.9996 4.99966 16.8596 4.99966 12.9996C4.99966 9.13957 8.13966 5.99957 11.9997 5.99957ZM11.9997 3.99957C7.02966 3.99957 2.99966 8.02957 2.99966 12.9996C2.99966 17.9696 7.02966 21.9996 11.9997 21.9996C16.9697 21.9996 20.9997 17.9696 20.9997 12.9996C20.9997 8.02957 16.9697 3.99957 11.9997 3.99957Z" fill="#757A93"/>
</g>
<defs>
<clipPath id="clip0_13178_285516">
<rect width="24" height="24" fill="white"/>
</clipPath>
</defs>
</svg>
