<svg width="24" height="24" viewBox="0 0 24 24" fill="none" xmlns="http://www.w3.org/2000/svg">
<g clip-path="url(#clip0_13178_286349)">
<path d="M6.97965 4.15C6.98965 4.15 6.98965 4.14 6.99965 4.14V2H9.99965V4H13.9996V2H16.9996V4.14C18.7196 4.59 19.9996 6.14 19.9996 8V17.17L17.9996 15.17V8C17.9996 6.9 17.0996 6 15.9996 6H8.82965L6.97965 4.15ZM14.8296 12L16.4996 13.67V12H14.8296ZM19.7796 22.61L18.9296 21.76C18.6496 21.91 18.3396 22 17.9996 22H5.99965C4.89965 22 3.99965 21.1 3.99965 20V8C3.99965 7.64 4.05965 7.31 4.14965 6.98L1.38965 4.22L2.79965 2.81L21.1796 21.19L19.7796 22.61ZM17.1696 20L11.1696 14H7.49965V12H9.16965L5.99965 8.83V20H17.1696Z" fill="#757A93"/>
</g>
<defs>
<clipPath id="clip0_13178_286349">
<rect width="24" height="24" fill="white"/>
</clipPath>
</defs>
</svg>
