<svg width="24" height="24" viewBox="0 0 24 24" fill="none" xmlns="http://www.w3.org/2000/svg">
<g clip-path="url(#clip0_13178_286352)">
<path d="M20.4004 5.6H22.0004L19.0004 11V7H18.0004V2H22.0004L20.4004 5.6ZM16.0004 11.4V13.17L18.0004 15.17V11C18.0004 10.12 17.2804 9.4 16.4004 9.4H13.8604L12.5804 8H10.8304L14.2304 11.4H16.0004ZM2.10043 2.1L0.69043 3.51L6.35043 9.17L6.14043 9.4H3.60043C2.72043 9.4 2.00043 10.12 2.00043 11V20.4C2.00043 21.28 2.72043 22 3.60043 22H16.4004C17.1504 22 17.7804 21.48 17.9504 20.78L20.4904 23.32L21.9004 21.91L2.10043 2.1ZM11.5004 15.5C11.5004 16.33 10.8304 17 10.0004 17C9.17043 17 8.50043 16.33 8.50043 15.5C8.50043 14.67 9.17043 14 10.0004 14C10.8304 14 11.5004 14.67 11.5004 15.5ZM15.9604 20H4.00043V11.4H6.14043H7.02043L7.61043 10.75L7.76043 10.59L9.26043 12.09C7.68043 12.43 6.50043 13.82 6.50043 15.5C6.50043 17.43 8.07043 19 10.0004 19C11.6804 19 13.0704 17.82 13.4204 16.24L15.9704 18.79L15.9604 20Z" fill="#757A93"/>
</g>
<defs>
<clipPath id="clip0_13178_286352">
<rect width="24" height="24" fill="white"/>
</clipPath>
</defs>
</svg>
