<svg width="24" height="24" viewBox="0 0 24 24" fill="none" xmlns="http://www.w3.org/2000/svg">
<g clip-path="url(#clip0_13178_286356)">
<path d="M7.99965 19.9996C7.99965 21.0996 7.09965 21.9996 5.99965 21.9996C4.89965 21.9996 3.99965 21.0996 3.99965 19.9996C3.99965 18.8996 4.89965 17.9996 5.99965 17.9996C7.09965 17.9996 7.99965 18.8996 7.99965 19.9996ZM14.9996 8.65957V12.1696L16.9996 14.1696V6.26957C17.5796 5.58957 17.9696 4.99957 18.6496 4.99957C19.4196 4.99957 19.9996 5.65957 19.9996 6.47957V6.99957H21.9996V6.47957C21.9996 4.55957 20.5196 2.99957 18.6496 2.99957C16.9896 2.99957 16.1096 4.26957 15.4696 5.02957L11.9696 9.13957L13.3896 10.5596L14.9996 8.65957ZM19.7796 22.6096L17.8696 20.6996C17.5796 21.4596 16.8596 21.9996 15.9996 21.9996C14.8996 21.9996 13.9996 21.0996 13.9996 19.9996C13.9996 19.1396 14.5396 18.4196 15.2996 18.1296L14.1696 16.9996H7.42965C6.57965 16.9996 6.11965 15.9996 6.66965 15.3496L9.35965 12.1896L1.38965 4.21957L2.79965 2.80957L10.6596 10.6696L12.0796 12.0896L21.1896 21.1996L19.7796 22.6096ZM12.1696 14.9996L10.7796 13.6096L9.59965 14.9996H12.1696ZM9.99965 4.99957C10.2896 4.99957 10.5796 5.01957 10.8596 5.04957L9.48965 6.66957L10.9096 8.08957L14.2996 4.09957C13.0296 3.39957 11.5596 2.99957 9.99965 2.99957C8.76965 2.99957 7.59965 3.24957 6.52965 3.69957L8.09965 5.26957C8.70965 5.09957 9.34965 4.99957 9.99965 4.99957Z" fill="#757A93"/>
</g>
<defs>
<clipPath id="clip0_13178_286356">
<rect width="24" height="24" fill="white"/>
</clipPath>
</defs>
</svg>
