<svg width="24" height="24" viewBox="0 0 24 24" fill="none" xmlns="http://www.w3.org/2000/svg">
<g clip-path="url(#clip0_13178_285981)">
<path d="M18.6998 12.3996C18.4198 12.2396 18.1298 12.1096 17.8398 11.9996C18.1298 11.8896 18.4198 11.7596 18.6998 11.5996C20.6198 10.4896 21.6898 8.47957 21.6998 6.40957C20.7898 5.88957 19.7498 5.60957 18.6898 5.60957C17.6698 5.60957 16.6398 5.86957 15.6998 6.40957C15.4198 6.56957 15.1598 6.75957 14.9198 6.94957C14.9698 6.63957 14.9998 6.31957 14.9998 5.99957C14.9998 3.77957 13.7898 1.84957 11.9998 0.80957C10.2098 1.84957 8.9998 3.77957 8.9998 5.99957C8.9998 6.31957 9.0298 6.63957 9.0798 6.94957C8.8398 6.74957 8.5798 6.55957 8.2998 6.39957C7.3598 5.85957 6.3298 5.59957 5.3098 5.59957C4.2598 5.59957 3.2098 5.87957 2.2998 6.39957C2.2998 8.46957 3.3698 10.4796 5.2998 11.5896C5.5798 11.7496 5.8698 11.8796 6.1598 11.9896C5.8698 12.0996 5.5798 12.2296 5.2998 12.3896C3.3798 13.4996 2.3098 15.5096 2.2998 17.5796C3.2098 18.0996 4.2498 18.3796 5.3098 18.3796C6.3298 18.3796 7.3598 18.1196 8.2998 17.5796C8.5798 17.4196 8.8398 17.2296 9.0798 17.0396C9.0298 17.3596 8.9998 17.6796 8.9998 17.9996C8.9998 20.2196 10.2098 22.1496 11.9998 23.1896C13.7898 22.1496 14.9998 20.2196 14.9998 17.9996C14.9998 17.6796 14.9698 17.3596 14.9198 17.0496C15.1598 17.2496 15.4198 17.4296 15.6998 17.5896C16.6398 18.1296 17.6698 18.3896 18.6898 18.3896C19.7398 18.3896 20.7898 18.1096 21.6998 17.5896C21.6898 15.5196 20.6198 13.5096 18.6998 12.3996ZM16.1598 8.51957C16.3698 8.34957 16.5398 8.22957 16.6998 8.14957C17.3098 7.79957 17.9998 7.60957 18.6998 7.60957C18.9698 7.60957 19.2298 7.63957 19.4898 7.68957C19.1798 8.59957 18.5498 9.37957 17.7098 9.86957C17.5398 9.96957 17.3498 10.0496 17.1298 10.1396L15.7498 10.6596C15.5798 10.1996 15.3398 9.78957 15.0298 9.41957L16.1598 8.51957ZM11.9998 3.36957C12.6298 4.08957 12.9998 5.02957 12.9998 5.99957C12.9998 6.18957 12.9798 6.40957 12.9498 6.62957L12.7198 8.06957C12.4798 8.02957 12.2398 7.99957 11.9998 7.99957C11.7598 7.99957 11.5198 8.02957 11.2898 8.06957L11.0598 6.62957C11.0198 6.40957 10.9998 6.18957 10.9998 5.99957C10.9998 5.01957 11.3698 4.08957 11.9998 3.36957ZM4.5098 7.67957C4.7698 7.61957 5.0398 7.59957 5.3098 7.59957C5.9998 7.59957 6.6898 7.77957 7.2998 8.13957C7.4498 8.22957 7.6198 8.33957 7.7898 8.48957L8.9398 9.44957C8.6398 9.80957 8.4098 10.2096 8.2398 10.6496L6.85981 10.1296C6.64981 10.0396 6.4598 9.94957 6.2998 9.85957C5.4298 9.35957 4.8098 8.58957 4.5098 7.67957ZM7.8398 15.4696C7.6298 15.6396 7.4598 15.7596 7.2998 15.8396C6.6898 16.1896 5.9998 16.3796 5.2998 16.3796C5.0298 16.3796 4.7698 16.3496 4.5098 16.2996C4.8198 15.3896 5.4498 14.6096 6.2898 14.1196C6.4598 14.0196 6.6498 13.9396 6.8698 13.8496L8.2498 13.3296C8.4098 13.7896 8.6598 14.2096 8.9698 14.5696L7.8398 15.4696ZM11.9998 20.6296C11.3698 19.9096 10.9998 18.9696 10.9998 17.9996C10.9998 17.7996 11.0198 17.5896 11.0598 17.3496L11.2798 15.9296C11.5098 15.9696 11.7498 15.9996 11.9998 15.9996C12.2398 15.9996 12.4798 15.9696 12.7098 15.9296L12.9398 17.3696C12.9798 17.5896 12.9998 17.8096 12.9998 17.9996C12.9998 18.9796 12.6298 19.9096 11.9998 20.6296ZM18.6898 16.3896C17.9998 16.3896 17.3098 16.2096 16.6998 15.8496C16.5198 15.7496 16.3598 15.6296 16.2098 15.5096L15.0598 14.5496C15.3598 14.1896 15.5998 13.7896 15.7598 13.3396L17.1398 13.8596C17.3598 13.9396 17.5498 14.0296 17.7098 14.1196C18.5598 14.6096 19.1798 15.3896 19.4898 16.2996C19.2198 16.3696 18.9498 16.3896 18.6898 16.3896Z" fill="#757A93"/>
</g>
<defs>
<clipPath id="clip0_13178_285981">
<rect width="24" height="24" fill="white"/>
</clipPath>
</defs>
</svg>
