<svg width="24" height="24" viewBox="0 0 24 24" fill="none" xmlns="http://www.w3.org/2000/svg">
<g clip-path="url(#clip0_13178_285594)">
<path d="M17.3396 14.5396L15.9096 13.1096C16.4696 12.3796 16.9596 11.6096 17.3796 10.7896L15.1796 8.58957C14.8996 8.30957 14.8196 7.91957 14.9296 7.56957C15.2996 6.44957 15.4996 5.24957 15.4996 3.99957C15.4996 3.44957 15.9496 2.99957 16.4996 2.99957H19.9996C20.5496 2.99957 20.9996 3.44957 20.9996 3.99957C20.9996 7.97957 19.6296 11.6396 17.3396 14.5396ZM14.5196 17.3496C11.6296 19.6396 7.96965 20.9996 3.99965 20.9996C3.44965 20.9996 2.99965 20.5496 2.99965 19.9996V16.5096C2.99965 15.9596 3.44965 15.5096 3.99965 15.5096C5.23965 15.5096 6.44965 15.3096 7.56965 14.9396C7.66965 14.8996 7.77965 14.8896 7.87965 14.8896C8.13965 14.8896 8.38965 14.9896 8.58965 15.1796L10.7896 17.3796C11.5996 16.9596 12.3696 16.4796 13.0896 15.9196L1.38965 4.21957L2.80965 2.80957L21.1896 21.1996L19.7796 22.6096L14.5196 17.3496ZM7.59965 17.0196C6.74965 17.2596 5.87965 17.4096 4.99965 17.4696V18.9596C6.31965 18.8696 7.58965 18.6096 8.79965 18.2096L7.59965 17.0196ZM17.4596 4.99957C17.3996 5.88957 17.2496 6.75957 17.0096 7.58957L18.2096 8.78957C18.6196 7.58957 18.8796 6.31957 18.9696 4.99957H17.4596Z" fill="#757A93"/>
</g>
<defs>
<clipPath id="clip0_13178_285594">
<rect width="24" height="24" fill="white"/>
</clipPath>
</defs>
</svg>
