<svg width="24" height="24" viewBox="0 0 24 24" fill="none" xmlns="http://www.w3.org/2000/svg">
<g clip-path="url(#clip0_13178_285701)">
<path d="M20.0004 8.69043V4.00043H15.3104L12.0004 0.69043L8.69043 4.00043H4.00043V8.69043L0.69043 12.0004L4.00043 15.3104V20.0004H8.69043L12.0004 23.3104L15.3104 20.0004H20.0004V15.3104L23.3104 12.0004L20.0004 8.69043ZM18.0004 14.4804V18.0004H14.4804L12.0004 20.4804L9.52043 18.0004H6.00043V14.4804L3.52043 12.0004L6.00043 9.52043V6.00043H9.52043L12.0004 3.52043L14.4804 6.00043H18.0004V9.52043L20.4804 12.0004L18.0004 14.4804ZM12.0004 6.00043C8.69043 6.00043 6.00043 8.69043 6.00043 12.0004C6.00043 15.3104 8.69043 18.0004 12.0004 18.0004C15.3104 18.0004 18.0004 15.3104 18.0004 12.0004C18.0004 8.69043 15.3104 6.00043 12.0004 6.00043ZM12.0004 16.0004C9.79043 16.0004 8.00043 14.2104 8.00043 12.0004C8.00043 9.79043 9.79043 8.00043 12.0004 8.00043C14.2104 8.00043 16.0004 9.79043 16.0004 12.0004C16.0004 14.2104 14.2104 16.0004 12.0004 16.0004Z" fill="#757A93"/>
<path d="M12 14.5C13.3807 14.5 14.5 13.3807 14.5 12C14.5 10.6193 13.3807 9.5 12 9.5C10.6193 9.5 9.5 10.6193 9.5 12C9.5 13.3807 10.6193 14.5 12 14.5Z" fill="#757A93"/>
</g>
<defs>
<clipPath id="clip0_13178_285701">
<rect width="24" height="24" fill="white"/>
</clipPath>
</defs>
</svg>
