<svg width="24" height="24" viewBox="0 0 24 24" fill="none" xmlns="http://www.w3.org/2000/svg">
<g clip-path="url(#clip0_13178_285571)">
<path d="M12.0002 5.09953V9.14953L19.4002 16.5495C20.5502 13.6695 19.9902 10.2695 17.6502 7.93953L12.0002 2.26953L8.56024 5.70953L9.97023 7.11953L12.0002 5.09953ZM4.40023 4.36953L2.99023 5.77953L5.77023 8.55953C3.23023 11.6995 3.42023 16.3095 6.34023 19.2395C7.90023 20.7995 9.95023 21.5795 12.0002 21.5795C13.7802 21.5795 15.5602 20.9895 17.0202 19.8095L19.7202 22.5095L21.1302 21.0995L4.40023 4.36953ZM12.0002 19.5895C10.4002 19.5895 8.89023 18.9695 7.76023 17.8295C6.62023 16.6895 6.00023 15.1895 6.00023 13.5895C6.00023 12.2695 6.43023 11.0295 7.21023 9.99953L12.0002 14.7895V19.5895Z" fill="#757A93"/>
</g>
<defs>
<clipPath id="clip0_13178_285571">
<rect width="24" height="24" fill="white"/>
</clipPath>
</defs>
</svg>
