<svg width="24" height="24" viewBox="0 0 24 24" fill="none" xmlns="http://www.w3.org/2000/svg">
<g clip-path="url(#clip0_13178_286462)">
<path d="M16.5 4.37988C17.6046 4.37988 18.5 3.48445 18.5 2.37988C18.5 1.27531 17.6046 0.379883 16.5 0.379883C15.3954 0.379883 14.5 1.27531 14.5 2.37988C14.5 3.48445 15.3954 4.37988 16.5 4.37988Z" fill="#757A93"/>
<path d="M23.9996 11.8794V7.1794L18.9496 5.0394C17.9796 4.6294 16.8596 4.9794 16.2996 5.8794L15.2996 7.4794C14.6296 8.6594 13.3896 9.5394 11.8896 9.7994L11.9496 9.8594C12.6396 10.5494 13.4696 10.9294 14.4096 11.0294C15.2096 10.6094 15.9296 10.0494 16.4996 9.3894L17.0996 12.3894L15.9396 13.4894L14.9996 14.3794V15.1394V21.8794H16.9996V15.8794L19.0996 13.8794L20.8996 21.8794H22.9996L20.8196 10.8794L20.1996 7.7794L21.9996 8.4794V11.8794H23.9996Z" fill="#757A93"/>
<path d="M10.2895 8.09016C10.5095 8.24016 10.7595 8.33016 11.0095 8.38016C11.1395 8.40016 11.2595 8.42016 11.3895 8.42016C11.5195 8.42016 11.6495 8.41016 11.7695 8.38016C11.8995 8.36016 12.0195 8.32016 12.1395 8.27016C12.3795 8.17016 12.6095 8.03016 12.7995 7.83016C13.2895 7.34016 13.4695 6.66016 13.3495 6.03016C13.2795 5.66016 13.0995 5.29016 12.7995 5.00016C12.6095 4.81016 12.3795 4.66016 12.1395 4.56016C12.0195 4.51016 11.8995 4.47016 11.7695 4.45016C11.6395 4.43016 11.5195 4.41016 11.3895 4.41016C11.2695 4.41016 11.1595 4.42016 11.0395 4.44016C10.8995 4.46016 10.7595 4.50016 10.6295 4.55016C10.3995 4.66016 10.1695 4.81016 9.97947 5.00016C9.67947 5.29016 9.49948 5.66016 9.42948 6.03016C9.30948 6.66016 9.48947 7.34016 9.97947 7.83016C10.0695 7.93016 10.1795 8.01016 10.2895 8.09016Z" fill="#757A93"/>
<path d="M11.2398 10.5595L9.2398 8.55949C9.1398 8.45949 9.0398 8.37949 8.9298 8.29949C8.7098 8.15949 8.4598 8.05949 8.2098 8.01949C8.0798 7.98949 7.9598 7.97949 7.8298 7.97949C7.3198 7.97949 6.8098 8.17949 6.4198 8.56949L3.0798 11.9095C2.6698 12.3195 2.4598 12.8895 2.4998 13.4495C2.4998 13.6295 2.5398 13.8195 2.6098 13.9995L3.6798 16.9495L0.0498047 20.5795L1.4598 21.9995L5.6998 17.7595V15.5395L6.9998 16.7495V21.8795H8.9998V15.8795L6.8798 13.7595L9.2398 11.3995L9.9498 12.1095C11.2398 13.3695 12.9198 14.1495 14.9798 14.1495L14.8398 12.0795C13.3398 12.0595 12.1398 11.4595 11.2398 10.5595Z" fill="#757A93"/>
</g>
<defs>
<clipPath id="clip0_13178_286462">
<rect width="24" height="24" fill="white"/>
</clipPath>
</defs>
</svg>
