<svg width="24" height="24" viewBox="0 0 24 24" fill="none" xmlns="http://www.w3.org/2000/svg">
<g clip-path="url(#clip0_13178_285456)">
<path d="M12.9996 9.99957C12.9996 9.44957 13.4496 8.99957 13.9996 8.99957H16.9996C17.5496 8.99957 17.9996 9.44957 17.9996 9.99957V10.9996H16.4996V10.4996H14.4996V11.4996L12.9996 9.99957ZM16.4996 13.4996L17.7096 14.7096C17.8896 14.5196 17.9996 14.2696 17.9996 13.9996V12.9996H16.4996V13.4996ZM8.82965 5.99957H18.9996V16.1696L20.9796 18.1496C20.9796 18.0996 20.9996 18.0496 20.9996 17.9896V5.99957C20.9996 4.89957 20.0996 3.99957 18.9996 3.99957H6.82965L8.82965 5.99957ZM19.7796 22.6096L17.1696 19.9996H4.99965C3.88965 19.9996 2.99965 19.0996 2.99965 17.9996V5.99957C2.99965 5.94957 3.01965 5.89957 3.01965 5.84957L1.38965 4.21957L2.79965 2.80957L21.1796 21.1896L19.7796 22.6096ZM7.49965 13.4996H9.49965V12.9996H10.1696L7.66965 10.4996H7.49965V13.4996ZM15.1696 17.9996L10.9996 13.8296V13.9996C10.9996 14.5496 10.5496 14.9996 9.99965 14.9996H6.99965C6.44965 14.9996 5.99965 14.5496 5.99965 13.9996V9.99957C5.99965 9.67957 6.15965 9.40957 6.39965 9.21957L4.99965 7.82957V17.9996H15.1696Z" fill="#757A93"/>
</g>
<defs>
<clipPath id="clip0_13178_285456">
<rect width="24" height="24" fill="white"/>
</clipPath>
</defs>
</svg>
