<svg width="24" height="24" viewBox="0 0 24 24" fill="none" xmlns="http://www.w3.org/2000/svg">
<g clip-path="url(#clip0_13178_285469)">
<path d="M18 13C18 16.31 15.31 19 12 19C8.69 19 6 16.31 6 13C6 9.69 8.69 7 12 7V11L17 6L12 1V5C7.58 5 4 8.58 4 13C4 17.42 7.58 21 12 21C16.42 21 20 17.42 20 13H18Z" fill="#757A93"/>
<path d="M10.9 16.0005V11.7305H10.81L9.04004 12.3605V13.0505L10.05 12.7405V16.0005H10.9Z" fill="#757A93"/>
<path d="M14.3198 11.7797C14.1398 11.7097 13.9498 11.6797 13.7298 11.6797C13.5098 11.6797 13.3198 11.7097 13.1398 11.7797C12.9598 11.8497 12.8098 11.9597 12.6898 12.1097C12.5698 12.2597 12.4598 12.4497 12.3998 12.6797C12.3398 12.9097 12.2998 13.1797 12.2998 13.4997V14.2397C12.2998 14.5597 12.3398 14.8397 12.4098 15.0597C12.4798 15.2797 12.5798 15.4797 12.7098 15.6297C12.8398 15.7797 12.9898 15.8897 13.1698 15.9597C13.3498 16.0297 13.5398 16.0597 13.7598 16.0597C13.9798 16.0597 14.1698 16.0297 14.3498 15.9597C14.5298 15.8897 14.6798 15.7797 14.7998 15.6297C14.9198 15.4797 15.0198 15.2897 15.0898 15.0597C15.1598 14.8297 15.1898 14.5597 15.1898 14.2397V13.4997C15.1898 13.1797 15.1498 12.8997 15.0798 12.6797C15.0098 12.4597 14.9098 12.2597 14.7798 12.1097C14.6498 11.9597 14.4898 11.8497 14.3198 11.7797ZM14.3298 14.3497C14.3298 14.5397 14.3198 14.6997 14.2898 14.8297C14.2598 14.9597 14.2298 15.0697 14.1798 15.1497C14.1298 15.2297 14.0698 15.2897 13.9898 15.3197C13.9098 15.3497 13.8298 15.3697 13.7398 15.3697C13.6498 15.3697 13.5598 15.3497 13.4898 15.3197C13.4198 15.2897 13.3498 15.2297 13.2998 15.1497C13.2498 15.0697 13.2098 14.9597 13.1798 14.8297C13.1498 14.6997 13.1398 14.5397 13.1398 14.3497V13.3797C13.1398 13.1897 13.1498 13.0297 13.1798 12.8997C13.2098 12.7697 13.2398 12.6697 13.2998 12.5897C13.3598 12.5097 13.4098 12.4497 13.4898 12.4197C13.5698 12.3897 13.6498 12.3697 13.7398 12.3697C13.8298 12.3697 13.9198 12.3897 13.9898 12.4197C14.0598 12.4497 14.1298 12.5097 14.1798 12.5897C14.2298 12.6697 14.2698 12.7697 14.2998 12.8997C14.3298 13.0297 14.3398 13.1897 14.3398 13.3797V14.3497H14.3298Z" fill="#757A93"/>
</g>
<defs>
<clipPath id="clip0_13178_285469">
<rect width="24" height="24" fill="white"/>
</clipPath>
</defs>
</svg>
