<svg width="24" height="24" viewBox="0 0 24 24" fill="none" xmlns="http://www.w3.org/2000/svg">
<g clip-path="url(#clip0_13178_285433)">
<path d="M12.4996 8.00055H10.9996V14.0005L15.7496 16.8505L16.4996 15.6205L12.4996 13.2505V8.00055ZM17.3366 1.81055L21.9436 5.65555L20.6636 7.19055L16.0536 3.34755L17.3366 1.81055ZM6.66264 1.81055L7.94464 3.34655L3.33664 7.19055L2.05664 5.65455L6.66264 1.81055ZM11.9996 4.00055C7.02964 4.00055 2.99964 8.03055 2.99964 13.0005C2.99964 17.9705 7.02964 22.0005 11.9996 22.0005C16.9696 22.0005 20.9996 17.9705 20.9996 13.0005C20.9996 8.03055 16.9696 4.00055 11.9996 4.00055ZM11.9996 20.0005C8.13964 20.0005 4.99964 16.8605 4.99964 13.0005C4.99964 9.14055 8.13964 6.00055 11.9996 6.00055C15.8596 6.00055 18.9996 9.14055 18.9996 13.0005C18.9996 16.8605 15.8596 20.0005 11.9996 20.0005Z" fill="#757A93"/>
</g>
<defs>
<clipPath id="clip0_13178_285433">
<rect width="24" height="24" fill="white"/>
</clipPath>
</defs>
</svg>
