<svg width="24" height="24" viewBox="0 0 24 24" fill="none" xmlns="http://www.w3.org/2000/svg">
<g clip-path="url(#clip0_13178_285134)">
<path d="M10.0404 6.28957C10.6604 6.10957 11.3204 5.99957 12.0004 5.99957C15.8604 5.99957 19.0004 9.13957 19.0004 12.9996C19.0004 13.6796 18.8904 14.3396 18.7104 14.9596L20.2704 16.5196C20.7404 15.4396 21.0004 14.2496 21.0004 12.9996C21.0004 8.02957 16.9704 3.99957 12.0004 3.99957C10.7504 3.99957 9.56035 4.25957 8.47035 4.71957L10.0404 6.28957ZM17.3374 1.80957L21.9444 5.65457L20.6644 7.18957L16.0544 3.34657L17.3374 1.80957ZM3.02035 2.09957L1.61035 3.50957L2.98035 4.87957L2.06035 5.64957L3.34035 7.18957L4.40035 6.30957L5.20035 7.10957C3.83035 8.68957 3.00035 10.7496 3.00035 12.9996C3.00035 17.9696 7.03035 21.9996 12.0004 21.9996C14.2504 21.9996 16.3104 21.1696 17.8904 19.7996L19.9904 21.8996L21.4004 20.4896L3.02035 2.09957ZM12.0004 19.9996C8.14035 19.9996 5.00035 16.8596 5.00035 12.9996C5.00035 11.2996 5.61035 9.73957 6.62035 8.52957L16.4704 18.3796C15.2604 19.3896 13.7004 19.9996 12.0004 19.9996ZM7.48035 3.72957L7.94035 3.34957L6.66035 1.80957L6.06035 2.30957L7.48035 3.72957Z" fill="#757A93"/>
</g>
<defs>
<clipPath id="clip0_13178_285134">
<rect width="24" height="24" fill="white"/>
</clipPath>
</defs>
</svg>
