<svg width="24" height="24" viewBox="0 0 24 24" fill="none" xmlns="http://www.w3.org/2000/svg">
<g clip-path="url(#clip0_13178_286256)">
<path d="M21.71 11.2896L12.71 2.28957C12.32 1.89957 11.69 1.89957 11.3 2.28957L8.20996 5.37957L9.61996 6.78957L12 4.41957L19.58 11.9996L17.2 14.3796L18.61 15.7896L21.7 12.6996C22.1 12.3296 22.1 11.6996 21.71 11.2896Z" fill="#757A93"/>
<path d="M13 7.5V10.17L15.17 12.34L16.5 11L13 7.5Z" fill="#757A93"/>
<path d="M1.38965 4.21957L5.37965 8.20957L2.28965 11.2996C1.89965 11.6896 1.89965 12.3196 2.28965 12.7096L11.2896 21.7096C11.6796 22.0996 12.3096 22.0996 12.6996 21.7096L15.7896 18.6196L19.7796 22.6096L21.1896 21.1996L2.80965 2.80957L1.38965 4.21957ZM8.02965 10.8496C8.01965 10.8996 7.98965 10.9496 7.98965 10.9996V14.9996H9.98965V12.8196L14.3696 17.1996L11.9996 19.5796L4.41965 11.9996L6.79965 9.61957L8.02965 10.8496Z" fill="#757A93"/>
</g>
<defs>
<clipPath id="clip0_13178_286256">
<rect width="24" height="24" fill="white"/>
</clipPath>
</defs>
</svg>
