<svg width="16" height="16" viewBox="0 0 16 16" fill="none" xmlns="http://www.w3.org/2000/svg">
<g clip-path="url(#clip0_14093_283062)">
<mask id="path-1-outside-1_14093_283062" maskUnits="userSpaceOnUse" x="-1" y="-0.658203" width="18" height="17" fill="black">
<rect fill="white" x="-1" y="-0.658203" width="18" height="17"/>
<path d="M15.2264 8.90075L15.2031 8.87309C15.0915 8.73524 14.8476 8.53928 14.4917 8.40342L14.4372 8.38684C14.0666 8.21591 13.7308 8.10126 13.6323 8.06897C13.555 8.04354 13.4902 8.01588 13.4386 7.99339C13.0297 7.79169 12.9835 7.67385 12.9769 7.6556L12.9583 7.61223L12.974 7.57316C13.2778 7.19478 13.4913 6.75398 13.5726 6.33853L13.5845 6.3103C13.6684 6.20331 13.7221 6.0783 13.7434 5.94054C13.8401 5.59102 13.8441 5.33422 13.7574 5.1542L13.7497 5.13826L13.7536 5.12056C13.8615 4.66891 13.9654 3.82286 13.4469 3.23257C13.3642 3.12869 13.0463 2.77774 12.4297 2.59716L12.129 2.49415C11.6362 2.34235 11.3246 2.30584 11.2727 2.30496C11.2399 2.30496 11.2105 2.30895 11.1677 2.31836L11.1307 2.32577C11.109 2.32234 11.0864 2.32035 11.0611 2.32035C10.8961 2.32035 10.7178 2.39282 10.7178 2.39282C10.544 2.46585 9.66132 2.87301 9.3814 3.73811C9.33492 3.86105 9.24013 4.23488 9.36283 5.05263L9.36593 5.07288L9.3531 5.09002C9.22729 5.25952 9.21669 5.53425 9.32145 5.90346C9.34887 6.06698 9.40221 6.19765 9.48066 6.29603L9.49382 6.3237C9.57115 6.75199 9.76145 7.17397 10.0442 7.54486L10.0668 7.57483L10.0457 7.60481C10.0334 7.62307 10.0249 7.64188 10.0217 7.6556C9.97831 7.77941 9.64649 7.97546 9.13202 8.18147C9.01706 8.13977 8.93717 8.11354 8.90887 8.10413C8.80475 8.06929 8.71768 8.03198 8.64721 8.00113C8.10308 7.73261 8.03149 7.57603 8.02064 7.54007L7.9921 7.47645L8.01721 7.41738C8.42549 6.90865 8.71202 6.31628 8.82213 5.75565L8.83895 5.71714C8.95192 5.57364 9.02415 5.40582 9.05126 5.22293C9.18105 4.75525 9.18791 4.41116 9.07095 4.17118L9.05811 4.14575L9.06497 4.11833C9.21023 3.51169 9.34943 2.37672 8.65351 1.58608C8.54309 1.44767 8.1191 0.976892 7.29052 0.734366L6.88567 0.595404C6.20983 0.387719 5.7904 0.342355 5.73594 0.341797C5.69146 0.341797 5.65295 0.34666 5.59674 0.360054L5.54253 0.368904C5.31826 0.332628 5.04265 0.439062 4.99274 0.458515C4.75931 0.556419 3.5761 1.10366 3.20091 2.26375C3.1384 2.42806 3.01172 2.92914 3.17635 4.0268L3.18121 4.05989L3.16065 4.08731C2.9929 4.31158 2.98007 4.67824 3.1207 5.17326C3.15666 5.39123 3.22801 5.56527 3.33381 5.69857L3.35239 5.73763C3.45483 6.3123 3.71043 6.87979 4.09112 7.37943L4.12676 7.42591L4.0928 7.47502C4.07621 7.49925 4.06513 7.52413 4.06258 7.53975C3.96811 7.80883 2.91501 8.27929 1.99227 8.56096C1.32799 8.81266 1.03643 9.22037 1.03468 9.22292C0.119828 10.5811 0.00398628 13.4968 0 13.622C0.0142709 14.3805 0.358686 14.5345 0.424858 14.5567L0.483058 14.5822C2.50689 15.4653 5.46288 15.6373 5.79359 15.6542L5.89691 15.6573C5.99561 15.6573 6.09575 15.6518 6.18966 15.6467L6.19795 15.6464L6.22849 15.6487C6.25305 15.6547 6.27298 15.6579 6.29355 15.6579H6.29386L6.30782 15.6573C6.4416 15.6505 9.61532 15.4702 11.5958 14.5814C11.7039 14.5528 12.0532 14.4028 12.0846 13.6655C12.7908 13.6044 14.4802 13.4098 15.6275 12.8954C15.7125 12.8732 15.9907 12.755 16.0001 12.1561C15.9872 11.9258 15.8767 9.86799 15.2264 8.90075ZM4.3932 7.84303L4.44829 7.79169L4.50307 7.84303C4.98756 8.29954 5.52427 8.55036 6.01275 8.55036C6.52603 8.55036 7.05588 8.32776 7.54492 7.90609L7.5863 7.87125L7.69353 7.92379C7.78481 8.00679 7.94833 8.12606 8.02168 8.16201L8.12269 8.21136L8.11185 8.22165L8.15068 8.24501C8.24316 8.29954 8.34154 8.35288 8.45395 8.40877C8.5678 8.45923 8.66539 8.49718 8.76895 8.53146C8.7892 8.53832 9.27258 8.69442 9.82348 8.94946L9.92194 8.98C10.4455 9.17947 10.6669 9.46051 10.675 9.47015C11.4876 10.6765 11.6242 13.3095 11.6376 13.6039C11.6313 14.0154 11.5141 14.1221 11.4835 14.1426C9.66228 14.9578 6.91086 15.1698 6.37845 15.2038L6.36363 15.2047L6.34848 15.2001C6.33054 15.1947 6.3122 15.1922 6.2894 15.1922H6.28884L6.27003 15.193C6.12453 15.203 6.00414 15.2079 5.89165 15.2079H5.80347C5.47189 15.1878 2.50506 14.9936 0.606234 14.1487C0.567966 14.1328 0.455871 14.0032 0.44758 13.6248C0.447899 13.5966 0.545483 10.7545 1.39831 9.48761C1.44001 9.43507 1.67193 9.16488 2.13529 8.98797C2.54245 8.86272 3.5505 8.52859 4.10173 8.12941C4.12485 8.11545 4.14765 8.09201 4.1722 8.0669C4.21255 8.02337 4.29642 7.9332 4.3932 7.84303ZM10.0672 8.55435L9.99186 8.53234C9.86805 8.47526 9.73817 8.41881 9.60384 8.36372C9.79358 8.27499 9.94881 8.18793 10.0641 8.10381C10.0827 8.09297 10.1012 8.07416 10.1186 8.0559C10.1603 8.01109 10.2165 7.9509 10.2821 7.88959L10.3172 7.85738L10.3509 7.89023C10.7135 8.2309 11.1141 8.41777 11.4785 8.41777C11.8625 8.41777 12.2583 8.25171 12.6227 7.93727L12.6486 7.91526L12.7222 7.9509C12.7893 8.01341 12.9114 8.10126 12.9659 8.12837L13.0295 8.15859L13.0218 8.16632L13.0617 8.18968C13.1311 8.23106 13.2052 8.27044 13.2883 8.3115C13.3736 8.34913 13.4461 8.37767 13.5228 8.40334C13.5377 8.40821 13.894 8.52261 14.3061 8.71348L14.3785 8.73572C14.7537 8.87923 14.9169 9.07615 14.9326 9.09664C15.5389 9.99539 15.6368 11.9436 15.6457 12.1607C15.6414 12.462 15.5578 12.5391 15.5369 12.5527C14.3962 13.0632 12.7584 13.255 12.0697 13.3154C12.0077 12.4212 11.7869 10.3152 11.0502 9.21982L11.0191 9.18242C10.8698 8.99834 10.5428 8.73644 10.0672 8.55435ZM9.64059 5.29994L9.65343 5.28479C9.71107 5.24254 9.73929 5.17724 9.72845 5.10963C9.59148 4.28702 9.68053 3.94181 9.71107 3.85475C9.94993 3.12231 10.7012 2.78053 10.8489 2.72002C10.8786 2.70861 10.936 2.69147 10.9967 2.68119L11.015 2.67688L11.1283 2.6709L11.1291 2.67864L11.1634 2.67553C11.1888 2.67354 11.2133 2.66955 11.2304 2.6658L11.2687 2.65727C11.2929 2.65783 11.5896 2.69634 12.0197 2.8282L12.323 2.93233C12.8736 3.09497 13.1287 3.3988 13.1758 3.46019C13.6183 3.96238 13.4996 4.71794 13.3892 5.12391C13.3767 5.17381 13.3843 5.22516 13.4129 5.26717L13.4374 5.29882C13.4685 5.34052 13.4968 5.50627 13.4009 5.86352C13.383 5.97195 13.3427 6.05901 13.2851 6.11689C13.2617 6.14145 13.246 6.17342 13.2403 6.20993C13.091 7.08675 12.3058 8.06682 11.4787 8.06682C10.7762 8.06682 9.97528 7.16465 9.83121 6.20993C9.82523 6.17365 9.80985 6.14176 9.78442 6.1129C9.72566 6.05215 9.68771 5.96342 9.66427 5.82956C9.59499 5.58129 9.58725 5.3807 9.64059 5.29994ZM3.52778 4.35495L3.54692 4.33295C3.62114 4.27961 3.65702 4.19574 3.64338 4.109C3.45762 2.99395 3.57889 2.53003 3.62058 2.41355C3.94323 1.4232 4.96013 0.96015 5.15985 0.877952C5.20154 0.862007 5.27912 0.838568 5.36131 0.825174L5.38332 0.820072L5.55082 0.810903L5.55138 0.821427L5.58734 0.817999C5.62074 0.814889 5.65351 0.809707 5.69178 0.802054L5.73004 0.793204C5.76114 0.793523 6.15379 0.842873 6.74583 1.02433L7.15299 1.16441C7.89715 1.38437 8.2438 1.79615 8.30742 1.87859C8.906 2.55793 8.74623 3.58026 8.59786 4.12957C8.58048 4.19295 8.591 4.2588 8.62728 4.31246L8.66036 4.35495C8.7149 4.42798 8.73538 4.6725 8.61356 5.12534C8.58901 5.27315 8.534 5.39298 8.45347 5.47255C8.42406 5.50396 8.405 5.54502 8.39671 5.5915C8.19413 6.77702 7.13154 8.10262 6.01251 8.10262C5.06154 8.10262 3.97728 6.88258 3.78155 5.59229C3.77501 5.54581 3.75588 5.50388 3.72223 5.46728C3.64059 5.38309 3.58901 5.26183 3.55728 5.08149C3.46304 4.74186 3.45332 4.4688 3.52778 4.35495Z"/>
</mask>
<path d="M15.2264 8.90075L15.2031 8.87309C15.0915 8.73524 14.8476 8.53928 14.4917 8.40342L14.4372 8.38684C14.0666 8.21591 13.7308 8.10126 13.6323 8.06897C13.555 8.04354 13.4902 8.01588 13.4386 7.99339C13.0297 7.79169 12.9835 7.67385 12.9769 7.6556L12.9583 7.61223L12.974 7.57316C13.2778 7.19478 13.4913 6.75398 13.5726 6.33853L13.5845 6.3103C13.6684 6.20331 13.7221 6.0783 13.7434 5.94054C13.8401 5.59102 13.8441 5.33422 13.7574 5.1542L13.7497 5.13826L13.7536 5.12056C13.8615 4.66891 13.9654 3.82286 13.4469 3.23257C13.3642 3.12869 13.0463 2.77774 12.4297 2.59716L12.129 2.49415C11.6362 2.34235 11.3246 2.30584 11.2727 2.30496C11.2399 2.30496 11.2105 2.30895 11.1677 2.31836L11.1307 2.32577C11.109 2.32234 11.0864 2.32035 11.0611 2.32035C10.8961 2.32035 10.7178 2.39282 10.7178 2.39282C10.544 2.46585 9.66132 2.87301 9.3814 3.73811C9.33492 3.86105 9.24013 4.23488 9.36283 5.05263L9.36593 5.07288L9.3531 5.09002C9.22729 5.25952 9.21669 5.53425 9.32145 5.90346C9.34887 6.06698 9.40221 6.19765 9.48066 6.29603L9.49382 6.3237C9.57115 6.75199 9.76145 7.17397 10.0442 7.54486L10.0668 7.57483L10.0457 7.60481C10.0334 7.62307 10.0249 7.64188 10.0217 7.6556C9.97831 7.77941 9.64649 7.97546 9.13202 8.18147C9.01706 8.13977 8.93717 8.11354 8.90887 8.10413C8.80475 8.06929 8.71768 8.03198 8.64721 8.00113C8.10308 7.73261 8.03149 7.57603 8.02064 7.54007L7.9921 7.47645L8.01721 7.41738C8.42549 6.90865 8.71202 6.31628 8.82213 5.75565L8.83895 5.71714C8.95192 5.57364 9.02415 5.40582 9.05126 5.22293C9.18105 4.75525 9.18791 4.41116 9.07095 4.17118L9.05811 4.14575L9.06497 4.11833C9.21023 3.51169 9.34943 2.37672 8.65351 1.58608C8.54309 1.44767 8.1191 0.976892 7.29052 0.734366L6.88567 0.595404C6.20983 0.387719 5.7904 0.342355 5.73594 0.341797C5.69146 0.341797 5.65295 0.34666 5.59674 0.360054L5.54253 0.368904C5.31826 0.332628 5.04265 0.439062 4.99274 0.458515C4.75931 0.556419 3.5761 1.10366 3.20091 2.26375C3.1384 2.42806 3.01172 2.92914 3.17635 4.0268L3.18121 4.05989L3.16065 4.08731C2.9929 4.31158 2.98007 4.67824 3.1207 5.17326C3.15666 5.39123 3.22801 5.56527 3.33381 5.69857L3.35239 5.73763C3.45483 6.3123 3.71043 6.87979 4.09112 7.37943L4.12676 7.42591L4.0928 7.47502C4.07621 7.49925 4.06513 7.52413 4.06258 7.53975C3.96811 7.80883 2.91501 8.27929 1.99227 8.56096C1.32799 8.81266 1.03643 9.22037 1.03468 9.22292C0.119828 10.5811 0.00398628 13.4968 0 13.622C0.0142709 14.3805 0.358686 14.5345 0.424858 14.5567L0.483058 14.5822C2.50689 15.4653 5.46288 15.6373 5.79359 15.6542L5.89691 15.6573C5.99561 15.6573 6.09575 15.6518 6.18966 15.6467L6.19795 15.6464L6.22849 15.6487C6.25305 15.6547 6.27298 15.6579 6.29355 15.6579H6.29386L6.30782 15.6573C6.4416 15.6505 9.61532 15.4702 11.5958 14.5814C11.7039 14.5528 12.0532 14.4028 12.0846 13.6655C12.7908 13.6044 14.4802 13.4098 15.6275 12.8954C15.7125 12.8732 15.9907 12.755 16.0001 12.1561C15.9872 11.9258 15.8767 9.86799 15.2264 8.90075ZM4.3932 7.84303L4.44829 7.79169L4.50307 7.84303C4.98756 8.29954 5.52427 8.55036 6.01275 8.55036C6.52603 8.55036 7.05588 8.32776 7.54492 7.90609L7.5863 7.87125L7.69353 7.92379C7.78481 8.00679 7.94833 8.12606 8.02168 8.16201L8.12269 8.21136L8.11185 8.22165L8.15068 8.24501C8.24316 8.29954 8.34154 8.35288 8.45395 8.40877C8.5678 8.45923 8.66539 8.49718 8.76895 8.53146C8.7892 8.53832 9.27258 8.69442 9.82348 8.94946L9.92194 8.98C10.4455 9.17947 10.6669 9.46051 10.675 9.47015C11.4876 10.6765 11.6242 13.3095 11.6376 13.6039C11.6313 14.0154 11.5141 14.1221 11.4835 14.1426C9.66228 14.9578 6.91086 15.1698 6.37845 15.2038L6.36363 15.2047L6.34848 15.2001C6.33054 15.1947 6.3122 15.1922 6.2894 15.1922H6.28884L6.27003 15.193C6.12453 15.203 6.00414 15.2079 5.89165 15.2079H5.80347C5.47189 15.1878 2.50506 14.9936 0.606234 14.1487C0.567966 14.1328 0.455871 14.0032 0.44758 13.6248C0.447899 13.5966 0.545483 10.7545 1.39831 9.48761C1.44001 9.43507 1.67193 9.16488 2.13529 8.98797C2.54245 8.86272 3.5505 8.52859 4.10173 8.12941C4.12485 8.11545 4.14765 8.09201 4.1722 8.0669C4.21255 8.02337 4.29642 7.9332 4.3932 7.84303ZM10.0672 8.55435L9.99186 8.53234C9.86805 8.47526 9.73817 8.41881 9.60384 8.36372C9.79358 8.27499 9.94881 8.18793 10.0641 8.10381C10.0827 8.09297 10.1012 8.07416 10.1186 8.0559C10.1603 8.01109 10.2165 7.9509 10.2821 7.88959L10.3172 7.85738L10.3509 7.89023C10.7135 8.2309 11.1141 8.41777 11.4785 8.41777C11.8625 8.41777 12.2583 8.25171 12.6227 7.93727L12.6486 7.91526L12.7222 7.9509C12.7893 8.01341 12.9114 8.10126 12.9659 8.12837L13.0295 8.15859L13.0218 8.16632L13.0617 8.18968C13.1311 8.23106 13.2052 8.27044 13.2883 8.3115C13.3736 8.34913 13.4461 8.37767 13.5228 8.40334C13.5377 8.40821 13.894 8.52261 14.3061 8.71348L14.3785 8.73572C14.7537 8.87923 14.9169 9.07615 14.9326 9.09664C15.5389 9.99539 15.6368 11.9436 15.6457 12.1607C15.6414 12.462 15.5578 12.5391 15.5369 12.5527C14.3962 13.0632 12.7584 13.255 12.0697 13.3154C12.0077 12.4212 11.7869 10.3152 11.0502 9.21982L11.0191 9.18242C10.8698 8.99834 10.5428 8.73644 10.0672 8.55435ZM9.64059 5.29994L9.65343 5.28479C9.71107 5.24254 9.73929 5.17724 9.72845 5.10963C9.59148 4.28702 9.68053 3.94181 9.71107 3.85475C9.94993 3.12231 10.7012 2.78053 10.8489 2.72002C10.8786 2.70861 10.936 2.69147 10.9967 2.68119L11.015 2.67688L11.1283 2.6709L11.1291 2.67864L11.1634 2.67553C11.1888 2.67354 11.2133 2.66955 11.2304 2.6658L11.2687 2.65727C11.2929 2.65783 11.5896 2.69634 12.0197 2.8282L12.323 2.93233C12.8736 3.09497 13.1287 3.3988 13.1758 3.46019C13.6183 3.96238 13.4996 4.71794 13.3892 5.12391C13.3767 5.17381 13.3843 5.22516 13.4129 5.26717L13.4374 5.29882C13.4685 5.34052 13.4968 5.50627 13.4009 5.86352C13.383 5.97195 13.3427 6.05901 13.2851 6.11689C13.2617 6.14145 13.246 6.17342 13.2403 6.20993C13.091 7.08675 12.3058 8.06682 11.4787 8.06682C10.7762 8.06682 9.97528 7.16465 9.83121 6.20993C9.82523 6.17365 9.80985 6.14176 9.78442 6.1129C9.72566 6.05215 9.68771 5.96342 9.66427 5.82956C9.59499 5.58129 9.58725 5.3807 9.64059 5.29994ZM3.52778 4.35495L3.54692 4.33295C3.62114 4.27961 3.65702 4.19574 3.64338 4.109C3.45762 2.99395 3.57889 2.53003 3.62058 2.41355C3.94323 1.4232 4.96013 0.96015 5.15985 0.877952C5.20154 0.862007 5.27912 0.838568 5.36131 0.825174L5.38332 0.820072L5.55082 0.810903L5.55138 0.821427L5.58734 0.817999C5.62074 0.814889 5.65351 0.809707 5.69178 0.802054L5.73004 0.793204C5.76114 0.793523 6.15379 0.842873 6.74583 1.02433L7.15299 1.16441C7.89715 1.38437 8.2438 1.79615 8.30742 1.87859C8.906 2.55793 8.74623 3.58026 8.59786 4.12957C8.58048 4.19295 8.591 4.2588 8.62728 4.31246L8.66036 4.35495C8.7149 4.42798 8.73538 4.6725 8.61356 5.12534C8.58901 5.27315 8.534 5.39298 8.45347 5.47255C8.42406 5.50396 8.405 5.54502 8.39671 5.5915C8.19413 6.77702 7.13154 8.10262 6.01251 8.10262C5.06154 8.10262 3.97728 6.88258 3.78155 5.59229C3.77501 5.54581 3.75588 5.50388 3.72223 5.46728C3.64059 5.38309 3.58901 5.26183 3.55728 5.08149C3.46304 4.74186 3.45332 4.4688 3.52778 4.35495Z" fill="#757A93"/>
<path d="M15.2264 8.90075L15.2031 8.87309C15.0915 8.73524 14.8476 8.53928 14.4917 8.40342L14.4372 8.38684C14.0666 8.21591 13.7308 8.10126 13.6323 8.06897C13.555 8.04354 13.4902 8.01588 13.4386 7.99339C13.0297 7.79169 12.9835 7.67385 12.9769 7.6556L12.9583 7.61223L12.974 7.57316C13.2778 7.19478 13.4913 6.75398 13.5726 6.33853L13.5845 6.3103C13.6684 6.20331 13.7221 6.0783 13.7434 5.94054C13.8401 5.59102 13.8441 5.33422 13.7574 5.1542L13.7497 5.13826L13.7536 5.12056C13.8615 4.66891 13.9654 3.82286 13.4469 3.23257C13.3642 3.12869 13.0463 2.77774 12.4297 2.59716L12.129 2.49415C11.6362 2.34235 11.3246 2.30584 11.2727 2.30496C11.2399 2.30496 11.2105 2.30895 11.1677 2.31836L11.1307 2.32577C11.109 2.32234 11.0864 2.32035 11.0611 2.32035C10.8961 2.32035 10.7178 2.39282 10.7178 2.39282C10.544 2.46585 9.66132 2.87301 9.3814 3.73811C9.33492 3.86105 9.24013 4.23488 9.36283 5.05263L9.36593 5.07288L9.3531 5.09002C9.22729 5.25952 9.21669 5.53425 9.32145 5.90346C9.34887 6.06698 9.40221 6.19765 9.48066 6.29603L9.49382 6.3237C9.57115 6.75199 9.76145 7.17397 10.0442 7.54486L10.0668 7.57483L10.0457 7.60481C10.0334 7.62307 10.0249 7.64188 10.0217 7.6556C9.97831 7.77941 9.64649 7.97546 9.13202 8.18147C9.01706 8.13977 8.93717 8.11354 8.90887 8.10413C8.80475 8.06929 8.71768 8.03198 8.64721 8.00113C8.10308 7.73261 8.03149 7.57603 8.02064 7.54007L7.9921 7.47645L8.01721 7.41738C8.42549 6.90865 8.71202 6.31628 8.82213 5.75565L8.83895 5.71714C8.95192 5.57364 9.02415 5.40582 9.05126 5.22293C9.18105 4.75525 9.18791 4.41116 9.07095 4.17118L9.05811 4.14575L9.06497 4.11833C9.21023 3.51169 9.34943 2.37672 8.65351 1.58608C8.54309 1.44767 8.1191 0.976892 7.29052 0.734366L6.88567 0.595404C6.20983 0.387719 5.7904 0.342355 5.73594 0.341797C5.69146 0.341797 5.65295 0.34666 5.59674 0.360054L5.54253 0.368904C5.31826 0.332628 5.04265 0.439062 4.99274 0.458515C4.75931 0.556419 3.5761 1.10366 3.20091 2.26375C3.1384 2.42806 3.01172 2.92914 3.17635 4.0268L3.18121 4.05989L3.16065 4.08731C2.9929 4.31158 2.98007 4.67824 3.1207 5.17326C3.15666 5.39123 3.22801 5.56527 3.33381 5.69857L3.35239 5.73763C3.45483 6.3123 3.71043 6.87979 4.09112 7.37943L4.12676 7.42591L4.0928 7.47502C4.07621 7.49925 4.06513 7.52413 4.06258 7.53975C3.96811 7.80883 2.91501 8.27929 1.99227 8.56096C1.32799 8.81266 1.03643 9.22037 1.03468 9.22292C0.119828 10.5811 0.00398628 13.4968 0 13.622C0.0142709 14.3805 0.358686 14.5345 0.424858 14.5567L0.483058 14.5822C2.50689 15.4653 5.46288 15.6373 5.79359 15.6542L5.89691 15.6573C5.99561 15.6573 6.09575 15.6518 6.18966 15.6467L6.19795 15.6464L6.22849 15.6487C6.25305 15.6547 6.27298 15.6579 6.29355 15.6579H6.29386L6.30782 15.6573C6.4416 15.6505 9.61532 15.4702 11.5958 14.5814C11.7039 14.5528 12.0532 14.4028 12.0846 13.6655C12.7908 13.6044 14.4802 13.4098 15.6275 12.8954C15.7125 12.8732 15.9907 12.755 16.0001 12.1561C15.9872 11.9258 15.8767 9.86799 15.2264 8.90075ZM4.3932 7.84303L4.44829 7.79169L4.50307 7.84303C4.98756 8.29954 5.52427 8.55036 6.01275 8.55036C6.52603 8.55036 7.05588 8.32776 7.54492 7.90609L7.5863 7.87125L7.69353 7.92379C7.78481 8.00679 7.94833 8.12606 8.02168 8.16201L8.12269 8.21136L8.11185 8.22165L8.15068 8.24501C8.24316 8.29954 8.34154 8.35288 8.45395 8.40877C8.5678 8.45923 8.66539 8.49718 8.76895 8.53146C8.7892 8.53832 9.27258 8.69442 9.82348 8.94946L9.92194 8.98C10.4455 9.17947 10.6669 9.46051 10.675 9.47015C11.4876 10.6765 11.6242 13.3095 11.6376 13.6039C11.6313 14.0154 11.5141 14.1221 11.4835 14.1426C9.66228 14.9578 6.91086 15.1698 6.37845 15.2038L6.36363 15.2047L6.34848 15.2001C6.33054 15.1947 6.3122 15.1922 6.2894 15.1922H6.28884L6.27003 15.193C6.12453 15.203 6.00414 15.2079 5.89165 15.2079H5.80347C5.47189 15.1878 2.50506 14.9936 0.606234 14.1487C0.567966 14.1328 0.455871 14.0032 0.44758 13.6248C0.447899 13.5966 0.545483 10.7545 1.39831 9.48761C1.44001 9.43507 1.67193 9.16488 2.13529 8.98797C2.54245 8.86272 3.5505 8.52859 4.10173 8.12941C4.12485 8.11545 4.14765 8.09201 4.1722 8.0669C4.21255 8.02337 4.29642 7.9332 4.3932 7.84303ZM10.0672 8.55435L9.99186 8.53234C9.86805 8.47526 9.73817 8.41881 9.60384 8.36372C9.79358 8.27499 9.94881 8.18793 10.0641 8.10381C10.0827 8.09297 10.1012 8.07416 10.1186 8.0559C10.1603 8.01109 10.2165 7.9509 10.2821 7.88959L10.3172 7.85738L10.3509 7.89023C10.7135 8.2309 11.1141 8.41777 11.4785 8.41777C11.8625 8.41777 12.2583 8.25171 12.6227 7.93727L12.6486 7.91526L12.7222 7.9509C12.7893 8.01341 12.9114 8.10126 12.9659 8.12837L13.0295 8.15859L13.0218 8.16632L13.0617 8.18968C13.1311 8.23106 13.2052 8.27044 13.2883 8.3115C13.3736 8.34913 13.4461 8.37767 13.5228 8.40334C13.5377 8.40821 13.894 8.52261 14.3061 8.71348L14.3785 8.73572C14.7537 8.87923 14.9169 9.07615 14.9326 9.09664C15.5389 9.99539 15.6368 11.9436 15.6457 12.1607C15.6414 12.462 15.5578 12.5391 15.5369 12.5527C14.3962 13.0632 12.7584 13.255 12.0697 13.3154C12.0077 12.4212 11.7869 10.3152 11.0502 9.21982L11.0191 9.18242C10.8698 8.99834 10.5428 8.73644 10.0672 8.55435ZM9.64059 5.29994L9.65343 5.28479C9.71107 5.24254 9.73929 5.17724 9.72845 5.10963C9.59148 4.28702 9.68053 3.94181 9.71107 3.85475C9.94993 3.12231 10.7012 2.78053 10.8489 2.72002C10.8786 2.70861 10.936 2.69147 10.9967 2.68119L11.015 2.67688L11.1283 2.6709L11.1291 2.67864L11.1634 2.67553C11.1888 2.67354 11.2133 2.66955 11.2304 2.6658L11.2687 2.65727C11.2929 2.65783 11.5896 2.69634 12.0197 2.8282L12.323 2.93233C12.8736 3.09497 13.1287 3.3988 13.1758 3.46019C13.6183 3.96238 13.4996 4.71794 13.3892 5.12391C13.3767 5.17381 13.3843 5.22516 13.4129 5.26717L13.4374 5.29882C13.4685 5.34052 13.4968 5.50627 13.4009 5.86352C13.383 5.97195 13.3427 6.05901 13.2851 6.11689C13.2617 6.14145 13.246 6.17342 13.2403 6.20993C13.091 7.08675 12.3058 8.06682 11.4787 8.06682C10.7762 8.06682 9.97528 7.16465 9.83121 6.20993C9.82523 6.17365 9.80985 6.14176 9.78442 6.1129C9.72566 6.05215 9.68771 5.96342 9.66427 5.82956C9.59499 5.58129 9.58725 5.3807 9.64059 5.29994ZM3.52778 4.35495L3.54692 4.33295C3.62114 4.27961 3.65702 4.19574 3.64338 4.109C3.45762 2.99395 3.57889 2.53003 3.62058 2.41355C3.94323 1.4232 4.96013 0.96015 5.15985 0.877952C5.20154 0.862007 5.27912 0.838568 5.36131 0.825174L5.38332 0.820072L5.55082 0.810903L5.55138 0.821427L5.58734 0.817999C5.62074 0.814889 5.65351 0.809707 5.69178 0.802054L5.73004 0.793204C5.76114 0.793523 6.15379 0.842873 6.74583 1.02433L7.15299 1.16441C7.89715 1.38437 8.2438 1.79615 8.30742 1.87859C8.906 2.55793 8.74623 3.58026 8.59786 4.12957C8.58048 4.19295 8.591 4.2588 8.62728 4.31246L8.66036 4.35495C8.7149 4.42798 8.73538 4.6725 8.61356 5.12534C8.58901 5.27315 8.534 5.39298 8.45347 5.47255C8.42406 5.50396 8.405 5.54502 8.39671 5.5915C8.19413 6.77702 7.13154 8.10262 6.01251 8.10262C5.06154 8.10262 3.97728 6.88258 3.78155 5.59229C3.77501 5.54581 3.75588 5.50388 3.72223 5.46728C3.64059 5.38309 3.58901 5.26183 3.55728 5.08149C3.46304 4.74186 3.45332 4.4688 3.52778 4.35495Z" stroke="#757A93" stroke-width="0.2" mask="url(#path-1-outside-1_14093_283062)"/>
</g>
<defs>
<clipPath id="clip0_14093_283062">
<rect width="16" height="16" fill="white"/>
</clipPath>
</defs>
</svg>
