<svg width="20" height="20" viewBox="0 0 20 20" fill="none" xmlns="http://www.w3.org/2000/svg">
<mask id="path-1-inside-1_14093_282983" fill="white">
<path fill-rule="evenodd" clip-rule="evenodd" d="M8.05166 2.93515C8.1594 2.89198 8.27963 2.89198 8.38737 2.93515L10.389 3.73562L4.83537 5.95652L2.6659 5.08928L8.05166 2.93515ZM6.05005 6.44293L11.6037 4.22203L13.7731 5.08928L8.21951 7.31018L6.05005 6.44293ZM8.67073 15.2516V8.10252L14.5366 5.75618V5.75708V9.74701C14.8532 9.77397 15.1564 9.84821 15.439 9.96262V5.08928C15.439 4.99916 15.412 4.91112 15.3615 4.83649C15.311 4.76186 15.2393 4.70407 15.1557 4.67054L8.72217 2.09679C8.39949 1.96774 8.03954 1.96774 7.71685 2.09679L1.28337 4.67054C1.19972 4.70407 1.12803 4.76186 1.07753 4.83649C1.02702 4.91112 1.00002 4.99916 1 5.08928V12.9062C1.00019 13.0866 1.05445 13.2629 1.1558 13.4121C1.25714 13.5614 1.40091 13.6769 1.56854 13.7437L8.05166 16.3373C8.1594 16.3805 8.27963 16.3805 8.38737 16.3373L11.926 14.9218C11.7233 14.692 11.5539 14.4322 11.4254 14.1498L8.67073 15.2516ZM7.76829 8.10162V15.2525L1.90244 12.9062V5.75618L7.76829 8.10162Z"/>
</mask>
<path fill-rule="evenodd" clip-rule="evenodd" d="M8.05166 2.93515C8.1594 2.89198 8.27963 2.89198 8.38737 2.93515L10.389 3.73562L4.83537 5.95652L2.6659 5.08928L8.05166 2.93515ZM6.05005 6.44293L11.6037 4.22203L13.7731 5.08928L8.21951 7.31018L6.05005 6.44293ZM8.67073 15.2516V8.10252L14.5366 5.75618V5.75708V9.74701C14.8532 9.77397 15.1564 9.84821 15.439 9.96262V5.08928C15.439 4.99916 15.412 4.91112 15.3615 4.83649C15.311 4.76186 15.2393 4.70407 15.1557 4.67054L8.72217 2.09679C8.39949 1.96774 8.03954 1.96774 7.71685 2.09679L1.28337 4.67054C1.19972 4.70407 1.12803 4.76186 1.07753 4.83649C1.02702 4.91112 1.00002 4.99916 1 5.08928V12.9062C1.00019 13.0866 1.05445 13.2629 1.1558 13.4121C1.25714 13.5614 1.40091 13.6769 1.56854 13.7437L8.05166 16.3373C8.1594 16.3805 8.27963 16.3805 8.38737 16.3373L11.926 14.9218C11.7233 14.692 11.5539 14.4322 11.4254 14.1498L8.67073 15.2516ZM7.76829 8.10162V15.2525L1.90244 12.9062V5.75618L7.76829 8.10162Z" fill="#757A93"/>
<path d="M8.38737 2.93515L8.31297 3.1208L8.3131 3.12085L8.38737 2.93515ZM8.05166 2.93515L8.12593 3.12085L8.12606 3.1208L8.05166 2.93515ZM10.389 3.73562L10.4632 3.92132L10.9276 3.73562L10.4632 3.54992L10.389 3.73562ZM4.83537 5.95652L4.76113 6.14223L4.83538 6.17191L4.90963 6.14222L4.83537 5.95652ZM2.6659 5.08928L2.59163 4.90358L2.12722 5.08933L2.59166 5.27499L2.6659 5.08928ZM11.6037 4.22203L11.6779 4.03632L11.6036 4.00664L11.5294 4.03633L11.6037 4.22203ZM6.05005 6.44293L5.97579 6.25723L5.51133 6.44297L5.97581 6.62864L6.05005 6.44293ZM13.7731 5.08928L13.8474 5.27498L14.3118 5.08924L13.8474 4.90356L13.7731 5.08928ZM8.21951 7.31018L8.14527 7.49589L8.21953 7.52557L8.29378 7.49588L8.21951 7.31018ZM8.67073 8.10252L8.59645 7.91682L8.47073 7.96711V8.10252H8.67073ZM8.67073 15.2516H8.47073V15.547L8.74501 15.4373L8.67073 15.2516ZM14.5366 5.75618H14.7366V5.46077L14.4623 5.57048L14.5366 5.75618ZM14.5366 9.74701H14.3366V9.9307L14.5196 9.94629L14.5366 9.74701ZM15.439 9.96262L15.364 10.148L15.639 10.2594V9.96262H15.439ZM15.439 5.08928H15.639V5.08923L15.439 5.08928ZM15.3615 4.83649L15.1959 4.94858L15.1959 4.94858L15.3615 4.83649ZM15.1557 4.67054L15.2301 4.4849L15.2299 4.48485L15.1557 4.67054ZM8.72217 2.09679L8.79646 1.9111L8.79644 1.91109L8.72217 2.09679ZM7.71685 2.09679L7.64259 1.91109L7.64257 1.9111L7.71685 2.09679ZM1.28337 4.67054L1.20908 4.48485L1.20897 4.4849L1.28337 4.67054ZM1 5.08928L0.8 5.08923V5.08928H1ZM1 12.9062H0.8L0.8 12.9064L1 12.9062ZM1.1558 13.4121L0.990328 13.5245H0.990328L1.1558 13.4121ZM1.56854 13.7437L1.64282 13.558L1.64254 13.5579L1.56854 13.7437ZM8.05166 16.3373L8.12606 16.1516L8.12595 16.1516L8.05166 16.3373ZM8.38737 16.3373L8.31309 16.1516L8.31296 16.1516L8.38737 16.3373ZM11.926 14.9218L12.0003 15.1075L12.2636 15.0022L12.076 14.7895L11.926 14.9218ZM11.4254 14.1498L11.6074 14.0669L11.5283 13.8932L11.3511 13.9641L11.4254 14.1498ZM7.76829 15.2525L7.69401 15.4382L7.96829 15.5479V15.2525H7.76829ZM7.76829 8.10162H7.96829V7.96619L7.84255 7.91591L7.76829 8.10162ZM1.90244 12.9062H1.70244V13.0416L1.82816 13.0919L1.90244 12.9062ZM1.90244 5.75618L1.97669 5.57047L1.70244 5.46081V5.75618H1.90244ZM8.46177 2.74951C8.30627 2.68719 8.13275 2.68719 7.97726 2.74951L8.12606 3.1208C8.18604 3.09676 8.25298 3.09676 8.31297 3.1208L8.46177 2.74951ZM10.4632 3.54992L8.46163 2.74945L8.3131 3.12085L10.3147 3.92132L10.4632 3.54992ZM4.90963 6.14222L10.4632 3.92132L10.3147 3.54991L4.7611 5.77082L4.90963 6.14222ZM2.59166 5.27499L4.76113 6.14223L4.9096 5.77081L2.74014 4.90356L2.59166 5.27499ZM7.97739 2.74946L2.59163 4.90358L2.74018 5.27497L8.12593 3.12085L7.97739 2.74946ZM11.5294 4.03633L5.97579 6.25723L6.12431 6.62863L11.6779 4.40773L11.5294 4.03633ZM13.8474 4.90356L11.6779 4.03632L11.5294 4.40774L13.6989 5.27499L13.8474 4.90356ZM8.29378 7.49588L13.8474 5.27498L13.6989 4.90357L8.14525 7.12448L8.29378 7.49588ZM5.97581 6.62864L8.14527 7.49589L8.29375 7.12447L6.12429 6.25722L5.97581 6.62864ZM8.47073 8.10252V15.2516H8.87073V8.10252H8.47073ZM14.4623 5.57048L8.59645 7.91682L8.74501 8.28821L14.6109 5.94187L14.4623 5.57048ZM14.7366 5.75708V5.75618H14.3366V5.75708H14.7366ZM14.7366 9.74701V5.75708H14.3366V9.74701H14.7366ZM14.5196 9.94629C14.816 9.97153 15.0996 10.041 15.364 10.148L15.5141 9.77724C15.2132 9.65542 14.8905 9.57642 14.5536 9.54773L14.5196 9.94629ZM15.239 5.08928V9.96262H15.639V5.08928H15.239ZM15.1959 4.94858C15.224 4.99013 15.239 5.03915 15.239 5.08932L15.639 5.08923C15.639 4.95918 15.6 4.83211 15.5271 4.7244L15.1959 4.94858ZM15.0813 4.85619C15.1278 4.87485 15.1677 4.90703 15.1959 4.94858L15.5271 4.7244C15.4542 4.61669 15.3508 4.53328 15.2301 4.4849L15.0813 4.85619ZM8.64788 2.28248L15.0814 4.85624L15.2299 4.48485L8.79646 1.9111L8.64788 2.28248ZM7.79112 2.28249C8.06613 2.1725 8.3729 2.1725 8.6479 2.28249L8.79644 1.91109C8.42608 1.76297 8.01294 1.76297 7.64259 1.91109L7.79112 2.28249ZM1.35765 4.85624L7.79114 2.28248L7.64257 1.9111L1.20908 4.48485L1.35765 4.85624ZM1.24316 4.94858C1.27128 4.90703 1.3112 4.87485 1.35777 4.85619L1.20897 4.4849C1.08825 4.53328 0.984778 4.61669 0.911889 4.7244L1.24316 4.94858ZM1.2 5.08932C1.20001 5.03915 1.21504 4.99013 1.24316 4.94858L0.911889 4.7244C0.839 4.83211 0.80003 4.95918 0.8 5.08923L1.2 5.08932ZM1.2 12.9062V5.08928H0.8V12.9062H1.2ZM1.32127 13.2998C1.24239 13.1836 1.20014 13.0464 1.2 12.906L0.8 12.9064C0.800228 13.1268 0.866523 13.3421 0.990328 13.5245L1.32127 13.2998ZM1.64254 13.5579C1.51206 13.5059 1.40015 13.416 1.32127 13.2998L0.990328 13.5245C1.11413 13.7068 1.28976 13.8479 1.49454 13.9295L1.64254 13.5579ZM8.12595 16.1516L1.64282 13.558L1.49425 13.9294L7.97737 16.523L8.12595 16.1516ZM8.31296 16.1516C8.25298 16.1757 8.18604 16.1757 8.12606 16.1516L7.97726 16.5229C8.13275 16.5852 8.30627 16.5852 8.46177 16.5229L8.31296 16.1516ZM11.8517 14.7361L8.31309 16.1516L8.46164 16.523L12.0003 15.1075L11.8517 14.7361ZM12.076 14.7895C11.8862 14.5744 11.7277 14.3311 11.6074 14.0669L11.2433 14.2327C11.3802 14.5332 11.5604 14.8097 11.776 15.0541L12.076 14.7895ZM8.74501 15.4373L11.4996 14.3355L11.3511 13.9641L8.59645 15.0659L8.74501 15.4373ZM7.96829 15.2525V8.10162H7.56829V15.2525H7.96829ZM1.82816 13.0919L7.69401 15.4382L7.84257 15.0668L1.97672 12.7205L1.82816 13.0919ZM1.70244 5.75618V12.9062H2.10244V5.75618H1.70244ZM7.84255 7.91591L1.97669 5.57047L1.82819 5.94188L7.69404 8.28732L7.84255 7.91591Z" fill="#757A93" mask="url(#path-1-inside-1_14093_282983)"/>
<path d="M12 10.5L14.108 13.4512C14.3031 13.7243 14.7065 13.7315 14.9112 13.4655L19.5 7.5" stroke="#757A93" stroke-linecap="round"/>
</svg>
