<svg width="24" height="24" viewBox="0 0 24 24" fill="none" xmlns="http://www.w3.org/2000/svg">
<g clip-path="url(#clip0_13178_286060)">
<path d="M11.6104 12.9704C11.4504 12.7304 11.2504 12.5104 10.9904 12.3204C10.7404 12.1304 10.4304 11.9704 10.0604 11.8404C10.3604 11.7004 10.6304 11.5404 10.8604 11.3404C11.0904 11.1404 11.2804 10.9304 11.4304 10.7004C11.5804 10.4704 11.7004 10.2404 11.7704 9.99039C11.8504 9.75039 11.8804 9.50039 11.8804 9.26039C11.8804 8.71039 11.7904 8.22039 11.6004 7.80039C11.4204 7.38039 11.1604 7.03039 10.8204 6.74039C10.4904 6.46039 10.0904 6.24039 9.62043 6.10039C9.17043 5.97039 8.65043 5.90039 8.09043 5.90039C7.54043 5.90039 7.03043 5.98039 6.57043 6.14039C6.10043 6.31039 5.70043 6.54039 5.37043 6.83039C5.04043 7.12039 4.77043 7.46039 4.59043 7.86039C4.39043 8.25039 4.30043 8.69039 4.30043 9.15039H6.28043C6.28043 8.89039 6.33043 8.66039 6.42043 8.46039C6.51043 8.26039 6.64043 8.08039 6.80043 7.94039C6.97043 7.80039 7.16043 7.69039 7.38043 7.61039C7.60043 7.53039 7.84043 7.49039 8.11043 7.49039C8.72043 7.49039 9.17043 7.65039 9.47043 7.96039C9.77043 8.27039 9.91043 8.71039 9.91043 9.28039C9.91043 9.55039 9.87043 9.80039 9.79043 10.0204C9.71043 10.2404 9.58043 10.4304 9.41043 10.5904C9.24043 10.7504 9.03043 10.8704 8.78043 10.9604C8.53043 11.0504 8.23043 11.0904 7.89043 11.0904H6.72043V12.6604H7.90043C8.24043 12.6604 8.54043 12.7004 8.81043 12.7704C9.08043 12.8504 9.31043 12.9604 9.50043 13.1204C9.69043 13.2804 9.84043 13.4804 9.94043 13.7304C10.0404 13.9704 10.1004 14.2704 10.1004 14.6004C10.1004 15.2204 9.92043 15.6904 9.57043 16.0204C9.22043 16.3504 8.73043 16.5104 8.12043 16.5104C7.83043 16.5104 7.56043 16.4704 7.32043 16.3804C7.08043 16.3004 6.88043 16.1804 6.71043 16.0204C6.54043 15.8604 6.41043 15.6804 6.32043 15.4604C6.23043 15.2404 6.18043 15.0004 6.18043 14.7404H4.19043C4.19043 15.2904 4.30043 15.7704 4.51043 16.1904C4.72043 16.6104 5.01043 16.9604 5.37043 17.2404C5.73043 17.5204 6.14043 17.7304 6.61043 17.8704C7.08043 18.0104 7.57043 18.0804 8.09043 18.0804C8.66043 18.0804 9.18043 18.0004 9.67043 17.8504C10.1604 17.7004 10.5804 17.4704 10.9304 17.1704C11.2904 16.8704 11.5704 16.5104 11.7704 16.0704C11.9704 15.6404 12.0704 15.1404 12.0704 14.5904C12.0704 14.3004 12.0304 14.0104 11.9604 13.7304C11.8804 13.4804 11.7704 13.2204 11.6104 12.9704ZM20.8704 14.3704C20.7304 14.0904 20.5204 13.8404 20.2404 13.6304C19.9604 13.4204 19.6304 13.2404 19.2304 13.1004C18.8304 12.9604 18.3804 12.8304 17.8804 12.7204C17.5304 12.6504 17.2404 12.5704 17.0104 12.4904C16.7804 12.4104 16.6004 12.3304 16.4604 12.2404C16.3204 12.1504 16.2304 12.0504 16.1804 11.9404C16.1304 11.8304 16.1004 11.7004 16.1004 11.5504C16.1004 11.4004 16.1304 11.2704 16.1904 11.1404C16.2504 11.0104 16.3404 10.8904 16.4604 10.8004C16.5804 10.7004 16.7304 10.6204 16.9104 10.5604C17.0904 10.5004 17.3104 10.4704 17.5504 10.4704C17.8004 10.4704 18.0204 10.5104 18.2104 10.5804C18.4004 10.6504 18.5604 10.7504 18.6904 10.8704C18.8204 10.9904 18.9104 11.1304 18.9804 11.2904C19.0404 11.4504 19.0804 11.6104 19.0804 11.7804H21.0304C21.0304 11.3904 20.9504 11.0304 20.7904 10.6904C20.6304 10.3504 20.4004 10.0604 20.1004 9.81039C19.8004 9.56039 19.4404 9.37039 19.0104 9.22039C18.5804 9.07039 18.0904 9.00039 17.5504 9.00039C17.0404 9.00039 16.5704 9.07039 16.1604 9.21039C15.7504 9.35039 15.3904 9.54039 15.1004 9.78039C14.8104 10.0204 14.5904 10.3004 14.4304 10.6204C14.2704 10.9404 14.2004 11.2704 14.2004 11.6304C14.2004 11.9904 14.2804 12.3104 14.4304 12.5904C14.5804 12.8704 14.8004 13.1104 15.0704 13.3204C15.3404 13.5304 15.6704 13.7004 16.0504 13.8504C16.4304 13.9904 16.8604 14.1104 17.3204 14.2104C17.7104 14.2904 18.0304 14.3804 18.2704 14.4704C18.5104 14.5604 18.7004 14.6604 18.8404 14.7604C18.9704 14.8604 19.0604 14.9804 19.1104 15.1004C19.1604 15.2204 19.1804 15.3504 19.1804 15.4904C19.1804 15.8104 19.0504 16.0604 18.7804 16.2604C18.5104 16.4604 18.1204 16.5504 17.6104 16.5504C17.3904 16.5504 17.1804 16.5304 16.9704 16.4704C16.7604 16.4204 16.5704 16.3404 16.4104 16.2304C16.2404 16.1204 16.1104 15.9704 16.0004 15.7904C15.8904 15.6104 15.8304 15.3804 15.8204 15.1204H13.9304C13.9304 15.4804 14.0104 15.8304 14.1704 16.1704C14.3304 16.5104 14.5604 16.8204 14.8704 17.1004C15.1804 17.3704 15.5604 17.5904 16.0204 17.7604C16.4804 17.9304 17.0004 18.0104 17.6004 18.0104C18.1304 18.0104 18.6104 17.9504 19.0404 17.8204C19.4704 17.6904 19.8404 17.5104 20.1504 17.2804C20.4604 17.0504 20.6904 16.7704 20.8604 16.4504C21.0304 16.1304 21.1104 15.7804 21.1104 15.3904C21.0904 14.9904 21.0204 14.6504 20.8704 14.3704Z" fill="#757A93"/>
</g>
<defs>
<clipPath id="clip0_13178_286060">
<rect width="24" height="24" fill="white"/>
</clipPath>
</defs>
</svg>
