<svg width="24" height="24" viewBox="0 0 24 24" fill="none" xmlns="http://www.w3.org/2000/svg">
<g clip-path="url(#clip0_13178_285700)">
<path d="M11.0004 7.00043L7.80043 16.0004H9.70043L10.4004 14.0004H13.6004L14.3004 16.0004H16.2004L13.0004 7.00043H11.0004ZM10.8504 12.6504L12.0004 9.00043L13.1504 12.6504H10.8504ZM20.0004 8.69043V4.00043H15.3104L12.0004 0.69043L8.69043 4.00043H4.00043V8.69043L0.69043 12.0004L4.00043 15.3104V20.0004H8.69043L12.0004 23.3104L15.3104 20.0004H20.0004V15.3104L23.3104 12.0004L20.0004 8.69043ZM18.0004 14.4804V18.0004H14.4804L12.0004 20.4804L9.52043 18.0004H6.00043V14.4804L3.52043 12.0004L6.00043 9.52043V6.00043H9.52043L12.0004 3.52043L14.4804 6.00043H18.0004V9.52043L20.4804 12.0004L18.0004 14.4804Z" fill="#757A93"/>
</g>
<defs>
<clipPath id="clip0_13178_285700">
<rect width="24" height="24" fill="white"/>
</clipPath>
</defs>
</svg>
